<svg width="84" height="80" viewBox="0 0 84 80" fill="none" xmlns="http://www.w3.org/2000/svg">
<path d="M59.4287 8.16231H56.0529V11.5381H59.4287V8.16231Z" fill="white"/>
<path d="M64.7153 8.16231H61.3399V11.5381H64.7153V8.16231Z" fill="white"/>
<path d="M70.0023 8.16231H66.6269V11.5381H70.0023V8.16231Z" fill="white"/>
<path d="M54.6906 25.0239H22.5017V30.1585H54.6906V25.0239Z" fill="white"/>
<path d="M77.1905 46.0761V0H0V66.0857H45.9986C46.0112 66.1291 46.0227 66.1738 46.0356 66.2171C47.2014 70.1194 49.6402 73.628 52.9032 76.0968C56.2783 78.6503 60.305 80 64.5474 80C75.1993 79.9998 83.8655 71.3337 83.8655 60.6816C83.8655 55.003 81.448 49.7509 77.1905 46.0761ZM53.9548 5.13447H72.0559V14.386H53.9548V5.13447ZM5.13463 5.13447H48.8202V14.386H5.13463V5.13447ZM46.1154 54.8788C46.1039 54.9149 46.0931 54.9514 46.082 54.9878C46.0273 55.166 45.975 55.3452 45.9254 55.5252C45.9101 55.5804 45.8949 55.6358 45.88 55.6913C45.835 55.8608 45.7925 56.0312 45.7519 56.2022C45.739 56.2569 45.725 56.3116 45.7126 56.3665C45.6128 56.8051 45.528 57.2484 45.4585 57.696C45.4467 57.7719 45.4369 57.8482 45.4261 57.9242C45.405 58.0716 45.385 58.2192 45.3675 58.3675C45.357 58.4548 45.3478 58.5422 45.3385 58.6299C45.3236 58.771 45.3103 58.9126 45.2983 59.0543C45.2911 59.1412 45.2839 59.2282 45.2779 59.3152C45.2672 59.4677 45.259 59.6207 45.252 59.774C45.2486 59.8485 45.2441 59.9227 45.2415 59.9971C45.2336 60.2246 45.2287 60.4526 45.2287 60.6813C45.2287 60.7712 45.2294 60.861 45.2309 60.9509H5.13463V19.5207H72.0559V42.8726C71.8626 42.7911 71.6678 42.7136 71.4722 42.6386C71.4272 42.6212 71.3821 42.6043 71.3369 42.5875C71.123 42.507 70.9083 42.4296 70.6916 42.357C70.676 42.3519 70.6605 42.347 70.6449 42.3419C70.4377 42.2731 70.2288 42.2084 70.0192 42.1467C69.9776 42.1346 69.9363 42.1219 69.8945 42.1098C69.6781 42.0477 69.4608 41.9894 69.2423 41.935C69.2005 41.9246 69.1587 41.9149 69.1168 41.9047C68.9055 41.8538 68.6934 41.8055 68.4801 41.7616C68.4618 41.7578 68.4437 41.7536 68.4257 41.75C68.2015 41.7044 67.9759 41.664 67.7497 41.6266C67.7016 41.6186 67.6534 41.6107 67.6051 41.6032C67.3805 41.5676 67.1553 41.5354 66.9289 41.5077C66.898 41.5039 66.8668 41.5008 66.8359 41.4972C66.6442 41.4748 66.4519 41.4554 66.2592 41.4387V35.4998H11.125V49.1447H49.0459C47.7539 50.8764 46.763 52.8128 46.1154 54.8788ZM61.124 40.6346V41.6664C60.813 41.7221 60.5034 41.7852 60.1959 41.8563C60.1912 41.8572 60.1863 41.8586 60.1815 41.8595C60.0352 41.8934 59.8893 41.929 59.7438 41.9663C59.7334 41.9691 59.7229 41.9714 59.7126 41.9742C59.5743 42.0097 59.4367 42.0472 59.2993 42.0859C59.2819 42.0907 59.2647 42.0952 59.2475 42.1003C59.1547 42.1269 59.062 42.1544 58.9696 42.1822C58.9432 42.1901 58.917 42.1981 58.8908 42.206C58.8805 42.2091 58.8703 42.2122 58.86 42.2153C58.8359 42.2227 58.8117 42.2297 58.7878 42.2373C58.6672 42.2749 58.5473 42.3142 58.4274 42.3544C58.3961 42.3649 58.3647 42.3747 58.3332 42.3853C58.2944 42.3984 58.2556 42.4124 58.2167 42.426C58.1858 42.4368 58.1552 42.4479 58.1244 42.4589C58.0813 42.4741 58.038 42.4892 57.9951 42.5047C57.9586 42.5178 57.9219 42.5305 57.8854 42.5437C57.762 42.5891 57.6392 42.6363 57.5165 42.6843C57.4934 42.6933 57.4701 42.7016 57.447 42.7108C57.2561 42.7863 57.0662 42.8664 56.8772 42.9483C56.8159 42.9749 56.7547 43.0017 56.6937 43.0287C56.5593 43.0889 56.4253 43.1506 56.2919 43.214C56.1509 43.2805 56.0112 43.3496 55.8721 43.4196C55.8169 43.4474 55.7612 43.4751 55.706 43.5036C55.393 43.6646 55.0844 43.8328 54.7814 44.0104H16.2596V40.6346H61.124ZM68.6533 74.2569C67.3527 74.651 65.9746 74.8652 64.5471 74.8652C63.1091 74.8652 61.7058 74.6405 60.3745 74.2254V68.7606H68.6533V74.2569ZM60.734 63.6259L63.114 60.2028H65.9145L68.294 63.6259H60.734ZM73.7879 71.4282V62.5334L64.5152 49.1943L55.24 62.5332V71.3597C53.2556 69.6364 51.7373 67.3658 50.9555 64.7478C50.7969 64.2171 50.667 63.658 50.5693 63.0854C50.4327 62.2872 50.3635 61.4782 50.3635 60.6813C50.3635 60.5134 50.3671 60.346 50.3729 60.1791C50.375 60.117 50.3788 60.0552 50.3815 59.9932C50.3863 59.8911 50.3919 59.7891 50.3989 59.6875C50.4043 59.6081 50.4109 59.5288 50.4176 59.4497C50.4243 59.3707 50.4318 59.2923 50.4399 59.2136C50.4497 59.1193 50.4595 59.0253 50.471 58.9314C50.4772 58.8808 50.4842 58.8305 50.491 58.7799C51.0397 54.6806 53.347 51.0169 56.897 48.7375C57.4647 48.373 58.0565 48.0508 58.6629 47.773C58.6864 47.7622 58.7096 47.7511 58.733 47.7406C58.9321 47.6507 59.1327 47.5652 59.3347 47.4852C59.528 47.4089 59.7229 47.3378 59.9185 47.2703C59.991 47.2453 60.0641 47.223 60.137 47.1991C60.259 47.1593 60.3812 47.1196 60.5042 47.0833C60.5963 47.0561 60.6886 47.0307 60.7814 47.0055C60.8852 46.977 60.9894 46.949 61.0939 46.9229C61.1966 46.8972 61.2996 46.873 61.403 46.8495C61.4975 46.8281 61.5923 46.8081 61.687 46.7888C61.7974 46.7662 61.9078 46.744 62.0187 46.7242C62.1065 46.7085 62.1948 46.6947 62.2829 46.6807C62.3997 46.662 62.5163 46.6428 62.6338 46.6271C62.7135 46.6163 62.7938 46.6084 62.8739 46.5991C63.1452 46.5673 63.418 46.5426 63.6921 46.5264C63.7358 46.5237 63.7794 46.5193 63.8231 46.5172C63.8754 46.5146 63.9239 46.5134 63.9746 46.5113C64.165 46.5038 64.3555 46.4982 64.5468 46.4982C67.6537 46.4982 70.6036 47.4843 73.077 49.3495C76.6696 52.059 78.7305 56.1896 78.7305 60.6819C78.7309 64.9745 76.811 68.8251 73.7879 71.4282Z" fill="white"/>
</svg>
