<svg width="87" height="68" viewBox="0 0 87 68" fill="none" xmlns="http://www.w3.org/2000/svg">
<path d="M28.8594 8.94737H12.7726V12.5263H28.8594V8.94737Z" fill="white"/>
<path d="M41.3714 8.94737H32.4343V12.5263H41.3714V8.94737Z" fill="white"/>
<path d="M28.8594 35.7895H12.7726V39.3684H28.8594V35.7895Z" fill="white"/>
<path d="M41.3714 35.7895H32.4343V39.3684H41.3714V35.7895Z" fill="white"/>
<path d="M23.4972 26.8421H12.7726V30.4211H23.4972V26.8421Z" fill="white"/>
<path d="M57.4582 26.8421H52.0959V30.4211H57.4582V26.8421Z" fill="white"/>
<path d="M48.521 26.8421H27.072V30.4211H48.521V26.8421Z" fill="white"/>
<path d="M43.1588 17.8947H36.0091V21.4737H43.1588V17.8947Z" fill="white"/>
<path d="M32.4343 17.8947H12.7726V21.4737H32.4343V17.8947Z" fill="white"/>
<path d="M73.545 17.8947H46.7336V21.4737H73.545V17.8947Z" fill="white"/>
<path d="M39.5839 44.7368H12.7726V48.3158H39.5839V44.7368Z" fill="white"/>
<path d="M68.5527 33.6295L66.0252 36.16L71.0174 41.1579L66.0252 46.1558L68.5527 48.6863L76.0725 41.1579L68.5527 33.6295Z" fill="white"/>
<path d="M54.2534 36.16L51.7258 33.6295L44.2061 41.1579L51.7258 48.6863L54.2534 46.1558L49.2612 41.1579L54.2534 36.16Z" fill="white"/>
<path d="M62.0502 31.5632L54.9063 49.4597L58.2259 50.7878L65.3698 32.8914L62.0502 31.5632Z" fill="white"/>
<path d="M82.482 53.6842V0H3.83552V53.6842H0.260681V61.3838L4.66639 68H81.6512L86.0569 61.3838V53.6842H82.482ZM7.41037 3.57895H78.9072V53.6842H7.41037V3.57895ZM82.482 60.3004L79.7381 64.4211H6.57949L3.83552 60.3004V57.2632H82.482V60.3004Z" fill="white"/>
<path d="M52.0959 59.0526H48.521V62.6316H52.0959V59.0526Z" fill="white"/>
<path d="M44.9462 59.0526H41.3714V62.6316H44.9462V59.0526Z" fill="white"/>
<path d="M37.7965 59.0526H34.2217V62.6316H37.7965V59.0526Z" fill="white"/>
</svg>
