<svg width="92" height="62" viewBox="0 0 92 62" fill="none" xmlns="http://www.w3.org/2000/svg">
<path d="M57.276 0C64.7543 0 71.5366 3.03683 76.4531 7.92087C81.3621 12.8197 84.3905 19.5731 84.3905 27.0506C84.3905 32.511 82.7615 37.6093 79.9775 41.8579L91.7133 54.6185L83.6204 62L72.2919 49.5793C67.9974 52.4388 62.8218 54.1013 57.276 54.1013C51.1008 54.1013 45.3995 52.0324 40.8385 48.5596C37.9952 51.4191 35.2779 54.1382 32.9899 56.4214L17.2706 40.9269L6.22343 51.6334L0.722046 46.1435L17.3669 29.9988C22.5647 35.1858 27.7033 40.3137 32.9529 45.4859L35.3889 43.0328C32.1014 38.5551 30.1689 33.043 30.1689 27.058C30.1689 19.5953 33.2121 12.8271 38.1063 7.92826C43.0153 3.01466 49.7828 0 57.276 0ZM39.5501 38.8433L50.3826 27.9299L43.9335 21.4942L62.074 21.3317V39.597L55.8766 33.4125C52.7668 36.5527 48.8499 40.5058 44.896 44.4884C48.3982 47.0375 52.7223 48.5523 57.387 48.5523C63.2438 48.5523 68.5601 46.173 72.3955 42.3382C76.2384 38.5034 78.6225 33.2056 78.6225 27.361C78.6225 21.5164 76.2384 16.2112 72.3955 12.3837C68.5527 8.54892 63.2438 6.16971 57.387 6.16971C51.5303 6.16971 46.214 8.54892 42.3786 12.3837C38.5357 16.2186 36.1516 21.5164 36.1516 27.361C36.1516 31.5874 37.4029 35.5331 39.5501 38.8433Z" fill="white"/>
</svg>
