<svg width="83" height="69" viewBox="0 0 83 69" fill="none" xmlns="http://www.w3.org/2000/svg">
<path fill-rule="evenodd" clip-rule="evenodd" d="M2.25554 0H80.7264C81.3241 0.00178271 81.8967 0.240166 82.3193 0.663086C82.7419 1.08601 82.9802 1.6591 82.9819 2.25719V54.2943C82.9802 54.8924 82.7419 55.4655 82.3193 55.8884C81.8967 56.3113 81.3241 56.5497 80.7264 56.5515H2.25554C1.95845 56.5506 1.66445 56.4912 1.39031 56.3766C1.11618 56.262 0.867285 56.0945 0.65784 55.8836C0.448394 55.6728 0.2825 55.4227 0.169629 55.1477C0.0567586 54.8726 -0.000878043 54.5781 1.01102e-05 54.2808V2.24368C0.00533887 1.64793 0.245111 1.07829 0.667338 0.658286C1.08956 0.238278 1.66021 0.00175456 2.25554 0ZM33.3197 42.2379H33.4008L35.5415 41.0012C35.5565 40.9858 35.5681 40.9674 35.5753 40.9471C35.5789 40.9397 35.5807 40.9317 35.5807 40.9235C35.5807 40.9153 35.5789 40.9072 35.5753 40.8998L33.2319 36.845C33.2115 36.8119 33.1977 36.7752 33.1914 36.7368C33.1806 36.6884 33.1795 36.6383 33.1883 36.5895C33.1971 36.5407 33.2156 36.4941 33.2426 36.4525C33.2697 36.411 33.3048 36.3752 33.3459 36.3475C33.387 36.3197 33.4332 36.3004 33.4818 36.2908L36.9259 35.5744C37.1829 35.5272 37.4269 35.4259 37.6417 35.2771C37.7114 35.2282 37.7653 35.1601 37.797 35.0811C37.8063 35.0598 37.8111 35.0368 37.8111 35.0135C37.8111 34.9903 37.8063 34.9673 37.797 34.9459C37.7189 34.8256 37.6151 34.7241 37.4931 34.6486L25.8171 26.5862L26.9043 40.7173C26.9073 40.8605 26.9419 41.0013 27.0056 41.1296C27.0174 41.1515 27.0338 41.1707 27.0536 41.1859C27.0733 41.201 27.0961 41.2118 27.1204 41.2174C27.2037 41.2278 27.2881 41.2137 27.3635 41.1769C27.6006 41.0693 27.8106 40.91 27.978 40.7106L30.3214 38.0749C30.3479 38.0426 30.3799 38.0151 30.4159 37.9938C30.5039 37.9447 30.6076 37.932 30.7049 37.9585C30.8021 37.9851 30.885 38.0487 30.9359 38.1358L33.2995 42.1906C33.3126 42.1952 33.3269 42.1952 33.34 42.1906L33.3197 42.2379ZM12.5405 15.8815C12.4183 15.8808 12.2974 15.9059 12.1855 15.9551C12.0737 16.0043 11.9734 16.0765 11.8913 16.167C11.8091 16.2575 11.7469 16.3643 11.7087 16.4804C11.6704 16.5966 11.657 16.7194 11.6693 16.8411V18.659C11.6686 18.8316 11.719 19.0005 11.8143 19.1444C11.9095 19.2882 12.0453 19.4006 12.2044 19.4672C12.3635 19.5337 12.5388 19.5516 12.708 19.5184C12.8772 19.4852 13.0328 19.4025 13.155 19.2808C13.239 19.2006 13.3056 19.1041 13.3509 18.9971C13.3962 18.8902 13.4192 18.7751 13.4184 18.659V17.571H14.2895C14.4039 17.571 14.5172 17.5484 14.6229 17.5046C14.7286 17.4608 14.8246 17.3966 14.9055 17.3156C14.9864 17.2347 15.0506 17.1386 15.0944 17.0328C15.1382 16.927 15.1607 16.8137 15.1607 16.6992C15.1607 16.5847 15.1382 16.4713 15.0944 16.3656C15.0506 16.2598 14.9864 16.1637 14.9055 16.0827C14.8246 16.0018 14.7286 15.9376 14.6229 15.8937C14.5172 15.8499 14.4039 15.8274 14.2895 15.8274L12.5405 15.8815ZM13.4116 22.1529C13.4124 21.9804 13.362 21.8114 13.2667 21.6676C13.1715 21.5237 13.0357 21.4114 12.8766 21.3448C12.7175 21.2782 12.5422 21.2604 12.373 21.2936C12.2038 21.3268 12.0482 21.4095 11.926 21.5312C11.842 21.6114 11.7753 21.7079 11.7301 21.8148C11.6848 21.9217 11.6618 22.0368 11.6626 22.1529V23.9033C11.6618 24.0758 11.7123 24.2448 11.8075 24.3886C11.9028 24.5325 12.0385 24.6448 12.1976 24.7114C12.3567 24.778 12.532 24.7958 12.7012 24.7626C12.8705 24.7295 13.026 24.6468 13.1483 24.525C13.2322 24.4448 13.2989 24.3483 13.3442 24.2414C13.3895 24.1345 13.4124 24.0194 13.4116 23.9033V22.1259V22.1529ZM13.4116 27.3972C13.4106 27.2254 13.3592 27.0578 13.264 26.9149C13.1687 26.7721 13.0337 26.6603 12.8756 26.5934C12.7175 26.5265 12.5433 26.5075 12.3745 26.5387C12.2058 26.5698 12.0498 26.6498 11.926 26.7687C11.8421 26.8504 11.7756 26.9481 11.7304 27.0561C11.6851 27.1641 11.6621 27.2801 11.6626 27.3972V29.1408C11.6637 29.3125 11.715 29.4802 11.8103 29.623C11.9055 29.7659 12.0406 29.8777 12.1986 29.9445C12.3567 30.0114 12.5309 30.0305 12.6997 29.9993C12.8685 29.9682 13.0244 29.8882 13.1483 29.7693C13.2321 29.6876 13.2986 29.5898 13.3439 29.4818C13.3891 29.3739 13.4122 29.2579 13.4116 29.1408V27.3702V27.3972ZM13.4116 32.6347C13.4093 32.4635 13.357 32.2968 13.2612 32.1549C13.1654 32.0131 13.0303 31.9023 12.8725 31.8363C12.7147 31.7703 12.541 31.7518 12.3729 31.7832C12.2047 31.8146 12.0494 31.8944 11.926 32.0129C11.8426 32.0936 11.7764 32.1902 11.7311 32.297C11.6859 32.4039 11.6626 32.5187 11.6626 32.6347V34.385C11.6519 34.5064 11.6666 34.6287 11.7057 34.7441C11.7448 34.8595 11.8075 34.9655 11.8897 35.0554C11.972 35.1453 12.072 35.217 12.1834 35.2661C12.2949 35.3152 12.4153 35.3406 12.5371 35.3406C12.6589 35.3406 12.7793 35.3152 12.8908 35.2661C13.0022 35.217 13.1023 35.1453 13.1845 35.0554C13.2668 34.9655 13.3294 34.8595 13.3685 34.7441C13.4076 34.6287 13.4223 34.5064 13.4116 34.385V32.6077V32.6347ZM13.4116 37.8789C13.4124 37.7064 13.362 37.5375 13.2667 37.3936C13.1715 37.2497 13.0357 37.1374 12.8766 37.0708C12.7175 37.0042 12.5422 36.9864 12.373 37.0196C12.2038 37.0528 12.0482 37.1355 11.926 37.2572C11.842 37.3374 11.7753 37.4339 11.7301 37.5408C11.6848 37.6478 11.6618 37.7628 11.6626 37.8789V39.4739C11.658 39.592 11.6774 39.7099 11.7195 39.8204C11.7615 39.931 11.8255 40.0318 11.9075 40.117C11.9895 40.2022 12.0878 40.27 12.1965 40.3162C12.3053 40.3625 12.4223 40.3863 12.5405 40.3862H12.6553C12.8091 40.3855 12.96 40.3444 13.0929 40.267C13.2258 40.1896 13.336 40.0787 13.4126 39.9452C13.4892 39.8118 13.5294 39.6605 13.5293 39.5067C13.5291 39.3528 13.4885 39.2016 13.4116 39.0684V37.8452V37.8789ZM16.1466 38.6358C15.9742 38.6351 15.8054 38.6856 15.6616 38.7809C15.5179 38.8762 15.4056 39.0121 15.3391 39.1713C15.2726 39.3305 15.2548 39.5059 15.2879 39.6753C15.3211 39.8446 15.4037 40.0003 15.5254 40.1226C15.6055 40.2066 15.7019 40.2733 15.8088 40.3187C15.9156 40.364 16.0306 40.387 16.1466 40.3862H17.8957C18.0667 40.3838 18.2334 40.3315 18.3751 40.2357C18.5168 40.1398 18.6275 40.0046 18.6935 39.8467C18.7595 39.6887 18.7779 39.515 18.7466 39.3467C18.7152 39.1784 18.6354 39.0229 18.517 38.8994C18.4368 38.8154 18.3404 38.7487 18.2336 38.7034C18.1267 38.658 18.0117 38.6351 17.8957 38.6358H16.1466ZM21.387 38.6358C21.2154 38.6369 21.0479 38.6883 20.9051 38.7836C20.7624 38.879 20.6507 39.0141 20.5839 39.1723C20.517 39.3305 20.498 39.5048 20.5291 39.6737C20.5603 39.8426 20.6402 39.9987 20.759 40.1226C20.8406 40.2065 20.9383 40.2731 21.0462 40.3184C21.1541 40.3637 21.27 40.3867 21.387 40.3862H23.1293C23.2034 40.3936 23.2781 40.3936 23.3522 40.3862L23.2239 38.6696H21.4073L21.387 38.6358ZM34.4408 27.1742C34.4431 27.3453 34.4954 27.5121 34.5912 27.6539C34.687 27.7958 34.8221 27.9065 34.9799 27.9726C35.1377 28.0386 35.3113 28.0571 35.4795 28.0257C35.6477 27.9943 35.803 27.9144 35.9264 27.7959C36.0104 27.7157 36.077 27.6192 36.1223 27.5123C36.1676 27.4054 36.1906 27.2903 36.1898 27.1742V25.4238C36.1906 25.2513 36.1401 25.0823 36.0449 24.9385C35.9496 24.7946 35.8139 24.6823 35.6548 24.6157C35.4957 24.5491 35.3204 24.5313 35.1512 24.5645C34.9819 24.5977 34.8263 24.6804 34.7041 24.8021C34.6202 24.8823 34.5535 24.9788 34.5082 25.0857C34.4629 25.1926 34.44 25.3077 34.4408 25.4238V27.1742ZM34.4408 21.9299C34.4301 22.0513 34.4448 22.1736 34.4839 22.289C34.523 22.4044 34.5856 22.5104 34.6679 22.6003C34.7501 22.6901 34.8502 22.7619 34.9616 22.811C35.0731 22.8601 35.1935 22.8854 35.3153 22.8854C35.437 22.8854 35.5575 22.8601 35.6689 22.811C35.7804 22.7619 35.8804 22.6901 35.9627 22.6003C36.0449 22.5104 36.1076 22.4044 36.1467 22.289C36.1858 22.1736 36.2005 22.0513 36.1898 21.9299V20.1796C36.1874 20.0084 36.1352 19.8417 36.0394 19.6998C35.9436 19.558 35.8085 19.4472 35.6507 19.3812C35.4929 19.3151 35.3192 19.2967 35.151 19.3281C34.9829 19.3594 34.8275 19.4393 34.7041 19.5578C34.6208 19.6385 34.5546 19.7351 34.5093 19.8419C34.4641 19.9487 34.4407 20.0636 34.4408 20.1796V21.9299ZM35.2579 17.571C35.4289 17.5704 35.5961 17.5195 35.7384 17.4245C35.8807 17.3295 35.992 17.1947 36.0582 17.0368C36.1245 16.879 36.1428 16.7051 36.111 16.5369C36.0791 16.3687 35.9985 16.2136 35.8792 16.091C35.799 16.0069 35.7026 15.9402 35.5957 15.8949C35.4889 15.8496 35.3739 15.8266 35.2579 15.8274H33.5088C33.3377 15.8279 33.1706 15.8789 33.0283 15.9739C32.886 16.0689 32.7747 16.2037 32.7085 16.3615C32.6422 16.5194 32.6239 16.6932 32.6557 16.8614C32.6876 17.0296 32.7682 17.1848 32.8875 17.3074C32.9677 17.3914 33.0641 17.4581 33.171 17.5035C33.2778 17.5488 33.3928 17.5718 33.5088 17.571H35.2579ZM30.0175 17.571C30.1319 17.571 30.2452 17.5484 30.3509 17.5046C30.4565 17.4608 30.5526 17.3966 30.6335 17.3156C30.7144 17.2347 30.7785 17.1386 30.8223 17.0328C30.8661 16.927 30.8886 16.8137 30.8886 16.6992C30.8886 16.5847 30.8661 16.4713 30.8223 16.3656C30.7785 16.2598 30.7144 16.1637 30.6335 16.0827C30.5526 16.0018 30.4565 15.9376 30.3509 15.8937C30.2452 15.8499 30.1319 15.8274 30.0175 15.8274H28.2752C28.1608 15.8274 28.0475 15.8499 27.9418 15.8937C27.8361 15.9376 27.7401 16.0018 27.6592 16.0827C27.5783 16.1637 27.5141 16.2598 27.4703 16.3656C27.4266 16.4713 27.404 16.5847 27.404 16.6992C27.404 16.8137 27.4266 16.927 27.4703 17.0328C27.5141 17.1386 27.5783 17.2347 27.6592 17.3156C27.7401 17.3966 27.8361 17.4608 27.9418 17.5046C28.0475 17.5484 28.1608 17.571 28.2752 17.571H30.0175ZM24.7838 17.571C25.0149 17.571 25.2365 17.4791 25.3998 17.3156C25.5632 17.1521 25.655 16.9304 25.655 16.6992C25.655 16.468 25.5632 16.2462 25.3998 16.0827C25.2365 15.9192 25.0149 15.8274 24.7838 15.8274H23.0348C22.9204 15.8274 22.8071 15.8499 22.7014 15.8937C22.5957 15.9376 22.4997 16.0018 22.4188 16.0827C22.3379 16.1637 22.2737 16.2598 22.23 16.3656C22.1862 16.4713 22.1636 16.5847 22.1636 16.6992C22.1636 16.8137 22.1862 16.927 22.23 17.0328C22.2737 17.1386 22.3379 17.2347 22.4188 17.3156C22.4997 17.3966 22.5957 17.4608 22.7014 17.5046C22.8071 17.5484 22.9204 17.571 23.0348 17.571H24.7838ZM19.5434 17.571C19.7145 17.5704 19.8816 17.5195 20.024 17.4245C20.1663 17.3295 20.2775 17.1947 20.3438 17.0368C20.41 16.879 20.4284 16.7051 20.3966 16.5369C20.3647 16.3687 20.2841 16.2136 20.1647 16.091C20.0846 16.0069 19.9882 15.9402 19.8813 15.8949C19.7745 15.8496 19.6595 15.8266 19.5434 15.8274H17.7944C17.6233 15.8279 17.4562 15.8789 17.3139 15.9739C17.1715 16.0689 17.0603 16.2037 16.9941 16.3615C16.9278 16.5194 16.9094 16.6932 16.9413 16.8614C16.9731 17.0296 17.0538 17.1848 17.1731 17.3074C17.2532 17.3914 17.3497 17.4581 17.4565 17.5035C17.5634 17.5488 17.6783 17.5718 17.7944 17.571H19.5434ZM56.0506 49.8678C55.9831 36.6625 55.0647 20.6797 56.0506 7.87314H2.95786V47.8741C2.95786 48.4118 3.17131 48.9275 3.55124 49.3077C3.93118 49.6879 4.44648 49.9015 4.98379 49.9015L56.0506 49.8678ZM61.6287 14.638C61.4858 14.6545 61.3411 14.6406 61.204 14.5972C61.0669 14.5538 60.9405 14.4819 60.8332 14.3862C60.7258 14.2904 60.6399 14.1731 60.581 14.0417C60.5222 13.9104 60.4918 13.7682 60.4918 13.6243C60.4918 13.4804 60.5222 13.3381 60.581 13.2068C60.6399 13.0755 60.7258 12.9581 60.8332 12.8624C60.9405 12.7666 61.0669 12.6947 61.204 12.6513C61.3411 12.6079 61.4858 12.594 61.6287 12.6105H75.378C75.5208 12.594 75.6655 12.6079 75.8026 12.6513C75.9397 12.6947 76.0661 12.7666 76.1735 12.8624C76.2808 12.9581 76.3668 13.0755 76.4256 13.2068C76.4844 13.3381 76.5148 13.4804 76.5148 13.6243C76.5148 13.7682 76.4844 13.9104 76.4256 14.0417C76.3668 14.1731 76.2808 14.2904 76.1735 14.3862C76.0661 14.4819 75.9397 14.5538 75.8026 14.5972C75.6655 14.6406 75.5208 14.6545 75.378 14.638H61.6287ZM62.9455 40.4403H74.0611C74.4285 40.4411 74.7921 40.5147 75.131 40.6566C75.47 40.7985 75.7775 41.0061 76.0361 41.2673C76.2946 41.5285 76.499 41.8383 76.6376 42.1788C76.7761 42.5194 76.8461 42.8839 76.8434 43.2516C76.8416 43.9901 76.5481 44.698 76.0269 45.2209C75.5057 45.7437 74.7991 46.0391 74.0611 46.0427H62.9455C62.2076 46.0391 61.5009 45.7437 60.9797 45.2209C60.4585 44.698 60.165 43.9901 60.1633 43.2516C60.165 42.5137 60.4587 41.8065 60.9801 41.2848C61.5015 40.763 62.2082 40.4691 62.9455 40.4673V40.4403ZM61.5949 35.7704C61.3464 35.7417 61.1171 35.6225 60.9507 35.4356C60.7843 35.2487 60.6924 35.0071 60.6924 34.7567C60.6924 34.5064 60.7843 34.2648 60.9507 34.0779C61.1171 33.8909 61.3464 33.7718 61.5949 33.743H75.4252C75.6737 33.7718 75.903 33.8909 76.0694 34.0779C76.2358 34.2648 76.3278 34.5064 76.3278 34.7567C76.3278 35.0071 76.2358 35.2487 76.0694 35.4356C75.903 35.6225 75.6737 35.7417 75.4252 35.7704H61.5949ZM61.8448 28.7285C61.7019 28.7451 61.5572 28.7312 61.4201 28.6878C61.283 28.6444 61.1566 28.5725 61.0493 28.4767C60.9419 28.381 60.856 28.2636 60.7971 28.1323C60.7383 28.001 60.7079 27.8587 60.7079 27.7148C60.7079 27.5709 60.7383 27.4286 60.7971 27.2973C60.856 27.166 60.9419 27.0486 61.0493 26.9529C61.1566 26.8572 61.283 26.7853 61.4201 26.7419C61.5572 26.6985 61.7019 26.6846 61.8448 26.7011H75.1754C75.4239 26.7299 75.6531 26.849 75.8195 27.036C75.986 27.2229 76.0779 27.4645 76.0779 27.7148C76.0779 27.9652 75.986 28.2068 75.8195 28.3937C75.6531 28.5806 75.4239 28.6998 75.1754 28.7285H61.8448ZM61.5814 21.6866C61.4386 21.7032 61.2938 21.6893 61.1567 21.6459C61.0196 21.6025 60.8932 21.5306 60.7859 21.4348C60.6785 21.3391 60.5926 21.2217 60.5338 21.0904C60.4749 20.9591 60.4445 20.8168 60.4445 20.6729C60.4445 20.529 60.4749 20.3867 60.5338 20.2554C60.5926 20.1241 60.6785 20.0067 60.7859 19.911C60.8932 19.8153 61.0196 19.7434 61.1567 19.7C61.2938 19.6566 61.4386 19.6427 61.5814 19.6592H75.432C75.6805 19.688 75.9098 19.8071 76.0762 19.9941C76.2426 20.181 76.3345 20.4226 76.3345 20.6729C76.3345 20.9233 76.2426 21.1649 76.0762 21.3518C75.9098 21.5387 75.6805 21.6579 75.432 21.6866H61.5814ZM79.2137 49.4825V8.35972H57.7997V49.8678H78.0589C78.4798 49.8697 78.8899 49.7345 79.2272 49.4825H79.2137ZM31.2668 59.6196H51.7287C51.7827 63.1609 53.2413 66.3372 57.1919 68.8309H25.7968C28.9775 66.5264 31.2736 63.7353 31.26 59.6196H31.2668ZM76.8501 3.32497C77.1173 3.32497 77.3784 3.40424 77.6005 3.55276C77.8226 3.70127 77.9957 3.91237 78.0979 4.15934C78.2002 4.40632 78.2269 4.67808 78.1748 4.94027C78.1227 5.20245 77.994 5.44329 77.8052 5.63231C77.6163 5.82134 77.3756 5.95007 77.1136 6.00222C76.8516 6.05437 76.5801 6.02761 76.3333 5.92531C76.0865 5.82301 75.8755 5.64977 75.7271 5.4275C75.5787 5.20522 75.4995 4.9439 75.4995 4.67658C75.4995 4.31811 75.6418 3.97432 75.8951 3.72085C76.1484 3.46737 76.4919 3.32497 76.8501 3.32497ZM67.774 3.32497C68.0411 3.32497 68.3022 3.40424 68.5243 3.55276C68.7465 3.70127 68.9196 3.91237 69.0218 4.15934C69.124 4.40632 69.1508 4.67808 69.0987 4.94027C69.0465 5.20245 68.9179 5.44329 68.729 5.63231C68.5401 5.82134 68.2995 5.95007 68.0375 6.00222C67.7755 6.05437 67.5039 6.02761 67.2571 5.92531C67.0103 5.82301 66.7994 5.64977 66.651 5.4275C66.5026 5.20522 66.4234 4.9439 66.4234 4.67658C66.4234 4.31811 66.5657 3.97432 66.819 3.72085C67.0722 3.46737 67.4158 3.32497 67.774 3.32497ZM72.3121 3.32497C72.5792 3.32497 72.8403 3.40424 73.0624 3.55276C73.2845 3.70127 73.4576 3.91237 73.5599 4.15934C73.6621 4.40632 73.6888 4.67808 73.6367 4.94027C73.5846 5.20245 73.456 5.44329 73.2671 5.63231C73.0782 5.82134 72.8375 5.95007 72.5756 6.00222C72.3136 6.05437 72.042 6.02761 71.7952 5.92531C71.5484 5.82301 71.3375 5.64977 71.1891 5.4275C71.0407 5.20522 70.9614 4.9439 70.9614 4.67658C70.9614 4.31811 71.1037 3.97432 71.357 3.72085C71.6103 3.46737 71.9539 3.32497 72.3121 3.32497Z" fill="white"/>
</svg>
