<svg width="82" height="69" viewBox="0 0 82 69" fill="none" xmlns="http://www.w3.org/2000/svg">
<path fill-rule="evenodd" clip-rule="evenodd" d="M2.22884 0H79.7712C80.999 0 82 1.00318 82 2.23374V53.7168C82 54.9473 80.999 55.9505 79.7712 55.9505H2.22884C1.00098 55.9505 0 54.9473 0 53.7168V2.23374C0 1.00318 1.00098 0 2.22884 0ZM61.113 18.7059L68.1198 18.726C68.1131 20.5986 67.3591 22.3909 66.0311 23.7084C65.7175 24.0161 65.3704 24.2969 65.0034 24.5444L61.113 18.7059ZM20.7736 13.1884H22.909C23.0225 13.1884 23.1159 13.2821 23.1159 13.3958V21.0199C23.1159 21.1336 23.0225 21.2272 22.909 21.2272H20.7736C20.6602 21.2272 20.5667 21.1336 20.5667 21.0199V13.3958C20.5667 13.2821 20.6602 13.1884 20.7736 13.1884ZM11.1108 10.6136H13.2463C13.3597 10.6136 13.4531 10.7072 13.4531 10.8209V21.0266C13.4531 21.1403 13.3597 21.2339 13.2463 21.2339H11.1108C10.9974 21.2339 10.904 21.1403 10.904 21.0266V10.8209C10.904 10.7072 10.9974 10.6136 11.1108 10.6136ZM15.9422 9.16235H18.0776C18.1911 9.16235 18.2845 9.25598 18.2845 9.36967V21.0266C18.2845 21.1403 18.1911 21.2339 18.0776 21.2339H15.9422C15.8288 21.2339 15.7354 21.1403 15.7354 21.0266V9.36967C15.7354 9.25598 15.8288 9.16235 15.9422 9.16235ZM11.2376 41.0433C10.7705 41.0433 10.3968 40.6621 10.3968 40.1873C10.3968 39.7191 10.7772 39.3312 11.2376 39.3312H70.9025C71.3696 39.3312 71.7433 39.7124 71.7433 40.1873C71.7433 40.6554 71.363 41.0433 70.9025 41.0433H11.2376ZM11.0975 34.8236C10.6304 34.8236 10.2567 34.4424 10.2567 33.9676C10.2567 33.4994 10.637 33.1115 11.0975 33.1115H35.0208C35.488 33.1115 35.8617 33.4927 35.8617 33.9676C35.8617 34.4357 35.4813 34.8236 35.0208 34.8236H11.0975ZM38.304 34.8236C37.8369 34.8236 37.4632 34.4424 37.4632 33.9676C37.4632 33.4994 37.8436 33.1115 38.304 33.1115H70.9025C71.3696 33.1115 71.7433 33.4927 71.7433 33.9676C71.7433 34.4357 71.363 34.8236 70.9025 34.8236H38.304ZM11.0975 29.266C10.6304 29.266 10.2567 28.8848 10.2567 28.41C10.2567 27.9418 10.637 27.5539 11.0975 27.5539H47.2394C47.7065 27.5539 48.0802 27.9351 48.0802 28.41C48.0802 28.8781 47.6999 29.266 47.2394 29.266H11.0975ZM60.3923 17.3081L60.0186 9.79769C60.0119 9.65056 60.1253 9.52349 60.2721 9.5168C60.3122 9.5168 60.3656 9.51012 60.4256 9.51012C60.4723 9.51012 60.5257 9.51012 60.5791 9.51012C62.6344 9.49005 64.5296 10.2658 65.9377 11.57C67.3524 12.8741 68.28 14.6932 68.4268 16.7531C68.4401 16.9002 68.3267 17.0273 68.1799 17.0406L60.6859 17.5757C60.5391 17.589 60.4123 17.4753 60.3989 17.3282C60.3923 17.3215 60.3923 17.3148 60.3923 17.3081ZM60.5658 10.0451L60.9128 17.0206L67.8662 16.5257C67.6727 14.7199 66.8252 13.1216 65.5706 11.9712C64.256 10.7607 62.4943 10.0318 60.5791 10.0518L60.5658 10.0451ZM59.5514 18.3782L63.3084 24.8989C62.1673 25.5609 60.8727 25.9087 59.5514 25.9087C55.4007 25.9087 52.0374 22.538 52.0374 18.3782C52.0374 14.6397 54.7734 11.4697 58.4637 10.9279L59.5514 18.3782ZM30.8901 59.0336H51.1099C51.1632 62.538 52.6047 65.6813 56.5085 68.1492H25.4915C28.6146 65.882 30.9035 63.1266 30.8901 59.0336ZM41 48.4267C42.5815 48.4267 43.8628 49.7108 43.8628 51.2958C43.8628 52.8808 42.5815 54.1649 41 54.1649C39.4185 54.1649 38.1372 52.8808 38.1372 51.2958C38.1372 49.7108 39.4185 48.4267 41 48.4267ZM6.70654 4.20666H75.3001C76.3879 4.20666 77.2687 5.09614 77.2687 6.17957V44.6481C77.2687 45.7315 76.3812 46.621 75.3001 46.621H6.70654C5.62549 46.621 4.73796 45.7315 4.73796 44.6481V6.17957C4.73128 5.09614 5.61882 4.20666 6.70654 4.20666Z" fill="white"/>
</svg>
