<svg width="100" height="58" viewBox="0 0 100 58" fill="none" xmlns="http://www.w3.org/2000/svg">
<path fill-rule="evenodd" clip-rule="evenodd" d="M2.42439 53.8465H11.6246C10.9449 53.6552 10.4351 52.9448 10.4351 52.116V1.78517C10.4432 0.810612 11.1552 0 12.0291 0H78.526C79.3918 0 80.112 0.810612 80.112 1.78517V16.9591L77.6198 17.8152V9.18086H13.1539V51.6059H77.6198V40.6581L78.4451 40.5033C79.0034 40.394 79.5294 40.1936 80.0068 39.9113L80.1201 39.8839V52.0978C80.1201 52.9266 79.6103 53.6279 78.9306 53.8283H88.5516C89.5711 53.8283 90.4045 54.7664 90.4045 55.914C90.4045 57.0707 89.5711 57.9997 88.5516 57.9997H2.42439C1.40485 58.018 0.571411 57.0798 0.571411 55.9231C0.571411 54.7846 1.40485 53.8465 2.42439 53.8465ZM64.4871 31.9691C65.3367 32.9983 66.2834 35.1022 66.0973 36.9238L77.5874 34.7288C77.1586 31.0674 76.2037 27.7065 74.3589 24.8557C70.6367 27.6974 68.5005 29.4644 64.4871 31.9691ZM45.9006 42.5161C51.2735 40.7219 57.0185 47.143 61.5903 42.1609C62.804 40.8403 63.6294 38.709 63.5242 36.7143C63.4756 35.9128 63.2895 35.1387 62.9092 34.4556C62.7393 34.155 62.537 33.8727 62.3023 33.5903C59.3732 30.2295 54.8338 31.5592 51.848 34.1368C49.1049 36.514 47.1387 40.0479 45.9006 42.5161ZM75.8882 24.5278C77.6198 27.6155 78.7121 30.8215 79.1086 34.1641L97.776 22.77C99.3215 21.9867 100.309 21.1852 99.9122 18.9082C99.6047 18.1614 99.1839 17.6604 98.6499 17.4054C98.1239 17.1504 97.4928 17.1504 96.7484 17.4054L75.8882 24.5278ZM18.6804 18.8353H72.2874C72.603 18.8353 72.8862 18.9629 73.1047 19.1814C72.4654 19.3636 71.8504 19.6733 71.284 20.1469L71.1708 20.2471C68.6057 22.2053 70.3778 20.8391 69.7062 21.3583L69.3016 21.677H19.9427V36.3682H43.1576C42.5669 37.361 42.049 38.3265 41.604 39.1917H18.6804C17.9846 39.1917 17.4262 38.5542 17.4262 37.78V20.2471C17.4262 19.4729 17.9846 18.8353 18.6804 18.8353ZM65.2882 15.5474C64.5923 15.5474 64.034 14.9189 64.034 14.1356C64.034 13.3523 64.6004 12.7239 65.2882 12.7239H70.3454C71.0413 12.7239 71.5996 13.3523 71.5996 14.1356C71.5996 14.9189 71.0413 15.5474 70.3454 15.5474H65.2882ZM52.7947 15.5474C52.0988 15.5474 51.5405 14.9189 51.5405 14.1356C51.5405 13.3523 52.1069 12.7239 52.7947 12.7239H57.852C58.5478 12.7239 59.1062 13.3523 59.1062 14.1356C59.1062 14.9189 58.5397 15.5474 57.852 15.5474H52.7947ZM40.2932 15.5474C39.5973 15.5474 39.039 14.9189 39.039 14.1356C39.039 13.3523 39.5973 12.7239 40.2932 12.7239H45.3504C46.0463 12.7239 46.6046 13.3523 46.6046 14.1356C46.6046 14.9189 46.0463 15.5474 45.3504 15.5474H40.2932ZM20.8814 4.28987C21.5772 4.28987 22.1437 4.92743 22.1437 5.71072C22.1437 6.494 21.5772 7.13156 20.8814 7.13156C20.1855 7.13156 19.6191 6.494 19.6191 5.71072C19.6191 4.92743 20.1936 4.28987 20.8814 4.28987ZM25.1537 4.28987C25.8496 4.28987 26.4079 4.92743 26.4079 5.71072C26.4079 6.494 25.8415 7.13156 25.1537 7.13156C24.466 7.13156 23.8914 6.494 23.8914 5.71072C23.8914 4.92743 24.4579 4.28987 25.1537 4.28987ZM16.6171 4.28987C17.313 4.28987 17.8794 4.92743 17.8794 5.71072C17.8794 6.494 17.313 7.13156 16.6171 7.13156C15.9212 7.13156 15.3548 6.494 15.3548 5.71072C15.3548 4.92743 15.9212 4.28987 16.6171 4.28987ZM42.8744 54.6298H48.0935C48.5871 54.6298 48.9835 55.0852 48.9835 55.6317C48.9835 56.1872 48.579 56.6335 48.0935 56.6335H42.8744C42.3808 56.6335 41.9843 56.1781 41.9843 55.6317C41.9843 55.067 42.3808 54.6298 42.8744 54.6298Z" fill="white"/>
</svg>
