<svg width="1462" height="895" viewBox="0 0 1462 895" fill="none" xmlns="http://www.w3.org/2000/svg">
<rect width="1462" height="895.001" fill="white"/>
<rect width="1462" height="895.001" fill="#2F2F2F"/>
<g filter="url(#filter0_d_512_8)">
<path d="M370.564 307.379C369.999 307.732 369.399 307.944 368.764 308.014C368.129 308.085 367.458 308.191 366.752 308.332C366.117 308.403 365.517 308.544 364.952 308.756C364.387 308.968 363.964 309.356 363.681 309.921C362.975 309.215 362.199 308.615 361.352 308.12C360.504 307.626 359.657 307.097 358.81 306.532C358.104 306.744 357.398 307.026 356.692 307.379C355.986 307.732 355.28 307.909 354.574 307.909C354.08 307.909 353.586 307.732 353.092 307.379C352.527 307.803 351.857 308.156 351.08 308.438C350.374 308.65 349.597 308.862 348.75 309.073C347.974 309.285 347.233 309.568 346.527 309.921C345.891 310.274 345.432 310.803 345.15 311.509C345.009 311.156 344.656 311.05 344.091 311.191C343.597 311.332 343.314 311.156 343.244 310.662C340.985 311.438 338.691 312.109 336.361 312.674C334.031 313.239 331.702 313.839 329.372 314.474C327.042 315.109 324.748 315.815 322.489 316.592C320.23 317.368 318.041 318.321 315.924 319.451C315.853 319.521 315.818 319.627 315.818 319.769C315.818 320.475 315.924 321.145 316.135 321.781C316.347 322.416 316.524 323.016 316.665 323.581C315.394 327.887 314.547 332.264 314.123 336.711C313.7 341.159 313.135 345.536 312.429 349.842V350.266C312.429 350.619 312.57 350.901 312.853 351.113C313.135 351.254 313.276 351.536 313.276 351.96L313.17 352.172C312.817 352.384 312.57 352.701 312.429 353.125C312.288 353.478 312.217 353.866 312.217 354.29C312.217 354.572 312.288 354.996 312.429 355.56C311.229 359.584 310.417 363.679 309.994 367.844C309.641 372.009 309.182 376.174 308.617 380.339L307.664 387.328C307.523 387.752 307.382 388.175 307.24 388.599C307.17 388.952 307.134 389.34 307.134 389.764C307.134 392.023 307.276 394.246 307.558 396.435C307.911 398.553 308.017 400.741 307.876 403C308.511 403.989 308.829 404.942 308.829 405.859C308.829 406.212 308.793 406.565 308.723 406.918C308.723 407.271 308.688 407.624 308.617 407.977C309.535 408.895 310.594 409.53 311.794 409.883C313.064 410.307 314.194 410.942 315.182 411.789V412.213C315.182 412.919 315.076 413.59 314.865 414.225C314.653 414.931 314.476 415.637 314.335 416.343C314.194 416.908 314.017 417.719 313.806 418.778C313.665 419.837 313.453 420.543 313.17 420.896C312.817 421.39 312.288 421.814 311.582 422.167C310.947 422.59 310.311 422.802 309.676 422.802C309.464 422.802 309.146 422.696 308.723 422.485C308.37 422.273 308.087 422.096 307.876 421.955C307.523 421.955 307.064 422.132 306.499 422.485C305.934 422.838 305.37 423.014 304.805 423.014C304.522 423.014 304.275 422.979 304.064 422.908C303.852 422.908 303.605 422.838 303.322 422.696C303.04 421.99 302.616 421.355 302.052 420.79C301.557 420.296 300.957 419.802 300.251 419.308C300.322 418.319 300.146 417.578 299.722 417.084C299.298 416.59 298.875 415.954 298.451 415.178C298.31 414.19 298.169 413.06 298.028 411.789C297.957 410.519 297.428 409.601 296.439 409.036C296.792 408.542 296.969 407.871 296.969 407.024C296.969 406.671 296.898 406.283 296.757 405.859C296.686 405.436 296.475 405.118 296.122 404.906V404.695C296.051 404.342 296.157 404.095 296.439 403.953C296.792 403.742 296.969 403.459 296.969 403.106V402.683C296.475 400.424 296.228 398.059 296.228 395.588C296.228 393.258 296.298 390.964 296.439 388.705C296.58 386.375 296.58 384.045 296.439 381.716C296.863 381.363 297.181 380.798 297.392 380.022C297.675 379.245 297.886 378.398 298.028 377.48C298.169 376.562 298.239 375.68 298.239 374.833C298.31 373.915 298.381 373.174 298.451 372.609C298.804 368.585 299.369 364.632 300.146 360.749C300.922 356.796 301.381 352.772 301.522 348.677C301.875 348.113 302.087 347.371 302.158 346.454C302.228 345.536 302.263 344.583 302.263 343.594C302.263 342.536 302.334 341.512 302.475 340.524C302.616 339.535 302.899 338.688 303.322 337.982C303.322 336.005 303.499 334.029 303.852 332.052C304.205 330.005 304.381 327.958 304.381 325.91C304.381 324.922 304.275 323.898 304.064 322.839C303.358 322.557 302.722 322.416 302.158 322.416C301.381 322.416 300.569 322.592 299.722 322.945C298.945 323.228 298.381 323.687 298.028 324.322C296.475 324.393 294.957 324.64 293.474 325.063C291.992 325.487 290.509 325.699 289.027 325.699H287.968C287.685 325.699 287.368 325.663 287.015 325.593C286.521 325.804 285.991 325.981 285.426 326.122C284.932 326.263 284.72 326.687 284.791 327.393C282.603 327.605 280.449 328.063 278.332 328.769C276.284 329.475 274.237 330.252 272.19 331.099C270.143 331.876 268.095 332.617 266.048 333.323C263.93 334.029 261.777 334.488 259.589 334.699C258.812 335.052 258.318 335.794 258.106 336.923C256.553 336.782 255.247 336.394 254.188 335.758C253.129 335.123 251.894 334.523 250.482 333.958C250.058 332.476 249.846 331.064 249.846 329.722C249.846 327.958 250.199 326.263 250.905 324.64C251.611 323.016 252.741 321.816 254.294 321.039C254.647 321.11 254.965 321.18 255.247 321.251C255.529 321.251 255.847 321.251 256.2 321.251C257.33 321.251 258.459 321.039 259.589 320.616C260.718 320.192 261.883 319.98 263.083 319.98C263.436 319.98 263.824 320.086 264.248 320.298C264.742 320.016 265.377 319.804 266.154 319.663C266.86 319.451 267.531 319.274 268.166 319.133C268.872 318.921 269.507 318.639 270.072 318.286C270.637 317.933 270.99 317.439 271.131 316.804C271.484 317.086 271.872 317.262 272.296 317.333C272.719 317.404 273.143 317.439 273.566 317.439C274.484 317.439 275.437 317.262 276.426 316.909C277.414 316.556 278.19 315.992 278.755 315.215C279.249 315.78 279.955 316.062 280.873 316.062C281.861 316.062 282.814 315.815 283.732 315.321C284.72 314.756 285.674 314.474 286.591 314.474C287.297 314.474 287.827 314.721 288.18 315.215C288.956 314.58 289.874 314.086 290.933 313.733C291.992 313.38 293.051 313.062 294.11 312.78C295.239 312.497 296.263 312.18 297.181 311.827C298.169 311.474 298.945 310.979 299.51 310.344C299.863 310.415 300.428 310.45 301.204 310.45C302.405 310.45 303.534 310.309 304.593 310.026C305.723 309.673 306.852 309.356 307.982 309.073L310.205 308.862C310.77 308.791 311.264 308.615 311.688 308.332C312.182 308.05 312.676 307.803 313.17 307.591C313.665 307.379 314.159 307.203 314.653 307.061C315.218 306.92 315.888 306.885 316.665 306.956C318.359 306.038 320.159 305.332 322.065 304.838C323.971 304.344 325.913 303.92 327.889 303.567C329.866 303.143 331.807 302.685 333.714 302.19C335.62 301.626 337.42 300.814 339.114 299.755H339.432C340.844 299.755 342.22 299.508 343.562 299.014C344.973 298.519 346.279 297.849 347.48 297.002C347.691 297.072 347.903 297.108 348.115 297.108H348.856C350.833 297.108 352.739 296.825 354.574 296.26C356.48 295.696 358.457 295.413 360.504 295.413C361.705 295.413 362.658 295.59 363.364 295.943C364.069 296.225 364.705 296.613 365.27 297.108C365.834 297.531 366.434 297.955 367.07 298.378C367.705 298.802 368.517 299.119 369.505 299.331C370.141 300.531 370.458 301.837 370.458 303.249C370.458 304.591 370.494 305.967 370.564 307.379ZM491.595 389.87C491.454 390.929 491.066 391.74 490.431 392.305C489.866 392.87 489.195 393.399 488.419 393.894C488.066 393.823 487.713 393.788 487.36 393.788C487.077 393.717 486.76 393.682 486.407 393.682C484.218 393.611 482.136 393.894 480.159 394.529C478.253 395.164 476.276 395.623 474.229 395.905C473.523 396.047 472.852 396.117 472.217 396.117C471.652 396.047 471.052 396.082 470.417 396.223C468.158 396.576 465.758 396.859 463.216 397.07C460.675 397.282 458.133 397.564 455.592 397.917C453.05 398.2 450.544 398.588 448.074 399.082C445.673 399.506 443.414 400.141 441.296 400.988C441.085 400.847 440.873 400.706 440.661 400.565C440.449 400.353 440.202 400.247 439.92 400.247C439.214 400.247 438.543 400.353 437.908 400.565C437.272 400.777 436.637 400.847 436.002 400.777C435.296 401.2 434.519 401.518 433.672 401.73C432.896 401.871 432.084 402.012 431.237 402.153C430.46 402.224 429.683 402.365 428.907 402.577C428.13 402.788 427.389 403.177 426.683 403.742C426.118 403.459 425.412 403.318 424.565 403.318C423.789 403.247 423.259 402.965 422.977 402.471C421.353 403.247 419.624 403.742 417.788 403.953C416.023 404.165 414.223 404.236 412.388 404.165C411.188 404.095 409.811 403.918 408.258 403.636C406.705 403.353 405.152 402.965 403.599 402.471C402.045 401.906 400.598 401.271 399.257 400.565C397.916 399.788 396.892 398.87 396.186 397.812C395.692 397.106 395.339 396.329 395.127 395.482C394.915 394.635 394.421 393.999 393.645 393.576C393.856 391.952 394.103 390.364 394.386 388.811C394.668 387.258 394.951 385.669 395.233 384.045C396.645 382.845 397.986 381.575 399.257 380.233C400.528 378.892 401.728 377.48 402.857 375.998C404.199 375.362 405.434 374.586 406.564 373.668C407.764 372.75 408.928 371.833 410.058 370.915C411.258 369.926 412.423 368.973 413.552 368.056C414.753 367.138 416.023 366.326 417.365 365.62C417.576 365.126 417.859 364.738 418.212 364.455C418.635 364.102 419.059 363.785 419.482 363.502C419.906 363.149 420.294 362.796 420.647 362.443C421 362.02 421.247 361.526 421.389 360.961C423.859 359.478 426.013 357.608 427.848 355.349C429.683 353.089 430.884 350.548 431.448 347.724C430.248 346.736 428.872 346.101 427.319 345.818C425.836 345.465 424.283 345.218 422.659 345.077C421.247 345.006 419.765 345.006 418.212 345.077C416.729 345.148 415.211 345.112 413.658 344.971C412.105 345.465 410.482 345.783 408.787 345.924C407.164 346.065 405.54 346.206 403.916 346.348C402.293 346.418 400.669 346.63 399.045 346.983C397.492 347.265 395.974 347.83 394.492 348.677C394.209 348.677 393.927 348.642 393.645 348.571C393.433 348.501 393.186 348.466 392.903 348.466C390.644 348.395 388.526 348.854 386.55 349.842C384.573 350.76 382.632 351.678 380.726 352.595C380.585 352.878 380.514 353.089 380.514 353.231C380.514 353.654 380.585 354.078 380.726 354.501C380.937 354.854 381.043 355.243 381.043 355.666C380.973 355.737 380.937 355.807 380.937 355.878C380.937 355.949 380.902 356.019 380.832 356.09C380.761 356.443 380.655 356.76 380.514 357.043C380.443 357.325 380.337 357.643 380.196 357.996C379.42 360.255 378.996 362.479 378.926 364.667C378.855 366.503 378.855 368.303 378.926 370.068C378.996 371.833 378.996 373.633 378.926 375.468C378.784 377.727 378.431 379.845 377.867 381.822C378.22 383.516 378.537 385.316 378.82 387.222C379.102 389.058 379.455 390.893 379.879 392.729C380.302 394.564 380.796 396.364 381.361 398.129C381.996 399.824 382.808 401.447 383.797 403C383.726 403.141 383.761 403.247 383.902 403.318C384.044 403.389 384.185 403.424 384.326 403.424H385.173C385.526 403.424 385.667 403.565 385.597 403.847C385.738 404.059 385.844 404.271 385.914 404.483C385.985 404.624 386.126 404.765 386.338 404.906C386.479 405.118 386.479 405.401 386.338 405.753C386.267 407.165 385.914 408.471 385.279 409.672C384.644 410.872 384.255 412.178 384.114 413.59C383.267 413.801 382.491 413.907 381.785 413.907C380.585 413.837 379.526 413.484 378.608 412.848C377.69 412.284 376.843 411.578 376.066 410.73C375.29 409.883 374.549 409.036 373.843 408.189C373.137 407.271 372.36 406.495 371.513 405.859C371.019 403.883 370.525 401.694 370.031 399.294C369.607 396.894 368.866 394.847 367.807 393.152C368.089 392.517 368.23 391.74 368.23 390.823C368.301 389.411 368.16 388.034 367.807 386.693C367.524 385.281 367.454 383.869 367.595 382.457C367.595 381.681 367.666 380.904 367.807 380.127C368.019 379.351 368.16 378.574 368.23 377.798C368.301 376.598 368.16 375.433 367.807 374.303C367.524 373.174 367.419 372.009 367.489 370.809C367.56 370.244 367.666 369.715 367.807 369.22C368.019 368.656 368.301 368.162 368.654 367.738C368.301 366.891 368.195 366.079 368.336 365.302C368.407 364.102 368.548 362.973 368.76 361.914C368.972 360.855 369.113 359.796 369.183 358.737C369.183 358.172 369.148 357.643 369.077 357.149C369.007 356.584 368.901 356.054 368.76 355.56L367.807 355.243C367.383 355.243 366.96 355.349 366.536 355.56C366.183 355.772 365.865 356.019 365.583 356.302C365.301 356.584 365.054 356.831 364.842 357.043C364.63 357.184 364.418 357.255 364.206 357.255C364.065 357.255 363.889 357.255 363.677 357.255C363.536 357.184 363.395 357.149 363.253 357.149C363.112 357.149 362.83 357.29 362.406 357.572C362.053 357.855 361.594 358.172 361.03 358.525C360.535 358.808 360.041 359.125 359.547 359.478C359.053 359.761 358.665 359.937 358.382 360.008C357.606 359.867 356.97 359.62 356.476 359.267C356.053 358.843 355.629 358.455 355.206 358.102C354.853 357.678 354.464 357.325 354.041 357.043C353.617 356.69 353.088 356.549 352.452 356.619C352.241 356.196 352.135 355.737 352.135 355.243C352.064 354.748 352.064 354.254 352.135 353.76V352.066C352.629 351.148 353.299 350.407 354.147 349.842C354.923 349.207 355.77 348.677 356.688 348.254L359.441 346.983C360.359 346.559 361.206 346.03 361.983 345.395H362.936C364.206 345.465 365.301 345.218 366.218 344.653C367.207 344.089 368.124 343.453 368.972 342.747C369.819 341.971 370.666 341.194 371.513 340.418C372.431 339.641 373.419 339.041 374.478 338.617C375.255 338.97 376.066 339.288 376.914 339.571C377.761 339.782 378.643 339.923 379.561 339.994C380.479 339.994 381.432 339.853 382.42 339.571C383.408 339.288 384.185 338.759 384.75 337.982C385.103 338.123 385.385 338.229 385.597 338.3C385.879 338.3 386.197 338.3 386.55 338.3C387.609 338.37 388.668 338.229 389.727 337.876C390.786 337.453 391.809 336.958 392.797 336.394C394.209 336.464 395.586 336.394 396.927 336.182C398.339 335.9 399.716 335.617 401.057 335.335C402.469 335.052 403.846 334.805 405.187 334.594C406.599 334.311 408.011 334.205 409.423 334.276C411.752 334.346 414.047 334.135 416.306 333.641C418.565 333.146 420.859 332.97 423.189 333.111C424.812 333.182 426.401 333.323 427.954 333.535C429.578 333.676 431.201 333.711 432.825 333.641C433.743 334.064 434.555 334.452 435.26 334.805C436.037 335.088 436.99 335.158 438.12 335.017C440.379 336.923 442.426 339.147 444.261 341.688V343.489C444.191 345.112 443.908 346.701 443.414 348.254C442.92 349.807 442.32 351.36 441.614 352.913C440.979 354.396 440.273 355.878 439.496 357.36C438.72 358.772 437.978 360.184 437.272 361.596C432.684 365.761 428.095 369.891 423.506 373.986C418.918 378.08 414.188 382.034 409.317 385.846C409.176 386.552 408.964 387.187 408.681 387.752C408.47 388.316 408.328 388.917 408.258 389.552C408.258 389.905 408.293 390.187 408.364 390.399C408.858 390.54 409.281 390.823 409.634 391.246C410.058 391.599 410.199 392.093 410.058 392.729H411.011C411.364 392.729 411.54 392.87 411.54 393.152L413.235 393.258C415.917 393.399 418.6 393.329 421.283 393.046C423.965 392.764 426.648 392.446 429.33 392.093C432.084 391.74 434.802 391.423 437.484 391.14C440.167 390.787 442.849 390.576 445.532 390.505C446.167 390.293 446.838 390.117 447.544 389.975C448.25 389.834 448.885 389.552 449.45 389.128H449.768C450.262 389.128 450.615 389.27 450.827 389.552C451.109 389.834 451.497 390.011 451.992 390.081C452.345 390.081 452.697 390.011 453.05 389.87C453.474 389.728 453.898 389.622 454.321 389.552C455.31 389.27 456.333 389.093 457.392 389.022C458.522 388.952 459.616 388.846 460.675 388.705C464.769 388.352 468.828 388.14 472.852 388.069C476.876 387.928 480.9 387.399 484.924 386.481C485.277 386.975 485.771 387.328 486.407 387.54C487.042 387.681 487.713 387.858 488.419 388.069C489.125 388.211 489.76 388.387 490.325 388.599C490.96 388.811 491.384 389.234 491.595 389.87ZM558.198 400.565C557.986 401.553 557.527 402.365 556.821 403C556.186 403.565 555.409 404.024 554.492 404.377C553.574 404.73 552.621 404.977 551.632 405.118C550.715 405.189 549.868 405.224 549.091 405.224C548.738 405.224 548.385 405.224 548.032 405.224C547.75 405.153 547.432 405.118 547.079 405.118C546.726 405.118 546.55 405.295 546.55 405.648C546.55 406.001 546.373 406.248 546.02 406.389C545.667 406.248 545.314 406.142 544.961 406.071C544.608 406.001 544.255 405.965 543.902 405.965C543.408 405.965 542.914 406.001 542.42 406.071C541.996 406.142 541.573 406.177 541.149 406.177C540.584 406.177 540.161 406.106 539.878 405.965C539.667 405.824 539.455 405.683 539.243 405.542C539.102 405.33 538.925 405.118 538.713 404.906C538.572 404.695 538.325 404.518 537.972 404.377C537.478 404.165 537.054 404.13 536.702 404.271C536.419 404.412 535.96 404.2 535.325 403.636C534.478 402.93 533.737 402.083 533.101 401.094C532.536 400.035 531.972 398.941 531.407 397.812C530.842 396.682 530.242 395.552 529.607 394.423C528.971 393.293 528.23 392.305 527.383 391.458H526.536C525.265 391.458 524.383 391.987 523.888 393.046C523.536 392.835 523.183 392.587 522.83 392.305C522.477 391.952 522.088 391.67 521.665 391.458C520.041 391.952 518.347 392.376 516.582 392.729C514.817 393.082 513.052 393.258 511.287 393.258H509.805C509.381 393.258 508.922 393.188 508.428 393.046C507.722 393.329 507.087 393.682 506.522 394.105C505.957 394.458 505.322 394.635 504.616 394.635C504.192 394.635 503.698 394.494 503.134 394.211C502.71 394.211 502.498 394.388 502.498 394.741C502.569 395.094 502.357 395.27 501.863 395.27H500.91C499.921 395.27 498.933 395.305 497.945 395.376C497.027 395.447 496.074 395.482 495.086 395.482C493.744 395.482 492.368 395.305 490.956 394.952C490.603 395.164 490.215 395.27 489.791 395.27C489.509 395.411 489.297 395.658 489.156 396.011C489.014 396.294 488.873 396.576 488.732 396.859C488.591 397.07 488.379 397.282 488.097 397.494C487.885 397.635 487.567 397.67 487.144 397.6C487.003 398.447 486.65 399.118 486.085 399.612C485.52 400.106 485.238 400.847 485.238 401.835C484.461 402.259 483.826 402.788 483.332 403.424C482.837 404.059 482.343 404.73 481.849 405.436C481.355 406.142 480.825 406.812 480.261 407.448C479.767 408.083 479.131 408.577 478.355 408.93C478.002 409.354 477.896 410.025 478.037 410.942C477.26 411.578 476.307 412.142 475.178 412.637C474.048 413.131 472.989 413.378 472.001 413.378C469.954 413.378 468.542 412.284 467.765 410.095C467.765 409.389 467.836 408.648 467.977 407.871C468.048 407.024 468.189 406.248 468.401 405.542C468.612 404.765 468.93 404.095 469.354 403.53C469.777 402.894 470.377 402.436 471.154 402.153C471.154 401.518 470.942 401.094 470.519 400.882C470.095 400.6 469.918 400.141 469.989 399.506C471.895 398.588 473.554 397.388 474.966 395.905C476.378 394.423 477.649 392.87 478.778 391.246C479.978 389.552 481.178 387.858 482.379 386.163C483.579 384.469 484.92 382.951 486.402 381.61V379.386C488.52 377.127 489.897 374.586 490.532 371.762C491.309 371.621 491.803 371.268 492.015 370.703C492.297 370.138 492.438 369.468 492.438 368.691C492.791 368.691 493.003 368.55 493.074 368.267C493.215 367.914 493.533 367.809 494.027 367.95C494.662 366.255 495.368 364.702 496.145 363.29C496.921 361.879 497.698 360.467 498.474 359.055C499.251 357.572 499.921 356.054 500.486 354.501C501.122 352.948 501.58 351.219 501.863 349.313C502.851 349.242 503.381 348.783 503.451 347.936C503.592 347.018 503.734 346.206 503.875 345.501C504.934 344.512 505.71 343.347 506.204 342.006C506.769 340.665 507.263 339.288 507.687 337.876C508.11 336.394 508.569 334.947 509.064 333.535C509.628 332.052 510.405 330.746 511.393 329.617V329.299C511.393 328.946 511.252 328.734 510.97 328.664C510.687 328.522 510.546 328.275 510.546 327.922C510.617 327.852 510.652 327.781 510.652 327.711C511.499 327.358 512.134 326.793 512.558 326.016C512.982 325.169 513.617 324.569 514.464 324.216C515.947 325.416 517.253 326.157 518.382 326.44C519.512 326.652 520.994 326.828 522.83 326.969C523.747 327.958 524.241 329.158 524.312 330.57C524.453 331.911 524.7 333.252 525.053 334.594C525.618 336.853 526.218 339.076 526.853 341.265C527.559 343.383 528.089 345.571 528.442 347.83C528.654 349.171 529.042 350.442 529.607 351.642C530.171 352.842 530.56 354.078 530.772 355.349C530.913 356.337 530.913 357.466 530.772 358.737C530.63 359.937 530.772 360.996 531.195 361.914L531.936 363.608C532.289 364.385 532.572 365.197 532.783 366.044C533.066 366.891 533.313 367.738 533.525 368.585C534.089 370.703 534.584 372.997 535.007 375.468C535.501 377.868 536.243 380.057 537.231 382.034C537.584 382.739 538.113 383.234 538.819 383.516C539.596 383.798 540.443 384.01 541.361 384.151C542.279 384.222 543.161 384.257 544.008 384.257C544.926 384.187 545.702 384.151 546.338 384.151H547.397C547.82 384.151 548.244 384.222 548.667 384.363C548.95 384.928 549.091 385.422 549.091 385.846C549.091 386.693 548.809 387.363 548.244 387.858C547.679 388.352 547.397 388.917 547.397 389.552C547.397 389.905 547.538 390.293 547.82 390.717C547.538 390.646 547.114 390.611 546.55 390.611C544.926 390.611 543.337 390.893 541.784 391.458C542.349 392.658 543.09 393.682 544.008 394.529C544.996 395.305 546.02 396.047 547.079 396.753C547.785 396.188 548.526 395.905 549.303 395.905C550.15 395.905 550.926 396.117 551.632 396.541C552.409 396.894 553.221 397.07 554.068 397.07C554.703 397.07 555.162 396.964 555.445 396.753C556.009 397.388 556.468 398.059 556.821 398.765C557.174 399.4 557.633 400 558.198 400.565ZM525.053 383.622C524.912 382.422 524.665 381.575 524.312 381.08C524.03 380.516 523.783 379.845 523.571 379.069C523.288 378.08 523.077 377.021 522.935 375.892C522.865 374.762 522.724 373.668 522.512 372.609C522.018 370.209 521.453 367.809 520.818 365.408C520.253 363.008 519.512 360.678 518.594 358.419C518.876 357.996 519.017 357.608 519.017 357.255V356.937C518.382 356.231 517.923 355.384 517.641 354.396C517.358 353.337 517.076 352.313 516.794 351.325C516.582 350.266 516.264 349.313 515.841 348.466C515.488 347.548 514.888 346.807 514.04 346.242C513.829 346.665 513.723 347.159 513.723 347.724C513.723 348.218 513.758 348.677 513.829 349.101C513.97 349.524 514.04 349.983 514.04 350.477C513.335 350.83 512.805 351.395 512.452 352.172C512.17 352.878 511.676 353.442 510.97 353.866C510.405 356.125 509.593 358.278 508.534 360.325C507.475 362.302 506.346 364.279 505.145 366.255C504.016 368.232 502.922 370.244 501.863 372.291C500.804 374.268 499.957 376.351 499.321 378.539C498.404 379.174 497.768 379.986 497.415 380.975C497.133 381.963 496.992 382.951 496.992 383.94C497.627 384.293 498.333 384.504 499.11 384.575C499.957 384.575 500.769 384.575 501.545 384.575C502.322 384.575 503.063 384.646 503.769 384.787C504.475 384.928 505.11 385.281 505.675 385.846C506.593 385.563 507.581 385.387 508.64 385.316C509.769 385.175 510.687 384.857 511.393 384.363C512.805 384.857 514.323 385.104 515.947 385.104C516.794 385.104 517.606 385.034 518.382 384.893C519.229 384.751 520.041 384.575 520.818 384.363C521.453 384.504 521.947 384.751 522.3 385.104C522.653 385.387 523.183 385.493 523.888 385.422C524.241 385.14 524.453 384.857 524.524 384.575C524.594 384.222 524.771 383.904 525.053 383.622ZM631.26 335.441C631.26 336.076 630.977 336.606 630.412 337.029C629.918 337.453 629.671 337.77 629.671 337.982C629.671 338.406 629.742 338.723 629.883 338.935C630.024 339.076 630.095 339.253 630.095 339.465V339.994C629.389 340.7 628.859 341.477 628.506 342.324C628.153 343.1 627.871 343.947 627.659 344.865C627.447 345.712 627.236 346.595 627.024 347.512C626.883 348.43 626.671 349.313 626.388 350.16C626.035 351.007 625.577 351.748 625.012 352.384C624.447 352.948 623.988 353.619 623.635 354.396C623.07 355.666 622.647 356.972 622.365 358.314C622.082 359.655 621.482 360.89 620.564 362.02V362.549C620.494 363.043 620.635 363.467 620.988 363.82C619.647 365.585 618.588 367.703 617.811 370.174C617.035 372.574 616.399 375.115 615.905 377.798C615.411 380.41 614.987 383.057 614.634 385.74C614.281 388.352 613.858 390.717 613.364 392.835C613.717 394.388 614.246 395.87 614.952 397.282C615.729 398.623 616.47 400.035 617.176 401.518C618.588 401.871 619.929 402.365 621.2 403C622.541 403.636 623.494 404.659 624.059 406.071C623.918 407.483 623.459 408.577 622.682 409.354C621.906 410.13 620.953 410.942 619.823 411.789C619.047 411.507 618.411 411.26 617.917 411.048C617.423 410.907 616.682 410.907 615.693 411.048C614.352 409.989 613.081 409.142 611.881 408.507C610.752 407.871 609.728 406.777 608.81 405.224C608.669 405.012 608.457 404.906 608.175 404.906H607.222C606.869 404.059 606.445 403.177 605.951 402.259C605.457 401.271 604.963 400.282 604.469 399.294C603.974 398.235 603.551 397.211 603.198 396.223C602.845 395.164 602.668 394.211 602.668 393.364C602.668 389.764 602.986 386.199 603.621 382.669C604.327 379.069 604.68 375.433 604.68 371.762V370.703C603.269 371.056 601.857 371.55 600.445 372.185C599.103 372.821 597.727 373.315 596.315 373.668C595.821 373.809 595.538 374.056 595.468 374.409C595.397 374.762 595.185 375.045 594.832 375.256C594.126 375.327 593.456 375.398 592.82 375.468C592.185 375.468 591.585 375.468 591.02 375.468C589.82 375.468 588.549 375.433 587.208 375.362C585.937 375.221 584.667 374.974 583.396 374.621C582.125 374.268 580.925 373.774 579.796 373.139C578.737 372.503 577.784 371.691 576.937 370.703C576.795 370.774 576.619 370.844 576.407 370.915C576.195 370.985 575.983 371.021 575.772 371.021C575.56 371.021 575.348 370.985 575.136 370.915C574.925 370.844 574.748 370.774 574.607 370.703C574.042 369.926 573.583 369.079 573.23 368.162L572.171 365.408C571.818 364.491 571.43 363.608 571.007 362.761C570.583 361.914 570.018 361.137 569.312 360.431C569.1 359.161 568.995 357.925 568.995 356.725C568.995 355.454 569.1 354.219 569.312 353.019C569.453 351.819 569.701 350.619 570.053 349.419C569.771 348.571 569.595 347.689 569.524 346.771C569.383 345.853 569.312 344.936 569.312 344.018C569.312 342.959 569.418 341.865 569.63 340.735C569.842 339.606 570.195 338.582 570.689 337.664C571.183 336.676 571.889 335.864 572.807 335.229C573.654 334.594 574.713 334.276 575.983 334.276C577.395 334.276 578.701 334.664 579.902 335.441C581.102 336.147 582.266 336.888 583.396 337.664C583.537 338.512 583.643 339.359 583.714 340.206C583.784 340.982 583.82 341.83 583.82 342.747C583.82 344.442 583.714 346.171 583.502 347.936C583.361 349.63 583.29 351.36 583.29 353.125C583.29 354.96 583.502 356.69 583.925 358.314C584.42 359.867 585.267 361.349 586.467 362.761H586.89C587.455 362.69 587.949 362.796 588.373 363.079C588.797 363.361 589.291 363.502 589.855 363.502C590.35 363.502 590.738 363.326 591.02 362.973C591.303 362.549 591.656 362.337 592.079 362.337C592.503 362.337 592.82 362.408 593.032 362.549C593.244 362.69 593.42 362.761 593.562 362.761C594.338 362.761 595.221 362.479 596.209 361.914C597.197 361.349 597.833 360.714 598.115 360.008C598.397 360.22 598.75 360.325 599.174 360.325C599.739 360.325 600.268 360.149 600.762 359.796C601.257 359.443 601.892 359.267 602.668 359.267C603.092 359.267 603.233 359.019 603.092 358.525C603.021 357.961 603.163 357.608 603.516 357.466C604.363 357.113 605.28 356.619 606.269 355.984C607.328 355.278 608.175 354.854 608.81 354.713C609.163 353.795 609.587 352.948 610.081 352.172C610.646 351.325 611.21 350.548 611.775 349.842C611.987 348.218 612.411 346.665 613.046 345.183C613.681 343.7 614.352 342.218 615.058 340.735C615.764 339.253 616.435 337.77 617.07 336.288C617.705 334.805 618.129 333.252 618.341 331.629C619.117 330.852 619.717 330.005 620.141 329.087C620.635 328.169 621.059 327.252 621.411 326.334C622.117 326.122 623 326.016 624.059 326.016C625.118 325.946 626.035 325.91 626.812 325.91H628.612C628.824 326.334 629.106 326.722 629.459 327.075L630.518 328.134C629.883 329.122 629.565 330.111 629.565 331.099C629.565 331.876 629.742 332.652 630.095 333.429C630.448 334.135 630.836 334.805 631.26 335.441ZM708.769 381.08C708.769 381.857 708.486 382.457 707.922 382.881C707.357 383.234 707.075 383.728 707.075 384.363C707.075 384.646 707.216 384.999 707.498 385.422C706.51 385.422 705.839 385.74 705.486 386.375C705.133 387.01 704.78 387.716 704.427 388.493H703.051C702.698 388.493 702.415 388.564 702.203 388.705C701.992 388.846 701.78 389.058 701.568 389.34C701.427 389.552 701.215 389.905 700.933 390.399C699.591 390.681 698.285 391.14 697.015 391.776C695.815 392.34 694.614 392.976 693.414 393.682C692.285 394.317 691.12 394.988 689.92 395.694C688.72 396.329 687.484 396.859 686.214 397.282C685.578 398.341 684.661 399.188 683.46 399.824H683.143C682.79 399.894 682.472 399.859 682.19 399.718C681.978 399.506 681.696 399.4 681.343 399.4C681.131 399.4 680.99 399.435 680.919 399.506C678.801 400.918 676.436 401.624 673.824 401.624C673.118 401.624 672.448 401.588 671.812 401.518C671.177 401.377 670.506 401.306 669.8 401.306C669.588 401.306 669.447 401.377 669.377 401.518L669.165 401.941C669.094 402.083 668.988 402.224 668.847 402.365C668.777 402.506 668.53 402.577 668.106 402.577C667.329 402.577 666.553 402.471 665.776 402.259C665 402.047 664.188 402.012 663.341 402.153C661.717 401.235 660.446 400.353 659.529 399.506C658.611 398.659 657.764 397.388 656.987 395.694C656.634 394.917 656.14 394.176 655.505 393.47C654.94 392.764 654.516 391.987 654.234 391.14C654.163 390.858 654.058 390.364 653.916 389.658C653.775 388.881 653.634 388.069 653.493 387.222C653.352 386.375 653.21 385.563 653.069 384.787C652.999 384.01 652.963 383.481 652.963 383.198C652.963 382.351 652.999 381.539 653.069 380.763C653.21 379.916 653.352 379.069 653.493 378.221C653.916 375.539 654.199 372.856 654.34 370.174C654.552 367.42 655.152 364.773 656.14 362.232C655.999 361.455 655.928 360.714 655.928 360.008V357.678C655.928 356.337 655.752 355.207 655.399 354.29C655.964 353.372 656.246 352.348 656.246 351.219C656.246 349.948 655.717 349.207 654.658 348.995V348.677C654.658 347.195 654.163 346.03 653.175 345.183C653.175 342.712 653.775 340.877 654.975 339.676C656.246 338.406 657.905 337.311 659.952 336.394C660.235 335.97 660.341 335.617 660.27 335.335C660.764 335.476 661.223 335.617 661.647 335.758C662.07 335.9 662.494 335.97 662.917 335.97C663.623 335.97 664.259 335.864 664.823 335.652C665.035 336.5 665.565 337.029 666.412 337.241C667.329 337.382 668.071 337.594 668.635 337.876V339.253C668.635 341.441 669.165 343.524 670.224 345.501C669.941 346.065 669.765 346.665 669.694 347.301C669.624 347.936 669.588 348.536 669.588 349.101C669.588 349.948 669.624 350.795 669.694 351.642C669.765 352.489 669.8 353.301 669.8 354.078C669.8 354.925 669.694 355.772 669.483 356.619C669.341 357.466 668.953 358.208 668.318 358.843C668.247 359.761 668.177 360.82 668.106 362.02C668.106 363.149 668.035 364.314 667.894 365.514C667.824 366.714 667.647 367.879 667.365 369.009C667.082 370.138 666.659 371.056 666.094 371.762C666.023 372.821 665.953 373.915 665.882 375.045C665.882 376.104 665.882 377.127 665.882 378.115C665.882 379.669 665.953 381.504 666.094 383.622C666.306 385.74 666.8 387.505 667.577 388.917C667.929 389.481 668.6 389.905 669.588 390.187C670.647 390.47 671.495 390.611 672.13 390.611C672.906 390.611 673.683 390.505 674.46 390.293C675.307 390.011 675.907 389.552 676.26 388.917C676.683 388.987 676.966 389.199 677.107 389.552C677.248 389.905 677.495 390.187 677.848 390.399C681.872 388.705 685.896 387.081 689.92 385.528C693.944 383.975 697.897 382.175 701.78 380.127C702.345 380.41 702.945 380.551 703.58 380.551C704.286 380.551 704.992 380.48 705.698 380.339C706.404 380.198 707.11 380.127 707.816 380.127H708.557C708.698 380.551 708.769 380.869 708.769 381.08ZM792.949 346.983C792.526 347.618 792.279 348.324 792.208 349.101C792.137 349.877 792.102 350.583 792.102 351.219C792.102 352.066 792.102 352.913 792.102 353.76C792.173 354.537 792.208 355.313 792.208 356.09V357.678C792.067 358.172 791.855 358.667 791.573 359.161C791.29 359.655 791.079 360.149 790.937 360.643C789.949 363.255 789.455 365.867 789.455 368.479V368.691C789.102 369.538 788.749 370.315 788.396 371.021C788.114 371.727 787.831 372.433 787.549 373.139C787.266 373.774 787.055 374.48 786.913 375.256C786.772 375.962 786.737 376.809 786.808 377.798C785.819 380.269 784.513 382.528 782.889 384.575C781.266 386.552 779.677 388.599 778.124 390.717C776.642 391.281 775.265 392.023 773.994 392.94C772.794 393.858 771.63 394.882 770.5 396.011C768.312 396.717 766.158 397.529 764.041 398.447C761.923 399.365 760.017 400.6 758.322 402.153C756.981 402.294 755.64 402.506 754.298 402.788C752.957 403.071 751.651 403.494 750.38 404.059H749.11C748.474 404.059 748.015 403.918 747.733 403.636C746.815 404.13 745.862 404.483 744.874 404.695C743.886 404.836 742.897 404.906 741.909 404.906C740.638 404.906 739.368 404.836 738.097 404.695C736.897 404.483 735.661 404.271 734.391 404.059C733.685 403.071 732.696 402.33 731.426 401.835C730.155 401.271 729.025 400.741 728.037 400.247C725.99 397.423 724.507 394.705 723.59 392.093C722.672 389.411 721.719 386.41 720.73 383.092C720.872 382.104 721.119 381.151 721.472 380.233C721.825 379.245 721.966 378.186 721.895 377.057C723.166 373.386 724.825 370.068 726.872 367.103C728.99 364.067 731.39 361.173 734.073 358.419C734.073 357.996 734.144 357.643 734.285 357.36C734.496 357.078 734.532 356.655 734.391 356.09C734.461 356.16 734.602 356.196 734.814 356.196C735.379 356.196 735.732 356.054 735.873 355.772C736.014 355.419 736.05 355.031 735.979 354.607C738.52 352.984 740.815 351.113 742.862 348.995C744.98 346.877 747.38 345.112 750.063 343.7C750.275 343.065 750.627 342.536 751.122 342.112C751.616 341.688 752.004 341.194 752.286 340.629C754.546 339.994 756.593 339.041 758.428 337.77C760.264 336.5 762.205 335.37 764.252 334.382C765.382 333.746 766.441 333.323 767.429 333.111C768.488 332.829 769.618 332.546 770.818 332.264C771.241 332.123 771.63 332.017 771.983 331.946C772.336 331.876 772.724 331.84 773.147 331.84C774.418 331.84 775.653 332.087 776.854 332.582C778.054 333.005 779.289 333.217 780.56 333.217C780.913 333.217 781.195 333.217 781.407 333.217C781.689 333.146 781.972 333.076 782.254 333.005C783.454 334.488 784.972 335.617 786.808 336.394C787.231 337.453 787.725 338.37 788.29 339.147C788.925 339.923 789.561 340.7 790.196 341.477C790.831 342.183 791.396 342.994 791.89 343.912C792.455 344.759 792.808 345.783 792.949 346.983ZM782.36 352.489C782.36 352.136 782.325 351.819 782.254 351.536C781.548 351.325 780.878 351.042 780.242 350.689C779.607 350.336 778.901 350.16 778.124 350.16C777.63 350.16 777.136 350.266 776.642 350.477C776.571 349.983 776.359 349.63 776.006 349.419C775.724 349.207 775.371 349.03 774.948 348.889C774.595 348.677 774.206 348.536 773.783 348.466C773.43 348.324 773.112 348.113 772.83 347.83C772.618 347.265 772.371 346.701 772.088 346.136C771.877 345.501 771.453 345.042 770.818 344.759C770.182 345.395 769.441 345.924 768.594 346.348C767.747 346.701 766.864 347.054 765.947 347.407C765.1 347.76 764.252 348.183 763.405 348.677C762.629 349.171 761.958 349.772 761.393 350.477H759.487C759.064 351.254 758.464 351.854 757.687 352.278C756.91 352.631 756.24 353.16 755.675 353.866C754.546 354.431 753.487 355.137 752.498 355.984C751.581 356.76 750.663 357.608 749.745 358.525C748.827 359.372 747.91 360.255 746.992 361.173C746.145 362.09 745.227 362.938 744.239 363.714C743.321 365.691 742.297 367.42 741.168 368.903C740.109 370.315 739.085 371.762 738.097 373.244C737.179 374.727 736.367 376.351 735.661 378.115C735.026 379.81 734.708 381.928 734.708 384.469V385.528C734.708 385.881 734.744 386.234 734.814 386.587C735.732 387.575 736.473 388.634 737.038 389.764C737.673 390.893 738.697 391.705 740.109 392.199C741.521 392.764 743.003 393.011 744.556 392.94C746.18 392.87 747.733 393.046 749.216 393.47C752.604 392.835 755.852 391.811 758.958 390.399C762.135 388.917 765.135 387.152 767.959 385.104C768.382 384.751 768.876 384.398 769.441 384.045C770.006 383.622 770.465 383.198 770.818 382.775C771.171 382.422 771.453 382.034 771.665 381.61C771.947 381.186 772.23 380.798 772.512 380.445C773.077 379.527 773.712 378.61 774.418 377.692C775.124 376.774 775.865 375.927 776.642 375.15C776.995 373.597 777.454 372.115 778.018 370.703C778.583 369.22 779.148 367.773 779.713 366.361C780.277 364.949 780.736 363.502 781.089 362.02C781.513 360.537 781.725 358.984 781.725 357.36C781.725 357.008 781.689 356.619 781.619 356.196C781.619 355.772 781.583 355.384 781.513 355.031C782.078 354.254 782.36 353.407 782.36 352.489ZM953.584 389.87C953.443 390.929 953.055 391.74 952.42 392.305C951.855 392.87 951.184 393.399 950.408 393.894C950.055 393.823 949.702 393.788 949.349 393.788C949.066 393.717 948.749 393.682 948.396 393.682C946.207 393.611 944.125 393.894 942.148 394.529C940.242 395.164 938.265 395.623 936.218 395.905C935.512 396.047 934.841 396.117 934.206 396.117C933.641 396.047 933.041 396.082 932.406 396.223C930.147 396.576 927.747 396.859 925.205 397.07C922.664 397.282 920.122 397.564 917.581 397.917C915.039 398.2 912.533 398.588 910.062 399.082C907.662 399.506 905.403 400.141 903.285 400.988C903.074 400.847 902.862 400.706 902.65 400.565C902.438 400.353 902.191 400.247 901.909 400.247C901.203 400.247 900.532 400.353 899.897 400.565C899.261 400.777 898.626 400.847 897.991 400.777C897.285 401.2 896.508 401.518 895.661 401.73C894.885 401.871 894.073 402.012 893.226 402.153C892.449 402.224 891.672 402.365 890.896 402.577C890.119 402.788 889.378 403.177 888.672 403.742C888.107 403.459 887.401 403.318 886.554 403.318C885.778 403.247 885.248 402.965 884.966 402.471C883.342 403.247 881.613 403.742 879.777 403.953C878.012 404.165 876.212 404.236 874.377 404.165C873.176 404.095 871.8 403.918 870.247 403.636C868.694 403.353 867.141 402.965 865.588 402.471C864.034 401.906 862.587 401.271 861.246 400.565C859.905 399.788 858.881 398.87 858.175 397.812C857.681 397.106 857.328 396.329 857.116 395.482C856.904 394.635 856.41 393.999 855.634 393.576C855.845 391.952 856.092 390.364 856.375 388.811C856.657 387.258 856.94 385.669 857.222 384.045C858.634 382.845 859.975 381.575 861.246 380.233C862.517 378.892 863.717 377.48 864.846 375.998C866.188 375.362 867.423 374.586 868.552 373.668C869.753 372.75 870.917 371.833 872.047 370.915C873.247 369.926 874.412 368.973 875.541 368.056C876.742 367.138 878.012 366.326 879.354 365.62C879.565 365.126 879.848 364.738 880.201 364.455C880.624 364.102 881.048 363.785 881.471 363.502C881.895 363.149 882.283 362.796 882.636 362.443C882.989 362.02 883.236 361.526 883.377 360.961C885.848 359.478 888.001 357.608 889.837 355.349C891.672 353.089 892.873 350.548 893.437 347.724C892.237 346.736 890.861 346.101 889.307 345.818C887.825 345.465 886.272 345.218 884.648 345.077C883.236 345.006 881.754 345.006 880.201 345.077C878.718 345.148 877.2 345.112 875.647 344.971C874.094 345.465 872.471 345.783 870.776 345.924C869.153 346.065 867.529 346.206 865.905 346.348C864.281 346.418 862.658 346.63 861.034 346.983C859.481 347.265 857.963 347.83 856.481 348.677C856.198 348.677 855.916 348.642 855.634 348.571C855.422 348.501 855.175 348.466 854.892 348.466C852.633 348.395 850.515 348.854 848.539 349.842C846.562 350.76 844.621 351.678 842.715 352.595C842.573 352.878 842.503 353.089 842.503 353.231C842.503 353.654 842.573 354.078 842.715 354.501C842.926 354.854 843.032 355.243 843.032 355.666C842.962 355.737 842.926 355.807 842.926 355.878C842.926 355.949 842.891 356.019 842.821 356.09C842.75 356.443 842.644 356.76 842.503 357.043C842.432 357.325 842.326 357.643 842.185 357.996C841.409 360.255 840.985 362.479 840.914 364.667C840.844 366.503 840.844 368.303 840.914 370.068C840.985 371.833 840.985 373.633 840.914 375.468C840.773 377.727 840.42 379.845 839.856 381.822C840.209 383.516 840.526 385.316 840.809 387.222C841.091 389.058 841.444 390.893 841.868 392.729C842.291 394.564 842.785 396.364 843.35 398.129C843.985 399.824 844.797 401.447 845.786 403C845.715 403.141 845.75 403.247 845.891 403.318C846.033 403.389 846.174 403.424 846.315 403.424H847.162C847.515 403.424 847.656 403.565 847.586 403.847C847.727 404.059 847.833 404.271 847.903 404.483C847.974 404.624 848.115 404.765 848.327 404.906C848.468 405.118 848.468 405.401 848.327 405.753C848.256 407.165 847.903 408.471 847.268 409.672C846.633 410.872 846.244 412.178 846.103 413.59C845.256 413.801 844.48 413.907 843.774 413.907C842.573 413.837 841.515 413.484 840.597 412.848C839.679 412.284 838.832 411.578 838.055 410.73C837.279 409.883 836.538 409.036 835.832 408.189C835.126 407.271 834.349 406.495 833.502 405.859C833.008 403.883 832.514 401.694 832.019 399.294C831.596 396.894 830.855 394.847 829.796 393.152C830.078 392.517 830.219 391.74 830.219 390.823C830.29 389.411 830.149 388.034 829.796 386.693C829.513 385.281 829.443 383.869 829.584 382.457C829.584 381.681 829.655 380.904 829.796 380.127C830.008 379.351 830.149 378.574 830.219 377.798C830.29 376.598 830.149 375.433 829.796 374.303C829.513 373.174 829.407 372.009 829.478 370.809C829.549 370.244 829.655 369.715 829.796 369.22C830.008 368.656 830.29 368.162 830.643 367.738C830.29 366.891 830.184 366.079 830.325 365.302C830.396 364.102 830.537 362.973 830.749 361.914C830.961 360.855 831.102 359.796 831.172 358.737C831.172 358.172 831.137 357.643 831.066 357.149C830.996 356.584 830.89 356.054 830.749 355.56L829.796 355.243C829.372 355.243 828.949 355.349 828.525 355.56C828.172 355.772 827.854 356.019 827.572 356.302C827.29 356.584 827.043 356.831 826.831 357.043C826.619 357.184 826.407 357.255 826.195 357.255C826.054 357.255 825.878 357.255 825.666 357.255C825.525 357.184 825.384 357.149 825.242 357.149C825.101 357.149 824.819 357.29 824.395 357.572C824.042 357.855 823.583 358.172 823.019 358.525C822.524 358.808 822.03 359.125 821.536 359.478C821.042 359.761 820.654 359.937 820.371 360.008C819.595 359.867 818.959 359.62 818.465 359.267C818.042 358.843 817.618 358.455 817.195 358.102C816.842 357.678 816.453 357.325 816.03 357.043C815.606 356.69 815.077 356.549 814.441 356.619C814.23 356.196 814.124 355.737 814.124 355.243C814.053 354.748 814.053 354.254 814.124 353.76V352.066C814.618 351.148 815.288 350.407 816.136 349.842C816.912 349.207 817.759 348.677 818.677 348.254L821.43 346.983C822.348 346.559 823.195 346.03 823.972 345.395H824.925C826.195 345.465 827.29 345.218 828.207 344.653C829.196 344.089 830.113 343.453 830.961 342.747C831.808 341.971 832.655 341.194 833.502 340.418C834.42 339.641 835.408 339.041 836.467 338.617C837.244 338.97 838.055 339.288 838.903 339.571C839.75 339.782 840.632 339.923 841.55 339.994C842.468 339.994 843.421 339.853 844.409 339.571C845.397 339.288 846.174 338.759 846.739 337.982C847.092 338.123 847.374 338.229 847.586 338.3C847.868 338.3 848.186 338.3 848.539 338.3C849.598 338.37 850.657 338.229 851.716 337.876C852.774 337.453 853.798 336.958 854.786 336.394C856.198 336.464 857.575 336.394 858.916 336.182C860.328 335.9 861.705 335.617 863.046 335.335C864.458 335.052 865.835 334.805 867.176 334.594C868.588 334.311 870 334.205 871.412 334.276C873.741 334.346 876.036 334.135 878.295 333.641C880.554 333.146 882.848 332.97 885.178 333.111C886.801 333.182 888.39 333.323 889.943 333.535C891.567 333.676 893.19 333.711 894.814 333.641C895.732 334.064 896.543 334.452 897.249 334.805C898.026 335.088 898.979 335.158 900.109 335.017C902.368 336.923 904.415 339.147 906.25 341.688V343.489C906.18 345.112 905.897 346.701 905.403 348.254C904.909 349.807 904.309 351.36 903.603 352.913C902.968 354.396 902.262 355.878 901.485 357.36C900.709 358.772 899.967 360.184 899.261 361.596C894.673 365.761 890.084 369.891 885.495 373.986C880.907 378.08 876.177 382.034 871.306 385.846C871.165 386.552 870.953 387.187 870.67 387.752C870.459 388.316 870.317 388.917 870.247 389.552C870.247 389.905 870.282 390.187 870.353 390.399C870.847 390.54 871.27 390.823 871.623 391.246C872.047 391.599 872.188 392.093 872.047 392.729H873C873.353 392.729 873.529 392.87 873.529 393.152L875.224 393.258C877.906 393.399 880.589 393.329 883.272 393.046C885.954 392.764 888.637 392.446 891.319 392.093C894.073 391.74 896.791 391.423 899.473 391.14C902.156 390.787 904.838 390.576 907.521 390.505C908.156 390.293 908.827 390.117 909.533 389.975C910.239 389.834 910.874 389.552 911.439 389.128H911.757C912.251 389.128 912.604 389.27 912.816 389.552C913.098 389.834 913.486 390.011 913.98 390.081C914.333 390.081 914.686 390.011 915.039 389.87C915.463 389.728 915.887 389.622 916.31 389.552C917.298 389.27 918.322 389.093 919.381 389.022C920.511 388.952 921.605 388.846 922.664 388.705C926.758 388.352 930.817 388.14 934.841 388.069C938.865 387.928 942.889 387.399 946.913 386.481C947.266 386.975 947.76 387.328 948.396 387.54C949.031 387.681 949.702 387.858 950.408 388.069C951.114 388.211 951.749 388.387 952.314 388.599C952.949 388.811 953.373 389.234 953.584 389.87Z" fill="#E2E4E9"/>
</g>
<g filter="url(#filter1_d_512_8)">
<path d="M557.569 505.06V457.132C557.569 455.687 557.352 454.783 556.918 454.421C556.557 453.988 555.653 453.771 554.207 453.771H521.894V508.422H554.207C555.653 508.422 556.557 508.241 556.918 507.88C557.352 507.446 557.569 506.506 557.569 505.06ZM512.352 447.373H558.545C564.256 447.373 567.111 450.229 567.111 455.94V506.253C567.111 511.964 564.256 514.819 558.545 514.819H512.352V447.373ZM594.904 484.675H627.001V471.988C627.001 470.614 626.784 469.711 626.35 469.277C625.916 468.843 625.013 468.626 623.639 468.626H598.265C596.892 468.626 595.988 468.843 595.555 469.277C595.121 469.711 594.904 470.614 594.904 471.988V484.675ZM594.145 462.229H627.651C633.362 462.229 636.217 465.084 636.217 470.795V491.072H594.904V505.06C594.904 506.506 595.121 507.446 595.555 507.88C595.988 508.241 596.892 508.422 598.265 508.422H623.314C624.76 508.422 625.663 508.241 626.025 507.88C626.458 507.446 626.675 506.506 626.675 505.06V499.964H635.892V506.253C635.892 511.964 633.037 514.819 627.326 514.819H594.145C588.434 514.819 585.579 511.964 585.579 506.253V470.795C585.579 465.084 588.434 462.229 594.145 462.229ZM647.081 462.229H656.407L675.816 508.53L695.551 462.229H704.768L682.756 514.819H668.985L647.081 462.229ZM725.999 484.675H758.096V471.988C758.096 470.614 757.879 469.711 757.445 469.277C757.011 468.843 756.108 468.626 754.734 468.626H729.361C727.987 468.626 727.084 468.843 726.65 469.277C726.216 469.711 725.999 470.614 725.999 471.988V484.675ZM725.24 462.229H758.746C764.457 462.229 767.313 465.084 767.313 470.795V491.072H725.999V505.06C725.999 506.506 726.216 507.446 726.65 507.88C727.084 508.241 727.987 508.422 729.361 508.422H754.409C755.855 508.422 756.758 508.241 757.12 507.88C757.554 507.446 757.771 506.506 757.771 505.06V499.964H766.987V506.253C766.987 511.964 764.132 514.819 758.421 514.819H725.24C719.529 514.819 716.674 511.964 716.674 506.253V470.795C716.674 465.084 719.529 462.229 725.24 462.229ZM795.092 514.819H785.767V442.277H795.092V514.819ZM855.288 505.06V471.988C855.288 470.614 855.071 469.711 854.637 469.277C854.276 468.843 853.372 468.626 851.926 468.626H827.203C825.757 468.626 824.818 468.843 824.384 469.277C824.022 469.711 823.842 470.614 823.842 471.988V505.06C823.842 506.506 824.022 507.446 824.384 507.88C824.818 508.241 825.757 508.422 827.203 508.422H851.926C853.372 508.422 854.276 508.241 854.637 507.88C855.071 507.446 855.288 506.506 855.288 505.06ZM823.191 462.229H855.938C861.649 462.229 864.504 465.084 864.504 470.795V506.253C864.504 511.964 861.649 514.819 855.938 514.819H823.191C817.48 514.819 814.625 511.964 814.625 506.253V470.795C814.625 465.084 817.48 462.229 823.191 462.229ZM924.264 505.06V471.988C924.264 470.614 924.048 469.711 923.614 469.277C923.252 468.843 922.349 468.626 920.903 468.626H895.963C894.662 468.626 893.722 468.916 893.144 469.494C892.566 470.072 892.276 471.048 892.276 472.422V504.627C892.276 506 892.566 506.976 893.144 507.554C893.722 508.133 894.662 508.422 895.963 508.422H920.903C922.349 508.422 923.252 508.241 923.614 507.88C924.048 507.446 924.264 506.506 924.264 505.06ZM898.24 462.229H925.023C930.734 462.229 933.59 465.084 933.59 470.795V506.253C933.59 511.964 930.734 514.819 925.023 514.819H898.24C895.204 514.819 893.216 513.663 892.276 511.349V530.109H882.951V462.229H892.276V465.699C893.216 463.385 895.204 462.229 898.24 462.229ZM1006.54 462.229H1029.52C1035.23 462.229 1038.09 465.084 1038.09 470.795V514.819H1028.76V471.988C1028.76 470.614 1028.55 469.711 1028.11 469.277C1027.68 468.843 1026.78 468.626 1025.4 468.626H1004.26C1002.88 468.626 1001.91 468.952 1001.33 469.602C1000.75 470.181 1000.46 471.156 1000.46 472.53V514.819H991.138V471.988C991.138 470.614 990.921 469.711 990.487 469.277C990.126 468.843 989.222 468.626 987.776 468.626H965.005C963.704 468.626 962.764 468.916 962.186 469.494C961.608 470.072 961.318 471.048 961.318 472.422V514.819H951.993V462.229H961.318V465.699C962.258 463.385 964.246 462.229 967.282 462.229H991.897C996.017 462.229 998.656 463.711 999.813 466.675C1000.54 463.711 1002.78 462.229 1006.54 462.229ZM1064.75 484.675H1096.85V471.988C1096.85 470.614 1096.63 469.711 1096.2 469.277C1095.76 468.843 1094.86 468.626 1093.49 468.626H1068.11C1066.74 468.626 1065.83 468.843 1065.4 469.277C1064.97 469.711 1064.75 470.614 1064.75 471.988V484.675ZM1063.99 462.229H1097.5C1103.21 462.229 1106.06 465.084 1106.06 470.795V491.072H1064.75V505.06C1064.75 506.506 1064.97 507.446 1065.4 507.88C1065.83 508.241 1066.74 508.422 1068.11 508.422H1093.16C1094.61 508.422 1095.51 508.241 1095.87 507.88C1096.3 507.446 1096.52 506.506 1096.52 505.06V499.964H1105.74V506.253C1105.74 511.964 1102.88 514.819 1097.17 514.819H1063.99C1058.28 514.819 1055.42 511.964 1055.42 506.253V470.795C1055.42 465.084 1058.28 462.229 1063.99 462.229ZM1138.83 462.229H1164.42C1170.13 462.229 1172.99 465.084 1172.99 470.795V514.819H1163.66V471.988C1163.66 470.614 1163.45 469.711 1163.01 469.277C1162.65 468.843 1161.75 468.626 1160.3 468.626H1136.55C1135.25 468.626 1134.31 468.916 1133.73 469.494C1133.16 470.072 1132.87 471.048 1132.87 472.422V476H1132.76V514.819H1123.43V462.229H1132.76V466.024C1133.55 463.494 1135.58 462.229 1138.83 462.229ZM1217.01 468.626H1203.78V504.518C1203.78 505.892 1204 506.795 1204.43 507.229C1204.86 507.663 1205.77 507.88 1207.14 507.88H1216.9V514.819H1203.02C1197.31 514.819 1194.45 511.964 1194.45 506.253V468.626H1185.99V462.229H1194.45V453.12H1203.78V462.229H1217.01V468.626Z" fill="#E2E4E9"/>
</g>
<path d="M169.839 0C147.078 0 128.724 18.0267 128.724 40.4236V779.848C128.724 801.152 125.737 818.487 145.039 820.162H9.89288C-6.09448 820.162 2.0995 832.654 2.0995 848.24V866.923C2.0995 882.473 14.9549 895.001 30.9787 895.001H1430.98C1446.97 895.001 1459.83 882.473 1459.83 866.923V848.24C1459.83 832.654 1468.02 820.162 1452.03 820.162H1316.89C1336.19 818.487 1333.2 801.152 1333.2 779.848V40.4236C1333.2 18.0267 1314.85 0 1292.09 0H169.839ZM525.094 9.79635C530.92 9.79635 535.691 14.4578 535.691 20.2118C535.691 25.9658 530.92 30.6273 525.094 30.6273C519.23 30.6273 514.496 25.9658 514.496 20.2118C514.496 14.4578 519.23 9.79635 525.094 9.79635ZM168.856 40.4964H1293.11V779.775H168.856V40.4964ZM548.219 820.272H913.743C913.197 828.101 907.77 834.219 901.106 834.219H560.819C554.155 834.219 548.765 828.101 548.219 820.272ZM1290.37 842.413C1299.01 842.413 1305.96 849.224 1305.96 857.6C1305.96 865.939 1299.01 872.749 1290.37 872.749C1281.78 872.749 1274.79 865.939 1274.79 857.6C1274.79 849.224 1281.78 842.413 1290.37 842.413ZM1339.54 842.413C1348.17 842.413 1355.13 849.224 1355.13 857.6C1355.13 865.939 1348.17 872.749 1339.54 872.749C1330.94 872.749 1323.95 865.939 1323.95 857.6C1323.95 849.224 1330.94 842.413 1339.54 842.413ZM1388.7 842.413C1397.33 842.413 1404.29 849.224 1404.29 857.6C1404.29 865.939 1397.33 872.749 1388.7 872.749C1380.11 872.749 1373.12 865.939 1373.12 857.6C1373.12 849.224 1380.11 842.413 1388.7 842.413ZM64.3009 852.465H146.095C150.101 852.465 153.306 854.759 153.306 857.6C153.306 860.404 150.101 862.698 146.095 862.698H64.3009C60.2949 862.698 57.0902 860.404 57.0902 857.6C57.0902 854.759 60.2949 852.465 64.3009 852.465Z" fill="#E2E4E9"/>
<defs>
<filter id="filter0_d_512_8" x="249.847" y="295.413" width="719.228" height="143.091" filterUnits="userSpaceOnUse" color-interpolation-filters="sRGB">
<feFlood flood-opacity="0" result="BackgroundImageFix"/>
<feColorMatrix in="SourceAlpha" type="matrix" values="0 0 0 0 0 0 0 0 0 0 0 0 0 0 0 0 0 0 127 0" result="hardAlpha"/>
<feOffset dx="7.7453" dy="7.7453"/>
<feGaussianBlur stdDeviation="3.87265"/>
<feComposite in2="hardAlpha" operator="out"/>
<feColorMatrix type="matrix" values="0 0 0 0 1 0 0 0 0 1 0 0 0 0 1 0 0 0 0.2 0"/>
<feBlend mode="normal" in2="BackgroundImageFix" result="effect1_dropShadow_512_8"/>
<feBlend mode="normal" in="SourceGraphic" in2="effect1_dropShadow_512_8" result="shape"/>
</filter>
<filter id="filter1_d_512_8" x="512.352" y="442.277" width="720.146" height="103.322" filterUnits="userSpaceOnUse" color-interpolation-filters="sRGB">
<feFlood flood-opacity="0" result="BackgroundImageFix"/>
<feColorMatrix in="SourceAlpha" type="matrix" values="0 0 0 0 0 0 0 0 0 0 0 0 0 0 0 0 0 0 127 0" result="hardAlpha"/>
<feOffset dx="7.7453" dy="7.7453"/>
<feGaussianBlur stdDeviation="3.87265"/>
<feComposite in2="hardAlpha" operator="out"/>
<feColorMatrix type="matrix" values="0 0 0 0 1 0 0 0 0 1 0 0 0 0 1 0 0 0 0.2 0"/>
<feBlend mode="normal" in2="BackgroundImageFix" result="effect1_dropShadow_512_8"/>
<feBlend mode="normal" in="SourceGraphic" in2="effect1_dropShadow_512_8" result="shape"/>
</filter>
</defs>
</svg>
