<svg width="755" height="463" viewBox="0 0 755 463" fill="none" xmlns="http://www.w3.org/2000/svg">
<path d="M87.7122 0C75.9574 0 66.4784 9.30977 66.4784 20.8765V402.746C66.4784 413.749 64.9361 422.701 74.9042 423.566H5.1091C-3.14744 423.566 1.08427 430.017 1.08427 438.067V447.715C1.08427 455.746 7.72336 462.216 15.9987 462.216H739.02C747.277 462.216 753.916 455.746 753.916 447.715V438.067C753.916 430.017 758.147 423.566 749.891 423.566H680.096C690.064 422.701 688.522 413.749 688.522 402.746V20.8765C688.522 9.30977 679.043 0 667.288 0H87.7122ZM271.181 5.05925C274.19 5.05925 276.654 7.46662 276.654 10.4382C276.654 13.4098 274.19 15.8172 271.181 15.8172C268.152 15.8172 265.708 13.4098 265.708 10.4382C265.708 7.46662 268.152 5.05925 271.181 5.05925ZM87.2044 20.9141H667.814V402.709H87.2044V20.9141ZM283.123 423.623H471.895C471.613 427.667 468.811 430.826 465.369 430.826H289.631C286.189 430.826 283.405 427.667 283.123 423.623ZM666.404 435.058C670.861 435.058 674.454 438.575 674.454 442.901C674.454 447.208 670.861 450.725 666.404 450.725C661.965 450.725 658.354 447.208 658.354 442.901C658.354 438.575 661.965 435.058 666.404 435.058ZM691.794 435.058C696.252 435.058 699.844 438.575 699.844 442.901C699.844 447.208 696.252 450.725 691.794 450.725C687.356 450.725 683.745 447.208 683.745 442.901C683.745 438.575 687.356 435.058 691.794 435.058ZM717.184 435.058C721.642 435.058 725.234 438.575 725.234 442.901C725.234 447.208 721.642 450.725 717.184 450.725C712.746 450.725 709.135 447.208 709.135 442.901C709.135 438.575 712.746 435.058 717.184 435.058ZM33.2077 440.249H75.4496C77.5184 440.249 79.1735 441.434 79.1735 442.901C79.1735 444.349 77.5184 445.534 75.4496 445.534H33.2077C31.1388 445.534 29.4838 444.349 29.4838 442.901C29.4838 441.434 31.1388 440.249 33.2077 440.249Z" fill="#E2E4E9"/>
</svg>
