<svg width="95" height="93" viewBox="0 0 95 93" fill="none" xmlns="http://www.w3.org/2000/svg">
<path d="M16.8229 0C7.52083 0 0 7.55128 0 16.891V76.109C0 85.4487 7.52083 93 16.8229 93H78.1771C87.4792 93 95 85.4487 95 76.109V16.891C95 7.55128 87.4792 0 78.1771 0H16.8229ZM72.5167 20.3885H80.5521C80.75 20.3487 80.9083 20.5077 80.9479 20.6667V58.582C80.9479 59.2974 80.9875 60.0923 81.0271 60.9667C81.1062 61.8013 81.1458 62.5961 81.1854 63.2718C81.1854 63.55 81.0667 63.7885 80.7896 63.9077C78.7312 64.7821 76.5542 65.418 74.3375 65.8154C72.3187 66.1731 70.3 66.3718 68.2417 66.3718C65.3125 66.4115 62.3833 65.8154 59.7313 64.5833C57.2375 63.4308 55.1792 61.5231 53.7542 59.1782C52.2896 56.7538 51.5771 53.7333 51.5771 50.1167C51.5379 47.1478 52.3059 44.2244 53.7985 41.6613C55.2912 39.0981 57.4518 36.9923 60.0479 35.5705C62.8187 34.0205 66.1438 33.2654 70.0625 33.2654C70.2604 33.2654 70.5375 33.2654 70.8937 33.3051C71.25 33.3449 71.6458 33.3449 72.1208 33.3846V20.8256C72.1208 20.5474 72.2396 20.3885 72.5167 20.3885ZM14.5667 23.8462H23.5521C23.75 23.8462 23.9479 23.8859 24.1063 23.9256C24.2646 24.0051 24.3833 24.1244 24.5021 24.2833C25.2542 25.9923 26.125 27.7013 27.0354 29.4103C27.9854 31.1192 28.8958 32.7885 29.8854 34.4577C30.8354 36.1269 31.7063 37.7962 32.5375 39.5051H32.6167C33.4479 37.7564 34.3188 36.0474 35.1896 34.3782C36.0604 32.709 36.9708 31.0397 37.8812 29.3705C38.7917 27.7013 39.6625 25.9923 40.5333 24.3628C40.5729 24.2038 40.6521 24.0449 40.7708 23.9654C40.9275 23.8782 41.1099 23.85 41.2854 23.8859H49.6375C49.8354 23.8462 50.0333 23.9654 50.0729 24.1641C50.1125 24.2038 50.0333 24.3628 49.9542 24.4423L38.0792 44.1154L50.7458 64.9808C50.825 65.1397 50.8646 65.2987 50.825 65.4577C50.7854 65.6167 50.6271 65.4974 50.3896 65.5372H41.325C40.6917 65.5372 40.2563 65.4974 39.9792 65.1C39.1479 63.4308 38.2771 61.8013 37.4458 60.132C36.6146 58.5026 35.7042 56.8333 34.7542 55.1244C33.8042 53.4154 32.8542 51.7064 31.9042 49.9577H31.825C30.9937 51.6667 30.0833 53.3756 29.1729 55.0846C28.2625 56.7936 27.3521 58.5026 26.4812 60.1718C25.5708 61.841 24.6604 63.55 23.75 65.1795C23.5917 65.5769 23.275 65.6167 22.8396 65.6167H14.1312C13.9729 65.6167 13.8542 65.6962 13.8542 65.4974C13.8367 65.423 13.8348 65.3458 13.8484 65.2706C13.862 65.1954 13.8909 65.1238 13.9333 65.0603L26.2437 44.791L14.25 24.4026C14.1312 24.2436 14.0917 24.0846 14.1708 24.0051C14.25 23.8859 14.4083 23.8462 14.5667 23.8462ZM69.7458 40.6577C68.2021 40.6577 66.6583 40.9756 65.2729 41.691C63.9271 42.3667 62.7792 43.3603 61.9083 44.632C61.0375 45.9038 60.6021 47.6128 60.6021 49.6795C60.5625 51.0705 60.8 52.4615 61.275 53.7731C61.6708 54.8461 62.2646 55.8 63.0563 56.5949C63.8083 57.3103 64.7188 57.8667 65.7479 58.1846C66.8167 58.5423 67.925 58.7013 69.0333 58.7013C69.6271 58.7013 70.1813 58.6615 70.6958 58.6218C71.2104 58.6615 71.6458 58.582 72.1208 58.4231V40.9359C71.3429 40.7493 70.5457 40.6559 69.7458 40.6577Z" fill="white"/>
</svg>
