<svg width="100" height="60" viewBox="0 0 100 60" fill="none" xmlns="http://www.w3.org/2000/svg">
<path d="M27.9075 21.4826C27.7961 24.9774 29.5472 26.525 29.5905 27.5079C29.5699 27.7079 29.5015 27.9002 29.3912 28.0685C29.2809 28.2368 29.1317 28.3763 28.9563 28.4753L26.9763 29.8578C26.72 30.037 26.418 30.1398 26.1054 30.1541C26.0389 30.151 24.8385 30.4364 22.9374 26.2025C21.7775 27.6467 20.3017 28.807 18.6231 29.5946C16.9444 30.3822 15.1073 30.7763 13.2524 30.7466C10.7341 30.8839 3.90927 29.3209 4.26041 22.0736C4.01445 16.1671 9.52906 12.4979 15.2324 12.808C16.3307 12.8111 18.5736 12.8651 22.5012 13.7755V11.3654C22.9173 7.28266 20.2272 4.11495 15.5696 4.59018C15.1984 4.59172 12.5687 4.51303 8.47873 6.15012C7.34023 6.67164 7.19483 6.58524 6.81584 6.58524C5.66961 6.58524 6.14141 3.27094 6.36106 2.85125C7.16698 1.86375 11.9082 0.0199065 16.5612 0.046137C19.6723 -0.228315 22.7668 0.72944 25.1757 2.71239C26.1549 3.80494 26.902 5.08412 27.3718 6.47268C27.8416 7.86125 28.0243 9.33039 27.909 10.7914L27.9075 21.4826ZM14.5394 26.4803C19.5559 26.4078 21.6798 23.399 22.1639 21.7789C22.5445 20.2282 22.481 19.2468 22.481 17.5511C20.9852 17.1931 18.832 16.8028 16.3616 16.7997C14.0181 16.6238 9.73789 17.6684 9.90495 21.7773C9.71314 24.368 11.6251 26.6222 14.5394 26.4803ZM40.9786 30.0368C39.7627 30.1479 39.1966 29.2869 39.0171 28.4368L31.3137 3.03178C31.1637 2.60284 31.0647 2.16 31.0167 1.70791C30.9883 1.52153 31.0352 1.33151 31.1472 1.17962C31.2591 1.02773 31.427 0.926384 31.6138 0.897855C31.6509 0.891683 31.2843 0.897855 35.0556 0.897855C36.4137 0.762074 36.8562 1.82827 36.9969 2.49791L42.5224 24.2275L47.6518 2.49791C47.7338 2.00108 48.1066 0.789848 49.6318 0.917915H52.2862C52.6219 0.890141 54.0048 0.840765 54.2477 2.51797L59.4173 24.5253L65.1207 2.51797C65.1949 2.18161 65.5414 0.763618 67.0821 0.917915H70.1325C70.264 0.897856 71.0839 0.792933 70.9446 2.24178C70.8781 2.52723 71.4721 0.596977 62.7849 28.4568C62.607 29.307 62.0393 30.168 60.8234 30.0569H57.9323C56.24 30.2343 55.9972 28.5664 55.9709 28.3982L50.8415 7.23946L45.7708 28.3766C45.746 28.5448 45.5032 30.2127 43.8094 30.0353H40.9786V30.0368ZM83.2825 30.9055C82.3729 30.9071 78.0355 30.8592 74.4096 29.0092C74.0485 28.8567 73.7408 28.6006 73.5257 28.2734C73.3107 27.9462 73.1978 27.5627 73.2015 27.1715V25.5128C73.2015 24.209 74.1606 24.4482 74.5674 24.604C76.1205 25.2305 77.1167 25.7057 79.024 26.0853C84.6933 27.2471 87.1868 25.7304 87.7978 25.394C89.832 24.189 89.9929 21.4317 88.61 20.0014C86.9888 18.6451 86.2154 18.5942 80.3914 16.7611C79.6737 16.5621 73.6316 14.6611 73.6176 8.68213C73.5233 4.32479 77.4926 0.0137341 84.3715 0.0492224C86.3314 0.0476794 91.5536 0.686469 92.9675 2.45934C93.1763 2.78182 93.28 3.16139 93.2645 3.54559V5.10553C93.2645 5.79061 93.0139 6.13315 92.5112 6.13315C91.3185 6.00045 89.2024 4.40965 84.9067 4.47446C83.8409 4.41891 78.7362 4.61487 78.9652 8.32725C78.8987 11.2527 83.0814 12.3498 83.5594 12.4763C89.1993 14.1689 91.0849 14.4497 93.3233 17.0404C95.9746 20.4735 94.5453 24.4929 93.9962 25.5946C91.0447 31.3792 83.4125 30.9086 83.2825 30.9055ZM89.501 47.0851C78.6682 55.0653 62.9427 59.3131 49.5158 59.3131C31.3989 59.4323 13.8925 52.7874 0.438078 40.6848C-0.572031 39.776 0.318969 38.5309 1.54719 39.2237C16.4721 47.7395 33.3703 52.2141 50.5646 52.2031C63.4048 52.1344 76.1049 49.5362 87.9355 44.5577C89.7577 43.7862 91.3031 45.7612 89.501 47.0851ZM94.0163 41.9485C92.6303 40.171 84.8464 41.1184 81.3613 41.5335C80.311 41.6523 80.1331 40.7435 81.0844 40.0723C87.2827 35.7257 97.4627 36.9709 98.6321 38.4321C99.8 39.8933 98.315 50.0676 92.5127 54.928C91.6217 55.6794 90.7694 55.2829 91.1654 54.2954C92.4709 51.0166 95.4023 43.7276 94.0163 41.9485Z" fill="white"/>
</svg>
