<svg width="87" height="99" viewBox="0 0 87 99" fill="none" xmlns="http://www.w3.org/2000/svg">
<path d="M80.401 20.1602L49.2271 1.65247C47.3681 0.553578 45.286 0 43.2122 0C41.1383 0 39.0562 0.553578 37.1972 1.66073L6.015 20.1684C2.29694 22.3745 0 26.4561 0 30.8764V67.8918C0 72.3122 2.28867 76.3938 6.015 78.5999L37.1889 97.1075C39.0479 98.2147 41.1218 98.76 43.2039 98.76C45.2777 98.76 47.3599 98.2064 49.2189 97.1075L80.401 78.5999C84.1191 76.3938 86.416 72.3039 86.416 67.8918V30.8682C86.416 26.4561 84.1274 22.3662 80.401 20.1602ZM56.2584 77.9554L56.308 80.6159C56.308 80.9381 56.1014 81.3016 55.8536 81.4338L54.2755 82.3427C54.0276 82.4666 53.8128 82.3179 53.8128 81.9957L53.788 79.3765C52.4412 79.9384 51.0697 80.0706 50.2021 79.7235C50.0369 79.6574 49.9625 79.4178 50.0286 79.1369L50.5987 76.7326C50.6483 76.5425 50.7474 76.3525 50.8796 76.2368C50.9292 76.1872 50.9788 76.1542 51.0283 76.1294C51.1192 76.0798 51.2101 76.0716 51.2845 76.1046C52.2264 76.4186 53.4244 76.2699 54.5812 75.6915C56.0519 74.9479 57.0351 73.4441 57.0186 71.9569C57.002 70.6019 56.275 70.0483 54.4985 70.0318C52.2347 70.04 50.1195 69.5939 50.0864 66.2559C50.0616 63.5128 51.4828 60.654 53.7467 58.8528L53.7219 56.1675C53.7219 55.837 53.9202 55.4735 54.1763 55.3413L55.7048 54.3663C55.9527 54.2424 56.1675 54.3994 56.1675 54.7216L56.1923 57.4069C57.316 56.9607 58.291 56.8368 59.175 57.0433C59.3651 57.0929 59.456 57.3573 59.3733 57.663L58.7784 60.0426C58.7289 60.2244 58.6297 60.4061 58.5058 60.5218C58.4597 60.5682 58.4068 60.6072 58.3488 60.6375C58.2662 60.6788 58.1918 60.687 58.1175 60.6788C57.7126 60.5879 56.7542 60.3813 55.2422 61.1415C53.6558 61.9429 53.1022 63.3227 53.1105 64.3473C53.127 65.5701 53.7467 65.9419 55.9114 65.975C58.795 66.0245 60.0343 67.2804 60.0674 70.1805C60.1087 73.0228 58.5884 76.0881 56.2584 77.9554ZM72.6014 73.4855C72.6014 73.7333 72.5683 73.9647 72.3618 74.0803L64.4795 78.8725C64.2729 78.9964 64.1077 78.889 64.1077 78.6412V76.6086C64.1077 76.3607 64.2564 76.2286 64.463 76.1046L72.2296 71.4612C72.4361 71.3372 72.6014 71.4446 72.6014 71.6925V73.4855ZM78.0215 27.9681L48.5249 46.1866C44.8481 48.3348 42.138 50.7474 42.1298 55.1843V91.5304C42.1298 94.1827 43.2039 95.9012 44.8481 96.4052C44.3111 96.4961 43.7575 96.5622 43.2122 96.5622C41.4853 96.5622 39.7833 96.0913 38.2878 95.2072L7.11389 76.6995C4.06508 74.8901 2.173 71.5107 2.173 67.8836V30.8682C2.173 27.241 4.06508 23.8617 7.11389 22.0522L38.296 3.54455C39.7915 2.66048 41.4936 2.18953 43.2204 2.18953C44.9473 2.18953 46.6493 2.66048 48.1448 3.54455L79.3269 22.0522C81.8965 23.5808 83.6316 26.2165 84.1191 29.1827C83.0698 26.9766 80.7398 26.3817 78.0215 27.9681Z" fill="white"/>
</svg>
