<svg width="100" height="79" viewBox="0 0 100 79" fill="none" xmlns="http://www.w3.org/2000/svg">
<path d="M20.9297 0C15.2705 0 11.0878 4.95403 11.2773 10.3224C11.4536 15.4835 11.22 22.1653 9.53635 27.6174C7.84828 33.0827 4.99663 36.547 0.333496 36.9921V42.0079C4.99663 42.453 7.84828 45.9173 9.53635 51.3826C11.22 56.8303 11.4536 63.5165 11.2729 68.6732C11.0878 74.046 15.2705 79 20.9341 79H78.9104C84.5696 79 88.7567 74.046 88.5716 68.6732C88.3909 63.5165 88.6245 56.8303 90.3038 51.3826C91.9962 45.9173 94.8435 42.453 99.5022 42.0079V36.9921C94.8391 36.547 91.9962 33.0827 90.3038 27.6174C88.6245 22.1697 88.3909 15.4835 88.5716 10.3224C88.7567 4.95403 84.5696 0 78.9104 0H20.9297ZM67.5655 48.6279C67.5655 56.0237 62.0517 60.5105 52.8973 60.5105H37.3124C37.0915 60.5111 36.8727 60.4681 36.6684 60.384C36.4642 60.2999 36.2785 60.1763 36.1221 60.0203C35.9657 59.8643 35.8417 59.679 35.757 59.4749C35.6723 59.2709 35.6287 59.0522 35.6287 58.8313V20.1687C35.6287 19.9478 35.6723 19.7291 35.757 19.5251C35.8417 19.321 35.9657 19.1357 36.1221 18.9797C36.2785 18.8237 36.4642 18.7001 36.6684 18.616C36.8727 18.5319 37.0915 18.4889 37.3124 18.4895H52.8048C60.4385 18.4895 65.4499 22.6237 65.4499 28.9749C65.4499 33.4265 62.0781 37.4197 57.7852 38.116V38.3496C63.6296 38.9887 67.5655 43.0392 67.5655 48.6279ZM51.196 23.8137H42.3105V36.3663H49.7944C55.5815 36.3663 58.7681 34.0391 58.7681 29.874C58.7681 25.9734 56.0266 23.8181 51.196 23.8181V23.8137ZM42.3105 41.3467V55.1819H51.5222C57.5472 55.1819 60.7339 52.7622 60.7339 48.218C60.7339 43.6783 57.4591 41.3467 51.1343 41.3467H42.3105Z" fill="white"/>
</svg>
