<svg width="97" height="96" viewBox="0 0 97 96" fill="none" xmlns="http://www.w3.org/2000/svg">
<path d="M48.4554 0C21.9274 0 0.46339 21.468 0.46339 48C0.459182 54.3046 1.69787 60.5482 4.1086 66.3738C6.51934 72.1993 10.0548 77.4925 14.5129 81.9505C18.9709 86.4086 24.2641 89.944 30.0896 92.3548C35.9151 94.7655 42.1588 96.0042 48.4634 96C74.9954 96 96.4634 74.532 96.4634 48C96.4594 21.468 74.8154 0 48.4554 0ZM25.9434 58.3C27.5114 60.392 29.6074 61.268 32.5714 61.268C33.9714 61.268 35.3674 61.092 36.5874 60.568C37.8114 60.048 39.2074 59.344 40.9474 58.3L45.8394 65.28C41.8274 68.6 37.2874 70.168 32.0514 70.168C27.8594 70.168 24.3714 69.296 21.2314 67.552C18.1831 65.7537 15.7489 63.0769 14.2474 59.872C12.6794 56.552 11.8034 52.712 11.8034 48.172C11.8034 43.812 12.6794 39.796 14.2434 36.48C15.7367 33.1765 18.1682 30.3847 21.2354 28.452C24.1994 26.532 27.8634 25.66 31.8794 25.66C34.6754 25.66 37.2914 26.008 39.3874 26.88C41.7389 27.7902 43.9211 29.0882 45.8434 30.72L40.9554 37.352C39.7145 36.4358 38.3674 35.6729 36.9434 35.08C35.7234 34.56 34.1514 34.384 32.7514 34.384C26.8194 34.384 23.8514 38.92 23.8514 48.168C23.6794 52.888 24.5514 56.2 25.9474 58.296L25.9434 58.3ZM73.9434 69.12C72.1994 74.532 69.5794 78.548 65.9114 81.512C62.2474 84.484 57.3594 86.052 51.2514 86.576L50.0314 78.376C54.0434 77.848 57.0114 76.976 58.9314 75.576C59.6274 75.056 61.0274 73.484 61.0274 73.484L46.5394 27.056H58.5794L66.9594 61.788L75.8634 27.056H87.5554L73.9434 69.12Z" fill="white"/>
</svg>
