<svg width="101" height="100" viewBox="0 0 101 100" fill="none" xmlns="http://www.w3.org/2000/svg">
<path d="M24.0322 3H77.1572C88.4445 3 97.5947 12.1502 97.5947 23.4375V76.5625C97.5947 87.8498 88.4445 97 77.1572 97H24.0322C12.7449 97 3.59473 87.8498 3.59473 76.5625V23.4375C3.59473 12.1502 12.7449 3 24.0322 3Z" stroke="white" stroke-width="6"/>
<path d="M85.6963 69.5855C84.676 69.9719 83.5494 69.9712 82.5295 69.5833C81.5097 69.1955 80.6672 68.4475 80.1615 67.4807C76.9848 62.7253 73.4769 58.1845 70.1054 53.5462L68.6434 51.5974C64.6287 56.9763 60.614 62.1407 56.9501 67.5003C56.4729 68.4243 55.676 69.1434 54.708 69.5234C53.7399 69.9035 52.6667 69.9187 51.6883 69.5662L66.7531 49.3562L52.7405 31.0948C53.7492 30.7305 54.8527 30.7255 55.8646 31.0806C56.8766 31.4356 57.735 32.129 58.295 33.0436C61.5495 37.7993 65.1552 42.3401 68.7409 47.154C72.3465 42.379 75.913 37.8186 79.2456 33.1021C79.7254 32.1931 80.5228 31.4922 81.4858 31.1329C82.4489 30.7735 83.5105 30.7808 84.4685 31.1533L79.0311 38.3643C76.595 41.5799 74.1979 44.8151 71.6644 47.9528C71.4602 48.1355 71.2967 48.3593 71.1849 48.6095C71.073 48.8597 71.0151 49.1307 71.0151 49.4048C71.0151 49.6789 71.073 49.9499 71.1849 50.2001C71.2967 50.4503 71.4602 50.674 71.6644 50.8568C76.3223 57.0348 80.941 63.2322 85.6963 69.5855ZM15.5947 49.1028C16.0041 47.154 16.2572 45.0296 16.8226 43.0418C20.1941 31.0562 33.9337 26.0667 43.3858 33.4923C48.9207 37.8386 50.3045 43.997 50.0318 50.9349H18.8495C18.3427 63.33 27.288 70.8136 38.7279 66.9938C40.5836 66.3299 42.2448 65.2144 43.5616 63.7479C44.8783 62.2814 45.8092 60.5101 46.2701 58.5939C46.8744 56.6451 47.8488 56.3138 49.7002 56.8789C49.3954 59.2515 48.5565 61.5241 47.2468 63.5258C45.9371 65.5275 44.1907 67.2063 42.1387 68.4358C38.7485 70.2899 34.8587 71.0245 31.0258 70.5344C27.1929 70.0444 23.6131 68.3549 20.7984 65.7075C18.0137 62.5765 16.3299 58.6203 16.0041 54.4428C16.0041 53.7804 15.7507 53.1176 15.6144 52.494C15.6015 51.3637 15.5949 50.2332 15.5947 49.1028ZM18.8885 48.2648H47.0889C46.9133 39.2805 41.2421 32.9076 33.6806 32.8494C25.2614 32.7324 19.2393 38.9686 18.8688 48.2259L18.8885 48.2648Z" fill="white"/>
</svg>
