<svg width="66" height="94" viewBox="0 0 66 94" fill="none" xmlns="http://www.w3.org/2000/svg">
<path d="M47.759 35.1721H29.7911V0H47.759C57.4556 0 65.343 7.88737 65.343 17.5841C65.343 27.2808 57.4556 35.1721 47.759 35.1721ZM35.5519 29.4112H47.759C54.2795 29.4112 59.5822 24.1047 59.5822 17.588C59.5822 11.0713 54.2756 5.76475 47.759 5.76475H35.5519V29.4112ZM35.5519 35.1721H17.588C7.89129 35.1721 0.00391599 27.2847 0.00391599 17.588C0.00391599 7.89129 7.89129 0 17.588 0H35.5558V35.1721H35.5519ZM17.588 5.76084C11.0674 5.76084 5.76475 11.0674 5.76475 17.5841C5.76475 24.1007 11.0674 29.4112 17.588 29.4112H29.795V5.76084H17.588ZM35.5519 64.5793H17.588C7.89129 64.5793 0.00391599 56.692 0.00391599 46.9953C0.00391599 37.2986 7.89129 29.4112 17.588 29.4112H35.5558V64.5793H35.5519ZM17.588 35.1721C11.0674 35.1721 5.76475 40.4786 5.76475 46.9953C5.76475 53.512 11.0713 58.8185 17.588 58.8185H29.795V35.1721H17.588ZM17.682 93.9906C7.93437 93.9906 0 86.1032 0 76.4065C0 66.7098 7.88738 58.8224 17.5841 58.8224H35.5519V76.2146C35.5519 86.017 27.5353 93.9906 17.682 93.9906ZM17.588 64.5793C14.4535 64.5835 11.4487 65.8305 9.23228 68.0469C7.01589 70.2633 5.7689 73.2681 5.76475 76.4026C5.76475 82.9232 11.1105 88.2258 17.6859 88.2258C24.3631 88.2258 29.7989 82.837 29.7989 76.2107V64.5793H17.588ZM47.759 64.5793H47.3752C37.6785 64.5793 29.7911 56.692 29.7911 46.9953C29.7911 37.2986 37.6785 29.4112 47.3752 29.4112H47.759C57.4556 29.4112 65.343 37.2986 65.343 46.9953C65.343 56.692 57.4556 64.5793 47.759 64.5793ZM47.3791 35.1721C40.8585 35.1721 35.5558 40.4786 35.5558 46.9953C35.5558 53.512 40.8624 58.8185 47.3791 58.8185H47.7629C54.2835 58.8185 59.5861 53.512 59.5861 46.9953C59.5861 40.4786 54.2756 35.1721 47.759 35.1721H47.3791Z" fill="white"/>
</svg>
