<svg width="98" height="98" viewBox="0 0 98 98" fill="none" xmlns="http://www.w3.org/2000/svg">
<path d="M96.1463 44.6308L53.357 1.84556C52.1707 0.663634 50.5644 0 48.8898 0C47.2153 0 45.6089 0.663634 44.4227 1.84556L35.5577 10.7268L46.8278 21.9968C48.1574 21.5464 49.5867 21.4779 50.9533 21.7991C52.32 22.1204 53.5691 22.8185 54.5588 23.8142C55.5485 24.8098 56.2391 26.0631 56.5521 27.4316C56.8652 28.8001 56.7881 30.229 56.3297 31.556L67.1832 42.4176C68.7895 41.8591 70.5378 41.8627 72.1418 42.4278C73.7458 42.9928 75.1103 44.0859 76.0118 45.5278C76.9134 46.9698 77.2985 48.6752 77.104 50.3647C76.9096 52.0541 76.1471 53.6274 74.9416 54.8269C74.2449 55.5247 73.4174 56.0783 72.5065 56.4561C71.5957 56.8338 70.6193 57.0282 69.6332 57.0282C68.6471 57.0282 67.6707 56.8338 66.7599 56.4561C65.849 56.0783 65.0216 55.5247 64.3249 54.8269C63.2808 53.7799 62.5678 52.449 62.2745 50.9998C61.9811 49.5506 62.1205 48.0471 62.6752 46.6766L52.5118 36.5662V63.21C53.2304 63.5612 53.9083 64.0389 54.5044 64.631C55.9028 66.0439 56.6873 67.9515 56.6873 69.9394C56.6873 71.9273 55.9028 73.8348 54.5044 75.2477C53.8051 75.9476 52.9748 76.5029 52.0608 76.8817C51.1468 77.2605 50.1671 77.4555 49.1777 77.4555C48.1883 77.4555 47.2086 77.2605 46.2946 76.8817C45.3807 76.5029 44.5503 75.9476 43.851 75.2477C43.1529 74.552 42.5991 73.7253 42.2212 72.8151C41.8432 71.9049 41.6487 70.929 41.6487 69.9434C41.6487 68.9579 41.8432 67.982 42.2212 67.0718C42.5991 66.1616 43.1529 65.3349 43.851 64.6392C44.5942 63.9042 45.4312 63.3488 46.3214 62.9813V36.0762C45.4048 35.7015 44.5715 35.1487 43.87 34.4498C43.1684 33.7509 42.6124 32.9198 42.2341 32.0046C41.8559 31.0893 41.6629 30.1082 41.6664 29.1179C41.6699 28.1276 41.8698 27.1479 42.2544 26.2354L31.1804 15.1083L1.8375 44.4307C-0.612501 46.9011 -0.612501 50.8987 1.8375 53.3692L44.6309 96.1503C45.2168 96.7368 45.9126 97.202 46.6784 97.5194C47.4442 97.8369 48.265 98.0002 49.094 98.0002C49.923 98.0002 50.7438 97.8369 51.5097 97.5194C52.2755 97.202 52.9712 96.7368 53.5571 96.1503L96.1463 53.5611C96.7339 52.9754 97.2001 52.2795 97.5182 51.5132C97.8363 50.747 98 49.9256 98 49.0959C98 48.2663 97.8363 47.4449 97.5182 46.6786C97.2001 45.9124 96.7339 45.2165 96.1463 44.6308Z" fill="white"/>
</svg>
