<svg width="100" height="80" viewBox="0 0 100 80" fill="none" xmlns="http://www.w3.org/2000/svg">
<path d="M50.6735 0.0102751C41.9924 -0.189356 33.4948 2.52488 26.5368 7.71976C19.5789 12.9146 14.5617 20.2907 12.2863 28.6705C12.0587 28.7204 12.4983 28.5895 12.2863 28.6705C-3.82246 39.2735 -4.01575 62.3782 11.2637 74.1534L11.2793 74.1222L11.2481 74.2532C16.132 77.9329 22.0868 79.9116 28.2017 79.8867H49.7008L49.8317 79.9989H71.4118C99.2116 80.2265 110.382 44.243 87.3584 28.6705C85.3819 21.3554 81.3068 14.779 75.6362 9.75282L75.4585 9.93053L75.4741 9.71853C68.6109 3.66245 59.8303 0.223297 50.6797 0.00715772L50.6735 0.0102751ZM49.1801 17.2538C54.3429 17.0761 59.6522 18.7814 63.6646 22.0269C66.1424 24.0926 68.1247 26.6885 69.465 29.6228C70.8054 32.5571 71.4696 35.7551 71.4087 38.9805V41.141C86.0864 40.8479 86.0864 63.0142 71.4087 62.7211H49.8286L49.7974 62.7523V62.5902H28.2017C26.6741 62.5902 25.1651 62.2659 23.7684 61.633C16.9003 58.531 15.2605 49.5024 20.5854 44.1619C25.9289 38.8371 34.9389 40.4769 38.0565 47.345L50.5768 34.8247C46.4154 29.4004 40.4166 25.6821 33.7074 24.3682C33.7885 24.337 33.8695 24.2716 33.935 24.2871C35.8773 22.1511 38.2298 20.4279 40.8521 19.2201C43.4744 18.0123 46.313 17.3447 49.1988 17.2569L49.1801 17.2538Z" fill="white"/>
</svg>
