<svg width="88" height="98" viewBox="0 0 88 98" fill="none" xmlns="http://www.w3.org/2000/svg">
<path d="M79.1349 9.55522e-05H8.82008C7.66031 -0.00531139 6.51096 0.219133 5.43843 0.660464C4.3659 1.10179 3.39144 1.75126 2.57135 2.57135C1.75126 3.39144 1.10179 4.3659 0.660464 5.43843C0.219133 6.51096 -0.00531153 7.66031 9.54143e-05 8.82008V89.184C-0.00477063 90.3434 0.220073 91.4923 0.661646 92.5644C1.10322 93.6365 1.75277 94.6104 2.57281 95.4301C3.39284 96.2497 4.36712 96.8988 5.43938 97.3399C6.51164 97.781 7.66065 98.0053 8.82008 97.9999H79.1349C80.294 98.0048 81.4426 97.7801 82.5144 97.3387C83.5862 96.8974 84.56 96.2482 85.3796 95.4286C86.1992 94.609 86.8484 93.6352 87.2897 92.5634C87.731 91.4917 87.9557 90.3431 87.9508 89.184V8.82008C87.9568 7.6605 87.7328 6.51125 87.292 5.43874C86.8511 4.36623 86.202 3.39174 85.3822 2.57159C84.5625 1.75145 83.5883 1.10192 82.516 0.660536C81.4437 0.219156 80.2945 -0.00531566 79.1349 9.55522e-05ZM83.0549 89.184C83.0549 91.3849 81.3359 93.104 79.1349 93.104H8.82008C8.30347 93.1106 7.79078 93.0137 7.31221 92.819C6.83364 92.6243 6.39888 92.3358 6.03356 91.9705C5.66823 91.6052 5.37974 91.1704 5.18507 90.6919C4.9904 90.2133 4.8935 89.7006 4.90009 89.184V8.82008C4.90009 6.61508 6.61508 4.896 8.82008 4.896H79.1349C79.6516 4.89053 80.1641 4.98832 80.6425 5.18364C81.1208 5.37895 81.5553 5.66786 81.9204 6.03339C82.2856 6.39893 82.5741 6.83372 82.7689 7.31226C82.9637 7.7908 83.0609 8.30344 83.0549 8.82008V89.184ZM22.0501 83.2958L33.075 73.4999L22.0501 63.7V83.2958ZM61.74 43.61C59.7841 41.65 56.1091 39.2 49.9841 39.2C43.365 39.2 36.505 40.9191 31.6091 42.63V14.7001H21.8091V57.085L28.6691 53.9C28.6691 53.9 39.9391 48.755 49.7391 48.755C54.6391 48.755 55.8641 51.45 55.8641 53.9V83.2999H65.6641V53.9C65.905 53.1691 65.905 47.7709 61.74 43.61ZM48.755 30.625H58.555C62.965 25.48 65.17 20.331 65.905 14.7001H56.1091C55.125 20.331 52.675 25.48 48.755 30.625Z" fill="white"/>
</svg>
