<svg width="97" height="97" viewBox="0 0 97 97" fill="none" xmlns="http://www.w3.org/2000/svg">
<path d="M55.6888 70.3519L51.0651 76.7539C55.4517 80.6663 60.9052 82.6225 67.4258 82.6225C72.4051 82.5039 76.1989 81.2213 78.8071 78.7694C81.4585 76.2797 82.7787 73.3158 82.7787 69.8777C82.7787 66.5204 81.8518 63.7506 79.9927 61.5788C78.1389 59.4071 75.0133 57.6665 70.6268 56.3624C66.9947 55.2577 64.4296 54.2499 62.9207 53.3392C61.4226 52.3908 60.6681 51.2429 60.6681 49.9011C60.6681 48.6778 61.2824 47.6917 62.5057 46.9372C63.7344 46.1828 65.3726 45.8109 67.4258 45.8109C68.9347 45.8109 70.6268 46.1073 72.5237 46.7001C74.4206 47.2121 76.1019 48.0473 77.5623 49.1898L81.7117 42.7285C78.0796 39.8023 73.2566 38.3419 67.2479 38.3419C62.9422 38.3419 59.4071 39.4467 56.6372 41.6615C53.7919 43.8709 52.3692 46.6193 52.3692 49.9011C52.4123 53.3769 53.5548 56.0876 55.8073 58.0222C58.103 59.9622 61.3579 61.5411 65.5882 62.7644C69.1071 63.8691 71.4998 64.9738 72.7608 66.0839C73.3433 66.5805 73.8097 67.1989 74.1272 67.8953C74.4447 68.5918 74.6056 69.3494 74.5984 70.1148C74.6279 70.8157 74.4745 71.5122 74.1532 72.1358C73.832 72.7594 73.354 73.2886 72.7662 73.6715C71.4998 74.5391 69.6783 74.9756 67.3072 74.9756C63.438 75.0133 59.5634 73.4721 55.6888 70.3519ZM25.8882 73.7901C24.5867 72.9702 23.4588 71.9028 22.5687 70.6483L16.9966 75.2127C18.6563 78.015 20.7149 79.9765 23.1614 81.0812C25.4517 82.1051 28.0815 82.6225 31.0454 82.6225C32.6621 82.6225 34.3434 82.3638 36.084 81.8518C37.8483 81.3253 39.4835 80.437 40.8855 79.2436C43.456 77.1904 44.7978 73.8278 44.9164 69.1664V39.0533H36.9139V67.6252C36.9139 70.3519 36.2996 72.2704 35.0817 73.3751C33.853 74.4421 32.3118 74.9756 30.4526 74.9756C28.6743 74.9756 27.1546 74.5822 25.8882 73.7901ZM0 16.1667C0 11.879 1.70327 7.76695 4.73511 4.73511C7.76695 1.70327 11.879 0 16.1667 0H80.8333C85.121 0 89.2331 1.70327 92.2649 4.73511C95.2967 7.76695 97 11.879 97 16.1667V80.8333C97 85.121 95.2967 89.2331 92.2649 92.2649C89.2331 95.2967 85.121 97 80.8333 97H16.1667C11.879 97 7.76695 95.2967 4.73511 92.2649C1.70327 89.2331 0 85.121 0 80.8333V16.1667ZM16.1667 10.7778C14.7374 10.7778 13.3668 11.3455 12.3561 12.3561C11.3455 13.3668 10.7778 14.7374 10.7778 16.1667V80.8333C10.7778 82.2626 11.3455 83.6332 12.3561 84.6439C13.3668 85.6545 14.7374 86.2222 16.1667 86.2222H80.8333C82.2626 86.2222 83.6332 85.6545 84.6439 84.6439C85.6545 83.6332 86.2222 82.2626 86.2222 80.8333V16.1667C86.2222 14.7374 85.6545 13.3668 84.6439 12.3561C83.6332 11.3455 82.2626 10.7778 80.8333 10.7778H16.1667Z" fill="white"/>
</svg>
