<svg width="97" height="96" viewBox="0 0 97 96" fill="none" xmlns="http://www.w3.org/2000/svg">
<path d="M93.5598 47.1854C93.5598 41.4157 89.1883 36.5605 83.3197 35.1751L96.4634 0H31.3263L44.5 35.2861C38.8159 36.7832 34.6259 41.5537 34.6259 47.2146C34.6259 51.3746 36.9197 55.0635 40.4038 57.3377C39.0297 59.1132 37.4387 60.7506 35.6363 62.3032C32.2437 65.1896 28.4813 67.4076 24.4173 68.8785C20.7494 66.6312 19.1608 62.664 20.5964 59.1124C26.1898 57.5597 30.2575 52.8162 30.2575 47.2409C30.2575 40.3904 24.1128 34.8405 16.591 34.8405C9.04066 34.8405 2.89974 40.4166 2.89974 47.2694C2.89974 50.6545 4.42616 53.7598 6.87292 55.9778C6.6584 56.3679 6.44537 56.7541 6.23085 57.1704C4.18313 61.0004 1.85938 65.3276 0.971281 70.1829C-0.801161 79.8897 2.1024 87.6867 9.10216 92.0965C13.0461 94.5665 17.3883 95.8146 22.0651 95.8146C30.1014 95.8146 38.2646 92.152 46.1494 88.6003C51.775 86.0778 57.5822 83.4405 63.2985 82.1661C65.4085 81.6944 67.6085 81.4161 69.9323 81.1115C74.6375 80.5017 79.4988 79.8634 83.8703 77.5607C88.9746 74.8709 92.4587 70.3756 93.4691 65.2166C94.2304 61.2486 93.4691 57.2552 91.5113 53.7598C92.8486 51.8285 93.5639 49.5344 93.5598 47.1854ZM87.6004 47.1854C87.6004 51.0408 84.1455 54.1761 79.8971 54.1761C75.6486 54.1761 72.1937 51.0408 72.1937 47.1854C72.1937 45.9365 72.5605 44.7446 73.2019 43.7185C73.4456 43.3284 73.7532 42.9422 74.057 42.6084C74.379 42.2651 74.7379 41.9584 75.1273 41.694L75.1596 41.6648C75.4026 41.4982 75.6779 41.331 75.9532 41.1667C75.9532 41.1667 75.9832 41.1667 75.9832 41.1375C76.1054 41.082 76.2284 40.9994 76.3522 40.9439C76.3815 40.9439 76.4107 40.9147 76.4422 40.9147C76.566 40.8622 76.7182 40.8067 76.8698 40.7504C77.0144 40.6999 77.1573 40.6444 77.298 40.5839C77.3281 40.5839 77.3596 40.5539 77.3888 40.5539C77.5118 40.5284 77.6348 40.4721 77.7556 40.4459C77.7879 40.4459 77.8494 40.4166 77.8786 40.4166C78.0309 40.3904 78.1539 40.3611 78.3062 40.3341H78.3384L78.796 40.2494C78.8275 40.2494 78.886 40.2494 78.9182 40.2231C79.0412 40.2231 79.162 40.1939 79.285 40.1939H79.4373C79.5896 40.1939 79.7448 40.1676 79.9263 40.1676H80.3246C80.4446 40.1676 80.5392 40.1676 80.6592 40.1939H80.7207C80.9667 40.2239 81.2097 40.2494 81.4557 40.3056C84.9399 40.9702 87.6004 43.801 87.6004 47.1854ZM39.8525 5.54685H87.9342L76.8998 35.0903C76.4422 35.1751 75.9824 35.3123 75.5256 35.4503L63.9114 13.953L52.2641 35.3116C51.8043 35.1743 51.3152 35.0896 50.8284 35.007L39.8525 5.54685ZM61.7076 44.7701C61.1278 42.1621 59.6599 39.8331 57.5822 38.1131L63.9114 26.5191L70.2983 38.3622C68.4028 40.0821 67.0279 42.2738 66.4774 44.7701H61.7076ZM46.3955 40.3896C46.5477 40.3596 46.6707 40.3341 46.823 40.3049H46.9138C47.0368 40.2786 47.1605 40.2786 47.2806 40.2486H47.4036C47.5266 40.2486 47.6173 40.2224 47.7403 40.2224H48.933C49.053 40.2224 49.1468 40.2486 49.2375 40.2486C49.2901 40.2439 49.3429 40.2543 49.3898 40.2786C49.5128 40.3049 49.6036 40.3049 49.7273 40.3341C49.7558 40.3341 49.7881 40.3341 49.8496 40.3604C50.0026 40.3896 50.1549 40.4159 50.2771 40.4451H50.3071C50.4301 40.4714 50.5532 40.4976 50.6732 40.5539C50.7054 40.5539 50.7347 40.5831 50.7962 40.5831C50.8869 40.6094 51.01 40.6387 51.1007 40.6942C51.133 40.6942 51.1622 40.7204 51.1945 40.7204C51.3145 40.7767 51.4383 40.8059 51.5613 40.8614H51.5905C51.7428 40.9139 51.8658 40.9694 51.9888 41.0549H52.0188C52.1411 41.1105 52.2641 41.1922 52.3871 41.2477C52.4171 41.2477 52.4171 41.2777 52.4456 41.2777C52.5686 41.3302 52.6601 41.415 52.7831 41.4705L52.8154 41.4967C53.1814 41.7465 53.5182 42.0248 53.852 42.3031L53.8843 42.3293C54.1896 42.6339 54.4941 42.9677 54.7401 43.3284C55.5344 44.4386 55.9942 45.743 55.9942 47.1576C55.9942 51.0138 52.5394 54.1461 48.2909 54.1461C44.0424 54.1461 40.5876 51.0138 40.5876 47.1576C40.5561 43.9113 43.0321 41.166 46.3955 40.3896ZM16.3157 40.1931C20.5649 40.1931 24.019 43.3284 24.019 47.1839C24.019 51.04 20.5649 54.1746 16.3157 54.1746C12.0672 54.1746 8.61236 51.04 8.61236 47.1839C8.61236 43.3284 12.0672 40.1931 16.3157 40.1931ZM87.4159 64.246C86.7446 67.7938 84.3271 70.9029 80.7822 72.7601C77.4503 74.5093 73.3541 75.0629 69.0442 75.6172C66.6919 75.9217 64.2159 76.2555 61.8306 76.7828C55.4729 78.1982 49.3605 80.9728 43.4304 83.6333C35.8501 87.0469 28.695 90.264 22.0651 90.264C18.6102 90.264 15.5221 89.3767 12.5893 87.5187C5.86481 83.3025 6.1986 75.3974 6.99593 71.0695C7.72801 67.0175 9.77649 63.2176 11.7334 59.5842C11.8535 59.3614 11.9472 59.1679 12.0672 58.9451C12.7416 59.1679 13.4444 59.3352 14.1772 59.4462C13.0168 65.3268 16.3157 71.401 22.7356 74.3983L23.8983 74.9519L25.1502 74.5356C30.5005 72.8156 35.4518 70.0148 39.8232 66.2697C42.2993 64.1604 44.4092 61.887 46.1817 59.4169C46.8845 59.5287 47.5881 59.558 48.2909 59.558C54.6493 59.558 59.9967 55.59 61.5261 50.2637H66.6597C68.1891 55.617 73.5387 59.5572 79.8971 59.5572C82.4346 59.5572 84.7876 58.9196 86.8031 57.838C87.6004 59.918 87.8435 62.0805 87.4159 64.246Z" fill="white"/>
</svg>
