<svg width="46" height="100" viewBox="0 0 46 100" fill="none" xmlns="http://www.w3.org/2000/svg">
<path fill-rule="evenodd" clip-rule="evenodd" d="M44.8251 43.6884C44.5185 39.7195 43.5856 35.8923 42.288 32.143C39.6001 23.7711 35.2865 16.3619 29.2106 9.98684C27.6744 8.37443 25.9659 6.89708 24.8945 4.89026C24.2167 3.62088 23.5713 2.3341 22.9109 1.05478L22.4925 0C22.422 0.241945 22.3773 0.328117 22.3748 0.415118C22.3209 2.50065 21.1394 3.91503 19.6678 5.23495C18.0132 6.72059 16.4728 8.333 14.8828 9.8899L9.99337 16.3221C8.67428 18.7457 7.35684 21.1693 6.0394 23.5929L3.39624 30.7328L3.3167 30.8438C1.86171 35.623 1.14416 40.5365 0.791191 45.4997C0.658618 47.3648 0.809418 49.2573 0.914647 51.1323C1.06462 53.8128 1.53028 56.4477 2.22877 59.0411C4.76588 68.4637 9.91466 76.2797 16.9534 82.9199C18.2617 84.1536 19.604 85.2755 20.9695 86.4496C21.2032 85.6501 21.3896 84.8505 21.6017 84.0509C21.8139 83.2546 22.0285 82.4625 22.1718 81.6638C22.0276 82.4625 21.8661 83.2546 21.7061 84.0509L21.0217 86.4496L21.6332 88.5219L22.2 91.7401L22.4701 95.0983C22.4676 95.7802 22.4403 96.4638 22.4817 97.1449C22.4916 97.3189 22.7203 97.4797 22.8479 97.647L23.988 98.0472L25.1762 98.5096L24.9724 95.5242L24.9633 92.5844L25.3734 88.106L25.6709 87.1307L26.5218 85.6227C27.5725 84.7776 28.7002 84.0103 29.6572 83.0699C31.3889 81.368 33.1165 79.6445 34.6659 77.7811C36.6827 75.3657 38.4047 72.7188 39.7956 69.8963C40.7253 68.0038 41.6003 66.0733 42.3245 64.0954C42.9625 62.3521 43.3577 60.5201 43.8606 58.7271C43.9054 58.5978 43.965 58.4711 43.9932 58.3393C45.0323 53.4996 45.2071 48.611 44.8251 43.6884Z" fill="white"/>
</svg>
