<svg width="100" height="100" viewBox="0 0 100 100" fill="none" xmlns="http://www.w3.org/2000/svg">
<path d="M72.3138 34.6645L72.2773 34.649C72.2568 34.641 72.2359 34.6335 72.2174 34.6151C72.1873 34.5831 72.165 34.5446 72.1524 34.5025C72.1397 34.4605 72.137 34.4161 72.1445 34.3728L74.1582 22.0609L83.6023 31.507L73.7807 35.6859C73.7534 35.6968 73.7242 35.7021 73.6948 35.7014H73.6558C73.6365 35.689 73.6189 35.6742 73.6034 35.6574C73.2379 35.2503 72.8008 34.9138 72.3138 34.6645ZM86.0117 33.9143L96.1096 44.0117C98.2067 46.1119 99.2566 47.1587 99.6397 48.3729C99.6966 48.5527 99.7435 48.7325 99.78 48.9173L75.6486 38.6976L75.6096 38.6816C75.5133 38.6426 75.4009 38.5982 75.4009 38.4993C75.4009 38.4004 75.5158 38.3534 75.6121 38.3145L75.6431 38.3015L86.0117 33.9143ZM99.3685 52.1582C98.8475 53.1376 97.8316 54.154 96.112 55.8756L84.7276 67.2576L70.0033 64.1915L69.9249 64.176C69.7946 64.155 69.6567 64.1315 69.6567 64.0141C69.6007 63.4068 69.4202 62.8175 69.1266 62.2828C68.833 61.7482 68.4325 61.2798 67.9501 60.9066C67.8902 60.8466 67.9061 60.7527 67.9241 60.6668C67.9241 60.6538 67.9241 60.6409 67.9296 60.6304L70.6986 43.6291L70.7091 43.5717C70.725 43.4413 70.748 43.2905 70.8654 43.2905C71.4589 43.2167 72.0318 43.0255 72.5506 42.728C73.0695 42.4306 73.524 42.0328 73.8876 41.5579C73.911 41.5319 73.9265 41.503 73.958 41.4875C74.0414 41.4485 74.1403 41.4875 74.2262 41.5239L99.366 52.1582H99.3685ZM82.1095 69.8757L63.3886 88.5965L66.5931 68.9018L66.5981 68.8753C66.6008 68.8497 66.6061 68.8244 66.6141 68.7999C66.64 68.7374 66.7075 68.7115 66.7729 68.6855L66.8039 68.6725C67.5055 68.373 68.1262 67.9114 68.6149 67.3255C68.6773 67.2526 68.7527 67.1821 68.8491 67.1692C68.8741 67.1652 68.8995 67.1652 68.9245 67.1692L82.1065 69.8787L82.1095 69.8757ZM59.426 92.5592L57.3158 94.6693L33.9865 60.953L33.9606 60.9166C33.9246 60.8671 33.8856 60.8177 33.8931 60.7602C33.8956 60.7188 33.9216 60.6823 33.9506 60.6508L33.9765 60.6174C34.0465 60.513 34.1064 60.4086 34.1718 60.2967L34.2238 60.2053L34.2318 60.1978C34.2682 60.1354 34.3017 60.0755 34.3646 60.0415C34.4196 60.0155 34.4945 60.026 34.5544 60.039L60.4004 65.3691C60.4728 65.3802 60.5411 65.4098 60.5987 65.4551C60.6327 65.489 60.6401 65.5255 60.6481 65.5669C60.8284 66.249 61.1639 66.8803 61.6285 67.4113C62.0931 67.9423 62.6741 68.3587 63.3262 68.6281C63.3991 68.6645 63.3676 68.7454 63.3342 68.8313C63.3172 68.8688 63.3042 68.9082 63.2947 68.9487C62.9691 70.9285 60.1767 87.9607 59.426 92.5592ZM55.0183 96.9643C53.4631 98.5041 52.5461 99.3192 51.5092 99.6479C50.4868 99.971 49.3896 99.971 48.3672 99.6479C47.1535 99.2623 46.1037 98.2149 44.0065 96.1153L20.5783 72.6871L26.6976 63.196C26.7236 63.1485 26.7591 63.1069 26.802 63.0737C26.8669 63.0267 26.9608 63.0477 27.0392 63.0737C28.4436 63.4977 29.9515 63.4213 31.306 62.8574C31.3764 62.8314 31.4468 62.8135 31.5018 62.8629C31.5287 62.8879 31.5532 62.9159 31.5747 62.9463L55.0183 96.9668V96.9643ZM18.3193 70.4281L12.9452 65.054L23.5585 60.526C23.5856 60.5141 23.6149 60.5079 23.6444 60.508C23.7328 60.508 23.7853 60.5964 23.8322 60.6773C23.9386 60.8411 24.052 61.001 24.1709 61.1563L24.2043 61.1982C24.2358 61.2422 24.2148 61.2867 24.1838 61.3286L18.3218 70.4281H18.3193ZM10.5664 62.6751L3.76685 55.8756C2.61012 54.7189 1.77155 53.8803 1.18769 53.1586L21.8624 57.4469L21.9408 57.4599C22.0682 57.4803 22.209 57.5038 22.209 57.6237C22.209 57.754 22.0552 57.814 21.9248 57.8634L21.8649 57.8894L10.5664 62.6751ZM0 49.6625C0.023691 49.2244 0.102561 48.7912 0.234741 48.3729C0.619816 47.1587 1.66716 46.1119 3.76685 44.0117L12.4683 35.3108C16.4747 41.1251 20.492 46.9321 24.52 52.7316C24.5899 52.825 24.6683 52.9294 24.5874 53.0073C24.2073 53.4268 23.8267 53.8853 23.5585 54.3833C23.5294 54.4472 23.4845 54.5027 23.4282 54.5446C23.3942 54.5656 23.3583 54.5576 23.3183 54.5496H23.3133L0 49.66V49.6625ZM14.7972 32.9819L26.4968 21.2818C27.5966 21.7637 31.5982 23.4544 35.1772 24.9657C37.8867 26.1119 40.3565 27.1538 41.1327 27.4929C41.2111 27.5239 41.2815 27.5553 41.315 27.6333C41.3359 27.6802 41.3254 27.7401 41.315 27.7896C41.1303 28.6341 41.1581 29.5113 41.3959 30.3424C41.6337 31.1736 42.0741 31.9327 42.6775 32.5518C42.7559 32.6302 42.6775 32.7416 42.61 32.8385L42.5736 32.8934L30.6942 51.2932C30.6678 51.3451 30.6293 51.3898 30.5818 51.4235C30.5194 51.4625 30.431 51.4445 30.358 51.426C29.8959 51.305 29.4208 51.2403 28.9431 51.2332C28.5161 51.2332 28.0521 51.3116 27.5836 51.3976H27.5806C27.5287 51.4055 27.4817 51.4155 27.4403 51.3846C27.3941 51.347 27.3545 51.3021 27.3229 51.2517L14.7972 32.9819ZM28.8602 18.9189L44.0065 3.77255C46.1037 1.67537 47.1535 0.626021 48.3672 0.242444C49.3896 -0.0808147 50.4868 -0.0808147 51.5092 0.242444C52.7234 0.625522 53.7732 1.67586 55.8704 3.77255L59.1528 7.05493L48.3802 23.7385C48.3536 23.787 48.3174 23.8295 48.2738 23.8634C48.2084 23.9084 48.1175 23.8899 48.039 23.8634C47.1897 23.6056 46.2904 23.5587 45.4188 23.7267C44.5473 23.8946 43.7298 24.2724 43.0371 24.8273C42.9666 24.9003 42.8627 24.8588 42.7738 24.8199C41.3674 24.2075 30.4255 19.5836 28.8602 18.9189ZM61.4403 9.34241L71.3863 19.2889L68.9899 34.1331V34.172C68.9875 34.206 68.9805 34.2394 68.969 34.2714C68.943 34.3234 68.8905 34.3339 68.8386 34.3493C68.3262 34.5045 67.8437 34.745 67.4112 35.0606C67.3925 35.0739 67.3749 35.0887 67.3587 35.105C67.3303 35.136 67.3018 35.1649 67.2549 35.1699C67.2166 35.1712 67.1784 35.1651 67.1425 35.152L51.9857 28.7121L51.9572 28.6986C51.8608 28.6596 51.7465 28.6127 51.7465 28.5138C51.6572 27.6691 51.3813 26.8549 50.9388 26.1299C50.8659 26.01 50.785 25.8852 50.8475 25.7628L61.4403 9.34241ZM51.1966 31.7627L65.4049 37.7806C65.4833 37.817 65.5692 37.8505 65.6032 37.9314C65.6167 37.9798 65.6167 38.0313 65.6032 38.0797C65.5546 38.305 65.5284 38.5345 65.5248 38.765V39.1635C65.5248 39.2629 65.4234 39.3044 65.3295 39.3433L65.301 39.3538C63.05 40.3153 33.7003 52.8305 33.6559 52.8305C33.6119 52.8305 33.565 52.8305 33.5205 52.786C33.4426 52.7081 33.5205 52.5987 33.5905 52.4993C33.6035 52.4824 33.6154 52.4649 33.6274 52.4474L45.3036 34.3673L45.3245 34.3364C45.3925 34.2265 45.4704 34.1046 45.5952 34.1046L45.7126 34.1226C45.9783 34.1591 46.2131 34.193 46.4498 34.193C48.2213 34.193 49.8625 33.331 50.8524 31.8561C50.8763 31.8169 50.9063 31.7819 50.9413 31.7522C51.0118 31.6998 51.1156 31.7267 51.1966 31.7627ZM34.9245 55.6908L66.9162 42.0479C66.9162 42.0479 66.9632 42.0479 67.0071 42.0918C67.1819 42.2666 67.3303 42.3835 67.4736 42.4929L67.544 42.5373C67.609 42.5738 67.6744 42.6157 67.6794 42.6832C67.6794 42.7091 67.6794 42.7251 67.6744 42.7486L64.9334 59.583L64.9229 59.6505C64.9049 59.7808 64.8865 59.9296 64.7641 59.9296C64.0334 59.9785 63.3256 60.2051 62.7023 60.5896C62.079 60.9742 61.559 61.5051 61.1875 62.1362L61.1741 62.1567C61.1376 62.2166 61.1041 62.2741 61.0442 62.3055C60.9893 62.3315 60.9188 62.321 60.8619 62.308L35.3495 57.0453C35.3236 57.0403 34.953 55.6933 34.9245 55.6908Z" fill="white"/>
</svg>
