<svg width="101" height="100" viewBox="0 0 101 100" fill="none" xmlns="http://www.w3.org/2000/svg">
<path d="M74.8145 93.7521C74.4436 93.948 74.4645 94.0271 74.8353 93.8396C74.9439 93.793 75.0428 93.7266 75.127 93.6438C75.127 93.5771 75.1187 93.5854 74.8145 93.7521ZM75.5562 93.3604C75.3812 93.4979 75.3812 93.5063 75.5937 93.3979C75.7104 93.3396 75.8104 93.2729 75.8104 93.2521C75.8104 93.1729 75.7604 93.1938 75.5562 93.3604ZM76.0437 93.0646C75.8687 93.2021 75.8687 93.2104 76.0812 93.1021C76.1979 93.0438 76.2979 92.9771 76.2979 92.9563C76.2979 92.8771 76.2479 92.8979 76.0437 93.0646ZM76.5312 92.7729C76.3562 92.9104 76.3562 92.9187 76.5687 92.8104C76.6854 92.7521 76.7854 92.6854 76.7854 92.6646C76.7854 92.5854 76.7354 92.6062 76.5312 92.7729ZM77.2062 92.3354C76.8646 92.5521 76.7562 92.6979 77.0604 92.5312C77.2771 92.4062 77.6271 92.1395 77.5688 92.1312C77.441 92.1861 77.3194 92.2545 77.2062 92.3354ZM47.3175 0.014868C47.1008 0.0357022 46.4175 0.102372 45.8008 0.152374C31.6002 1.43159 18.2955 9.09441 9.87011 20.8741C5.21226 27.3395 2.18465 34.8342 1.04475 42.7208C0.644729 45.4668 0.594727 46.2793 0.594727 50.0045C0.594727 53.7296 0.644729 54.538 1.04475 57.2881C3.76153 76.0639 17.1246 91.8395 35.2462 97.6856C38.4921 98.7315 41.9131 99.444 45.8008 99.8732C47.3175 100.04 53.8636 100.04 55.3803 99.8732C62.0931 99.1315 67.785 97.4689 73.3936 94.6063C74.252 94.1646 74.4186 94.048 74.302 93.9521C71.5623 90.3323 68.8483 86.6931 66.16 83.035L58.1638 72.2345L48.1467 57.4089C44.8161 52.4481 41.4534 47.5089 38.0588 42.5916C38.0213 42.5833 37.9796 49.1711 37.9629 57.2131C37.9338 71.297 37.9254 71.8637 37.7463 72.1971C37.5762 72.5865 37.2715 72.9016 36.8879 73.0846C36.5754 73.2429 36.3004 73.2721 34.8253 73.2721H33.1336L32.6836 72.9887C32.4059 72.8138 32.1801 72.5678 32.0294 72.2762L31.8252 71.8345L31.846 52.2379L31.8752 32.6329L32.1794 32.2537C32.3837 32.0136 32.6293 31.8118 32.9044 31.6579C33.3044 31.462 33.4628 31.4412 35.1545 31.4412C37.1504 31.4412 37.4796 31.5203 38.0004 32.087C42.0554 38.1216 46.0764 44.1789 50.0634 50.2586C56.5554 60.1007 65.4266 73.5388 69.7893 80.139L77.7063 92.1312L78.1063 91.8687C81.9158 89.3348 85.37 86.3037 88.3776 82.8558C94.6777 75.6458 98.7635 66.771 100.145 57.2964C100.545 54.5505 100.595 53.7379 100.595 50.0128C100.595 46.2876 100.545 45.4793 100.145 42.7291C97.4279 23.9534 84.0649 8.17771 65.9433 2.33163C62.5567 1.25345 59.0691 0.523259 55.5345 0.152374C54.597 0.0565364 48.1342 -0.0518015 47.3258 0.0273685L47.3175 0.014868ZM67.785 30.2578C68.0181 30.3749 68.2254 30.5373 68.395 30.7355C68.5646 30.9337 68.6929 31.1637 68.7726 31.412C68.8517 31.6662 68.8684 37.0998 68.8517 49.3461L68.8226 66.9218L65.7224 62.1716L62.614 57.4214V44.6459C62.614 36.3872 62.6515 31.7454 62.7098 31.5203C62.7805 31.2607 62.9024 31.0177 63.0685 30.8059C63.2345 30.5941 63.4412 30.4176 63.6765 30.287C64.0765 30.0828 64.2224 30.062 65.7599 30.062C67.2058 30.062 67.46 30.0828 67.785 30.2578Z" fill="white"/>
</svg>
