<svg width="84" height="95" viewBox="0 0 84 95" fill="none" xmlns="http://www.w3.org/2000/svg">
<path d="M80.2172 20.932L45.7305 0.928125C43.5578 -0.309375 40.7117 -0.309375 38.5219 0.928125L3.76562 20.932C1.52422 22.2219 0 24.6461 0 27.2391V67.1938C0 69.7867 1.55625 72.2117 3.79844 73.5086L12.9617 78.7336C17.3578 80.8992 18.5758 80.8992 20.5758 80.8992C27.0867 80.8992 30.468 76.9625 30.468 70.0961V30.6508C30.4688 30.0937 30.8164 29.2648 30.2687 29.2648H25.8766C25.3203 29.2648 24.2188 30.0937 24.2188 30.65V70.0953C24.2188 73.1391 21.3938 76.168 16.2484 73.5953L6.77813 68.1164C6.44844 67.9367 6.25 67.575 6.25 67.1938V27.2391C6.25 26.8625 6.61172 26.4844 6.94609 26.2914L41.6164 6.32188C41.7866 6.23145 41.9764 6.18417 42.1691 6.18417C42.3619 6.18417 42.5517 6.23145 42.7219 6.32188L77.068 26.2867C77.3969 26.4844 77.3445 26.8508 77.3445 27.2391V67.1938C77.3445 67.575 77.4164 67.9461 77.0922 68.1297L42.6133 88.1109C42.318 88.2883 41.9336 88.2883 41.6094 88.1109L32.768 82.8383C32.5016 82.6836 32.1805 82.6281 31.9242 82.7711C29.4672 84.1641 29.0109 84.3492 26.7062 85.1484C26.1383 85.3461 25.3008 85.6891 27.025 86.6555L38.5859 93.4945C39.6896 94.1322 40.9418 94.4679 42.2164 94.468C43.496 94.47 44.7535 94.1342 45.8617 93.4945L80.218 73.5086C82.4609 72.2023 83.5945 69.7867 83.5945 67.1938V27.2391C83.5938 24.6461 82.4602 22.2281 80.2172 20.932ZM52.9117 60.8625C43.75 60.8625 41.7328 58.3352 41.0602 53.7797C40.9805 53.2891 40.5648 52.7023 40.0648 52.7023H35.5883C35.0344 52.7023 34.5883 53.3742 34.5883 53.9258C34.5883 59.7586 37.7602 66.8258 52.9117 66.8258C63.8789 66.8258 70.168 62.5641 70.168 55.0219C70.168 47.5438 65.1156 45.5812 54.4789 44.1734C43.7273 42.7523 42.6352 42.0344 42.6352 39.5156C42.6352 37.4391 43.5602 34.6695 51.5211 34.6695C58.6336 34.6695 61.2555 36.1961 62.3344 40.9906C62.4273 41.4414 62.8391 41.7648 63.3039 41.7648H67.7992C68.0758 41.7648 68.3391 41.6531 68.5328 41.4555C68.7211 41.243 68.8195 40.9766 68.7953 40.6906C68.0977 32.4336 62.6133 28.5859 51.5203 28.5859C41.6516 28.5859 35.7656 32.7531 35.7656 39.7383C35.7656 47.3148 41.6227 49.4086 51.0953 50.3453C62.4273 51.4562 63.3086 53.1125 63.3086 55.3414C63.3086 59.2133 60.2008 60.8625 52.9117 60.8625Z" fill="white"/>
</svg>
