<svg width="95" height="93" viewBox="0 0 95 93" fill="none" xmlns="http://www.w3.org/2000/svg">
<path d="M38.9896 32.2732C37.525 31.677 35.9417 31.4385 34.3187 31.4783C33.2896 31.4783 32.3792 31.4783 31.6271 31.518C30.8354 31.4783 30.2812 31.518 30.0042 31.5578V44.9122C30.5583 44.9519 31.0729 44.9917 31.5479 44.9917H33.6458C35.1896 44.9917 36.7333 44.7532 38.1979 44.2762C39.4646 43.9185 40.5729 43.1634 41.4437 42.1698C42.275 41.1761 42.6708 39.8248 42.6708 38.076C42.7104 36.8439 42.3937 35.6118 41.7604 34.5387C41.1004 33.5067 40.1297 32.7131 38.9896 32.2732ZM78.1771 0H16.8229C7.52083 0 0 7.55161 0 16.8917V76.1083C0 85.4484 7.52083 93 16.8229 93H78.1771C87.4792 93 95 85.4484 95 76.1083V16.8917C95 7.55161 87.4792 0 78.1771 0ZM48.921 46.3033C47.3417 48.529 45.125 50.1983 42.5521 51.1522C39.8604 52.1458 36.8917 52.5035 33.6458 52.5035C32.6958 52.5035 32.0625 52.5035 31.6667 52.4638C31.2708 52.424 30.7167 52.424 29.9646 52.424V65.1783C30.0042 65.4565 29.8062 65.699 29.5292 65.7387H21.85C21.5333 65.7387 21.375 65.5758 21.375 65.218V24.3241C21.375 24.0459 21.4937 23.8869 21.7708 23.8869C22.4438 23.8869 23.0771 23.8869 23.9875 23.8472C24.9375 23.8074 25.9271 23.8074 26.9958 23.7677C28.0646 23.7279 29.2125 23.7279 30.4396 23.6882C31.6667 23.6484 32.8542 23.6484 34.0417 23.6484C37.2875 23.6484 39.9792 24.0459 42.1958 24.8805C44.175 25.5562 45.9958 26.6691 47.5 28.1397C48.7667 29.4115 49.7562 30.9616 50.3896 32.6706C50.9794 34.3399 51.296 36.049 51.296 37.8375C51.3 41.2556 50.5083 44.0775 48.921 46.3033ZM76.9896 61.7642C75.8812 63.354 74.3335 64.5821 72.5563 65.3055C70.6167 66.1362 68.2417 66.5694 65.3877 66.5694C63.5708 66.5694 61.7856 66.4144 60.0083 66.0567C58.6229 65.8142 57.2375 65.381 55.9708 64.7848C55.6937 64.6298 55.4919 64.3516 55.5315 64.0336V57.118C55.5315 57.0027 55.575 56.8397 55.6937 56.7602C55.8085 56.6808 55.9312 56.7205 56.05 56.8C57.5938 57.7141 59.2167 58.354 60.9583 58.7475C62.4585 59.145 64.0419 59.3437 65.6292 59.3437C67.1333 59.3437 68.2021 59.141 68.9146 58.7833C69.5479 58.5051 69.9833 57.8294 69.9833 57.114C69.9833 56.5536 69.6667 56.0409 69.0333 55.5242C68.4 55.0115 67.0977 54.4153 65.1581 53.6522C63.1394 52.9367 61.2829 51.9829 59.5373 50.7945C58.2987 49.9037 57.2703 48.7504 56.525 47.4161C55.8959 46.1586 55.5846 44.765 55.6185 43.3581C55.6185 41.6491 56.0935 40.0195 56.9683 38.549C57.9579 36.9591 59.4185 35.6873 61.1206 34.8924C62.9771 33.9425 65.3125 33.5053 68.1229 33.5053C69.7458 33.5053 71.4083 33.6245 73.0312 33.863C74.2188 34.022 75.3667 34.3399 76.4354 34.7771C76.5898 34.8169 76.7521 34.9759 76.8312 35.1348C76.8708 35.2938 76.9104 35.4528 76.9104 35.6118V42.0903C76.9104 42.2492 76.8312 42.4082 76.7125 42.4877C76.3562 42.5672 76.1583 42.5672 76 42.4877C74.8125 41.8518 73.5458 41.4146 72.2 41.1364C70.7354 40.8184 69.2708 40.6197 67.7667 40.6197C66.975 40.5799 66.1437 40.6992 65.3877 40.8979C64.8771 41.0171 64.4377 41.2954 64.1606 41.6928C63.9627 42.0108 63.844 42.4082 63.844 42.7659C63.844 43.1236 64.0023 43.4813 64.2437 43.7993C64.6 44.2365 65.071 44.5942 65.5896 44.8724C66.496 45.3494 67.45 45.7866 68.396 46.184C70.5375 46.8994 72.5958 47.8931 74.4958 49.0854C75.8021 49.9161 76.8708 51.0329 77.619 52.3843C78.2523 53.6482 78.569 55.0472 78.5294 56.4741C78.5729 58.3461 78.0188 60.2101 76.9896 61.7642Z" fill="white"/>
</svg>
