<svg width="98" height="100" viewBox="0 0 98 100" fill="none" xmlns="http://www.w3.org/2000/svg">
<path fill-rule="evenodd" clip-rule="evenodd" d="M97.7754 60.5431C97.4061 58.1488 95.395 56.5807 93.0556 56.4749C92.2088 56.4363 91.3488 56.5249 90.5045 56.6324C89.4846 56.7621 88.4769 56.9918 87.4594 57.1436C86.7562 57.2487 86.0432 57.2971 85.3408 57.3693L85.3236 57.2782C86.6348 54.8018 88.001 52.3525 89.2417 49.8408C90.1927 47.9141 91.0067 45.9177 91.8477 43.9378C93.2394 40.6572 94.3512 37.2749 95.2719 33.8377C96.154 30.5465 96.9089 27.2191 97.146 23.8049C97.2412 22.4411 97.3068 21.0716 97.2994 19.7062C97.2929 18.6174 97.1755 17.5269 97.0664 16.4413C96.9433 15.1973 96.5675 14.0182 96.0473 12.8834C95.3613 11.3884 94.2979 10.1616 93.1787 8.99646C92.2826 8.0635 91.2971 7.21342 90.3199 6.36415C88.9266 5.15221 87.3602 4.18478 85.733 3.32567C83.8898 2.34621 81.937 1.58875 79.9154 1.06917C78.6903 0.756543 77.4373 0.524329 76.1966 0.276524C75.7503 0.186264 75.3031 0 74.8567 0H66.4535C66.1499 0 65.8487 0.156724 65.5427 0.191187C63.5307 0.415196 61.5425 0.794288 59.6118 1.39247C58.8897 1.61648 58.23 1.47534 57.544 1.41216C57.018 1.36375 56.5011 1.22261 55.9751 1.19636C53.9713 1.09625 51.9651 0.949371 49.9622 0.970706C48.0429 0.990399 46.1433 1.30631 44.2856 1.83392C42.7307 2.27537 41.2094 2.81447 39.8161 3.63174C39.2196 3.98129 38.7469 3.91564 38.1299 3.73759C36.0564 3.13941 33.9681 2.57733 31.8617 2.10552C30.5489 1.81176 29.1991 1.66571 27.8583 1.52539C26.5717 1.39168 25.2802 1.3112 23.987 1.28415C22.725 1.25708 21.4539 1.2579 20.1977 1.36949C18.1967 1.54344 16.2244 1.96034 14.3242 2.61098C12.2197 3.32955 10.2534 4.40209 8.50983 5.78239C6.7317 7.18962 5.30559 8.90784 4.15847 10.8698C2.94981 12.94 2.12106 15.1563 1.60575 17.4842C1.32677 18.7454 1.15035 20.0418 0.959164 21.3227C0.899264 21.7215 1.5598 22.1203 0.739258 22.5174V28.0922C1.5598 28.4631 0.909931 28.8332 0.957523 29.2049C1.07158 30.0984 1.17251 30.9994 1.32349 31.8864C1.56227 33.2904 1.84535 34.6902 2.13419 36.0851C2.53524 38.0348 2.95812 39.9799 3.40275 41.92C3.72769 43.3314 4.09775 44.7345 4.48505 46.1303C5.07666 48.262 5.65925 50.3979 6.32799 52.5059C6.94915 54.4645 7.66056 56.3953 8.36623 58.326C9.3435 60.9969 10.5136 63.5816 11.9167 66.0589C13.1303 68.2038 14.517 70.2125 16.3772 71.865C17.6031 72.9539 18.9677 73.7909 20.5563 74.2093C21.8043 74.5376 23.0729 74.5769 24.3505 74.3152C25.8061 74.0191 27.1658 73.3677 28.3088 72.4189C28.4425 72.309 28.5894 72.2253 28.7478 72.4271C29.3509 73.191 30.1583 73.7006 31.0026 74.1412C33.2813 75.3294 35.7643 75.6855 38.2866 75.8307C38.8971 75.866 39.5141 75.7782 40.1296 75.761C41.3284 75.7282 42.4935 75.4943 43.6399 75.1628C44.2405 74.9889 44.8272 74.7681 45.4385 74.5622C45.4705 75.2129 45.5115 75.8398 45.5304 76.4667L45.6157 79.8851C45.6313 80.4053 45.6518 80.9271 45.7002 81.4449C45.8241 82.7799 45.9456 84.1158 46.1048 85.4467C46.2155 86.3641 46.3304 87.2888 46.5462 88.1841C46.9789 89.9912 47.5714 91.7564 48.317 93.4585C49.0307 95.1107 50.1277 96.5691 51.5171 97.7131C53.3387 99.2196 55.4738 99.8621 57.7795 99.981C58.733 100.031 59.7135 99.9843 60.6522 99.8136C62.1442 99.5485 63.62 99.1992 65.0725 98.7674C68.0191 97.878 70.5661 96.3419 72.4689 93.8598C73.552 92.4451 74.4415 90.9148 75.0126 89.2253C75.4836 87.8296 75.9275 86.4199 76.2803 84.9913C76.5593 83.8655 76.6972 82.7044 76.867 81.5549C76.9794 80.7942 77.0467 80.0262 77.1173 79.2598C77.2322 78.015 77.3495 76.7711 77.4324 75.5238C77.4898 74.6557 77.4874 73.7835 77.5218 72.9137C77.5325 72.6487 77.5752 72.3853 77.5998 72.121C77.6227 71.8765 77.7458 71.792 77.9953 71.7961C78.8741 71.8092 79.7545 71.8322 80.6309 71.7928C81.6131 71.7485 82.6043 71.7067 83.5709 71.5442C84.9482 71.3141 86.3144 71.022 87.6654 70.6687C89.2597 70.2518 90.7219 69.5051 92.1292 68.6542C93.7686 67.6638 95.2628 66.502 96.4756 65.0053C97.53 63.6998 98.0297 62.1908 97.7754 60.5431ZM94.9757 61.3489C94.9215 62.0997 94.5777 62.743 94.0788 63.2928C91.7246 65.8882 88.7715 67.4628 85.3933 68.2382C84.11 68.532 82.7856 68.6846 81.4719 68.806C80.3495 68.9048 79.222 68.9313 78.0962 68.8856C77.2707 68.8545 76.4518 68.6657 75.6083 68.5443C75.5238 69.3156 75.4434 70.1189 75.3457 70.9206L74.9527 73.9935C74.8337 74.9675 74.741 75.9448 74.6187 76.918C74.4989 77.8624 74.3496 78.8036 74.2241 79.748C74.1067 80.6276 74.0206 81.5114 73.8901 82.3894C73.6891 83.735 73.497 85.084 73.2345 86.4191C72.9194 88.015 72.4361 89.5609 71.6475 91.0002C70.6859 92.757 69.3221 94.0953 67.5867 95.0865C65.7979 96.1089 63.8425 96.6406 61.8601 97.0853C60.4569 97.4004 59.0111 97.4521 57.5899 97.3241C55.125 97.1009 53.0211 96.0465 51.4309 94.1355C49.9129 92.3114 48.8856 90.2206 48.518 87.8542C48.3464 86.7277 48.212 85.5958 48.1151 84.4604C48.0063 83.1987 47.9245 81.9347 47.8698 80.6695C47.797 79.0644 47.7431 77.4585 47.7081 75.8521C47.6646 73.8778 47.6507 71.9036 47.6228 69.9294L47.6179 69.8539C46.6135 70.4562 45.6264 71.1159 44.5794 71.6591C43.3558 72.292 42.0164 72.6697 40.6424 72.7693C39.5609 72.8513 38.4655 72.926 37.3889 72.8398C35.6239 72.6979 33.8606 72.4214 32.2802 71.5524C31.6394 71.1996 30.9706 70.7704 30.5292 70.2067C29.4707 68.8561 29.9778 67.1494 31.5737 66.328C32.6765 65.7594 33.8803 65.5222 35.0758 65.2457C36.1164 65.0096 37.1461 64.7279 38.1619 64.4014C39.1646 64.0731 39.7972 63.26 40.4217 62.4624L41.4113 61.1897C40.9985 61.1462 40.6096 61.1019 40.2206 61.0658C39.0399 60.9542 37.9133 60.6293 36.8359 60.1517C35.9136 59.7439 35.8996 59.6996 35.2235 60.4332C34.0944 61.6591 32.9966 62.9137 31.8905 64.1601C31.0765 65.0767 30.2674 65.999 29.4575 66.918C28.655 67.8271 27.9034 68.788 27.0394 69.634C25.7561 70.8902 24.2093 71.646 22.3639 71.5606C21.1799 71.5065 20.0959 71.0913 19.1211 70.4127C17.1091 69.0112 15.7536 67.0509 14.5195 64.9921C12.9383 62.3541 11.7247 59.5437 10.6859 56.6562C9.96711 54.6607 9.24504 52.6634 8.61732 50.6392C7.93544 48.4393 7.33727 46.2115 6.74894 43.9845C6.30947 42.302 5.90404 40.6108 5.53289 38.9119C5.1001 36.9825 4.69962 35.0461 4.33161 33.1033C4.08708 31.7912 3.94513 30.4603 3.74738 29.1392C3.4807 27.3586 3.43147 25.5616 3.52829 23.7737C3.61445 22.1629 3.84584 20.5563 4.0756 18.9562C4.39397 16.7424 5.12343 14.6533 6.17291 12.6807C6.8154 11.4721 7.61297 10.3733 8.53526 9.35258C10.0492 7.67703 11.8814 6.4659 13.9197 5.55674C15.3442 4.92163 16.849 4.53926 18.3826 4.24058C20.6588 3.79749 22.9555 3.81472 25.2531 3.86231C26.2574 3.88282 27.2577 4.0658 28.2612 4.16509C30.4217 4.38007 32.5395 4.83466 34.6303 5.39591C36.154 5.80454 37.6466 6.33379 39.158 6.7933C39.3098 6.83925 39.5322 6.83515 39.6561 6.75391C41.7042 5.41724 43.9426 4.53516 46.323 4.03052C47.2265 3.83933 48.1586 3.75564 49.0825 3.69656C50.2059 3.62517 51.3382 3.55953 52.4591 3.62435C53.8064 3.70148 55.1472 3.90005 56.4863 4.08386C57.1362 4.17248 57.7705 4.39813 58.422 4.45967C58.7338 4.48921 59.0645 4.26109 59.3943 4.18478C61.0756 3.79667 62.7495 3.36424 64.4456 3.05735C65.7084 2.82924 66.9983 2.72175 68.2825 2.6479C69.7143 2.56585 71.1568 2.50595 72.5879 2.57487C74.3999 2.66461 76.2002 2.9181 77.9666 3.33224C80.1632 3.84344 82.2703 4.58603 84.2733 5.61664C85.77 6.38631 87.1928 7.27906 88.4736 8.37695C89.3131 9.09739 90.1722 9.8088 90.9304 10.6113C91.8658 11.6009 92.8201 12.5913 93.4068 13.859C93.8482 14.815 94.1633 15.8045 94.2503 16.8515C94.3586 18.1529 94.4899 19.4592 94.4776 20.7623C94.4661 22.0087 94.2962 23.2543 94.1756 24.4974C93.9016 27.3316 93.2853 30.1042 92.537 32.8399C91.911 35.0997 91.2024 37.3358 90.4126 39.5437C89.6913 41.5795 88.8593 43.5784 88.0182 45.569C87.3991 47.0435 86.7264 48.4949 86.0013 49.9204C84.6253 52.6167 83.1943 55.2851 81.5392 57.8247C81.2537 58.2637 80.9829 58.7133 80.7039 59.1613C81.426 59.6488 82.2441 59.8202 83.0679 59.9089C83.8515 59.9942 84.6507 60.0451 85.4335 59.9868C86.6865 59.8941 87.9354 59.7152 89.181 59.5404C90.4151 59.3681 91.6245 59.0169 92.8915 59.1097C94.1567 59.2016 95.0618 60.1632 94.9757 61.3489ZM76.913 58.5976C76.3755 57.9035 75.8274 57.2175 75.3014 56.5151C74.476 55.4123 73.8827 54.1806 73.287 52.9433C72.7225 51.7707 72.0299 50.6605 71.435 49.5011C70.397 47.4784 69.3402 45.4623 68.3842 43.4003C67.1821 40.8098 66.2344 38.1275 65.9357 35.258C65.8094 34.0436 65.7774 32.8309 66.0227 31.6279C66.4157 29.707 67.4193 28.2046 69.1063 27.174C70.6711 26.2181 72.4147 25.9096 74.2011 25.8127C75.3096 25.7528 76.4231 25.8021 77.5735 25.8021L77.535 25.6076C76.8194 24.1117 76.1507 22.5904 75.3679 21.1299C74.2634 19.0687 72.8505 17.2101 71.2766 15.487C70.1107 14.211 68.8478 13.027 67.4644 11.9808C66.1039 10.951 64.6704 10.0312 63.1409 9.27873C61.3169 8.38187 59.4173 7.68851 57.4242 7.24624C55.509 6.8212 53.5816 6.56108 51.6172 6.53975C49.9416 6.5217 48.2768 6.59719 46.6447 6.97546C44.1814 7.54574 41.9282 8.55993 39.9679 10.2027C38.8834 11.1122 37.9142 12.1511 37.0821 13.2961C36.1007 14.6443 35.3088 16.0999 34.6319 17.6261C33.703 19.7202 33.0655 21.8995 32.6298 24.1396C32.4115 25.2564 32.2408 26.383 32.0669 27.5088C32.0062 27.9027 32.0012 28.3055 31.9659 28.7568C32.2687 28.5993 32.487 28.4779 32.7102 28.3695L33.4364 28.0438C35.8923 26.9205 38.4368 26.1976 41.1716 26.2804C42.3335 26.3157 43.4454 26.5455 44.4784 27.0542C46.4601 28.0315 47.6195 29.6931 48.1233 31.7961C48.4712 33.2477 48.7092 34.728 48.9406 36.2041C49.1219 37.357 49.3074 38.5222 49.3287 39.6849C49.3591 41.3842 49.2729 43.0869 49.1802 44.7854C49.1006 46.2297 48.8017 47.6535 48.294 49.0079C47.375 51.4638 46.3509 53.8795 45.3942 56.3214C45.0783 57.128 44.8354 57.9634 44.5367 58.8504C44.9979 58.8504 45.372 58.8471 45.7462 58.852C45.8922 58.8545 46.0416 58.8586 46.1827 58.8922C47.2823 59.1515 48.2357 59.6496 49.0177 60.4956C50.0606 61.6213 50.6079 62.935 50.6358 64.4555C50.6514 65.2982 50.5628 66.1434 50.5669 66.9861C50.5841 70.9132 50.6137 74.8403 50.6465 78.7666C50.6522 79.4083 50.6842 80.0508 50.7302 80.6916C50.8262 82.0332 50.923 83.3756 51.0543 84.714C51.1462 85.6633 51.2742 86.6111 51.4244 87.5539C51.6369 88.8897 52.2449 90.0787 52.935 91.2151C53.5291 92.1924 54.3012 93.0228 55.3187 93.5956C57.0476 94.5687 58.9094 94.65 60.786 94.2914C62.0537 94.0493 63.2985 93.6604 64.5293 93.2591C65.7397 92.8708 66.8449 92.21 67.7598 91.3276C68.6222 90.4914 69.2343 89.4723 69.647 88.3473C70.4479 86.1655 70.6973 83.868 71.0288 81.5885C71.1527 80.7351 71.2602 79.8793 71.3735 79.0243C71.5023 78.0511 71.6328 77.0788 71.7575 76.1064C71.8494 75.3819 71.9331 74.6557 72.0217 73.9312C72.1481 72.8907 72.2818 71.8511 72.4024 70.8098C72.4952 70.0049 72.5739 69.1966 72.656 68.39C72.7618 67.3594 72.8759 66.3288 72.967 65.2966C73.0375 64.5129 73.0088 63.7154 73.1475 62.9465C73.4027 61.5368 74.069 60.3372 75.3187 59.5618C75.8413 59.2377 76.4313 59.0243 77.0114 58.7503L76.913 58.5976ZM29.652 52.8111C29.0288 51.3456 28.6533 49.7866 28.541 48.198C28.436 46.7005 28.614 45.2088 28.7675 43.7179C28.9168 42.2737 29.0407 40.823 29.0842 39.3722C29.1564 36.9877 28.9956 34.6065 28.8815 32.2237C28.8126 30.8049 28.9775 29.369 29.1039 27.947C29.2179 26.6661 29.3599 25.3819 29.602 24.1199C30.0081 22.0021 30.5472 19.9146 31.3136 17.8912C32.0414 15.9727 32.8776 14.1044 34.0583 12.4222C34.8674 11.2686 35.7856 10.1904 36.6677 9.06293L36.4059 8.97021C33.5356 8.05858 30.6186 7.34635 27.6187 7.03536C26.2 6.88848 24.7763 6.80232 23.3535 6.71781C22.917 6.69155 22.4739 6.75063 22.0357 6.79248C20.9509 6.89587 19.8531 6.93689 18.7855 7.14039C16.9688 7.48584 15.226 8.06678 13.612 9.01287C12.1629 9.86214 10.946 10.96 9.92691 12.277C8.80112 13.731 8.04376 15.3754 7.49973 17.1289C6.85725 19.1975 6.55118 21.326 6.46831 23.4742C6.3961 25.3573 6.36 27.2511 6.68493 29.1269C6.92699 30.5235 7.08864 31.9348 7.35532 33.3256C7.71882 35.2219 8.10858 37.1141 8.55906 38.9907C9.20319 41.6772 9.84649 44.3677 10.6096 47.0214C11.3399 49.5642 12.1637 52.0841 13.0565 54.5737C13.7868 56.6054 14.6311 58.5993 15.5206 60.5669C16.0999 61.8486 16.8014 63.0819 17.5366 64.2824C18.3186 65.5567 19.2081 66.7662 20.4151 67.6909C21.9381 68.8586 23.1172 69.0399 24.6647 67.759C25.3277 67.2101 25.8882 66.5323 26.465 65.8865C27.3816 64.8609 28.2661 63.8073 29.1786 62.7783C30.3404 61.4671 31.5171 60.1698 32.6847 58.8651C32.9317 58.5894 33.1689 58.3055 33.4093 58.0265L33.0121 57.6778C31.5701 56.3033 30.4263 54.6467 29.652 52.8111ZM73.7055 13.7786C74.6601 14.8885 75.5661 16.0395 76.4207 17.2282C78.0617 19.5331 79.373 22.0218 80.3388 24.6845C80.7663 25.8579 81.1076 27.0427 80.955 28.3269C80.8491 29.2262 80.8582 30.1386 80.7786 31.0429C80.7121 31.7953 80.5931 32.5437 80.4955 33.2936C80.3494 34.4244 80.1377 35.5518 80.0745 36.6874C80.0146 37.7681 80.077 38.8602 80.1451 39.9433C80.214 41.0437 80.3626 42.1391 80.4635 43.2378C80.5775 44.4834 80.731 45.729 80.7663 46.9771C80.795 48.0019 80.7039 49.0333 80.6145 50.0566C80.5078 51.289 80.1952 52.4821 79.7291 53.6268C79.4017 54.4325 79.0103 55.2137 78.6402 56.0203L78.7887 56.1778L79.0144 56.3526L79.2417 55.9456C81.1611 52.9249 82.8671 49.7737 84.3471 46.5151C85.2941 44.4116 86.1934 42.2869 87.0443 40.1427C88.3768 36.808 89.4312 33.3798 90.2468 29.8835C90.6128 28.3137 90.8926 26.7203 91.1412 25.1268C91.3349 23.8812 91.4965 22.6208 91.5326 21.3637C91.5712 20.0303 91.4974 18.6863 91.3743 17.3562C91.2824 16.3518 91.0346 15.3409 90.4052 14.5245C89.3935 13.21 88.3013 11.9529 86.9581 10.9584C85.8274 10.1206 84.7008 9.2615 83.4872 8.55665C81.563 7.44071 79.4805 6.69729 77.3044 6.19102C75.1808 5.69623 73.0293 5.48289 70.8639 5.43776C69.5871 5.41068 68.3046 5.54771 67.0303 5.66751C65.8758 5.77582 64.7287 5.96044 63.566 6.11307C64.8132 6.81463 66.0432 7.43825 67.2035 8.17346C69.6429 9.71854 71.8289 11.5779 73.7055 13.7786ZM42.0119 57.0394C42.8004 54.5179 43.8745 52.1104 44.915 49.6881C45.7585 47.7238 46.2196 45.6543 46.3731 43.5291C46.4494 42.4813 46.4281 41.4203 46.3764 40.3692C46.3251 39.1998 46.2177 38.0336 46.0547 36.8745C45.8365 35.3967 45.5878 33.9181 45.2383 32.4674C44.8592 30.8976 43.9032 29.8047 42.2654 29.4018C41.2677 29.1565 40.2764 29.1663 39.268 29.3255C36.8047 29.7136 34.5498 30.6211 32.4492 31.9504C32.0267 32.2179 31.7945 32.4337 31.8675 33.0401C32.0217 34.3242 32.0554 35.6289 32.0496 36.9254C32.0414 38.7601 31.9635 40.5949 31.8937 42.4288C31.8708 43.0261 31.7846 43.6202 31.7206 44.2151C31.6221 45.1259 31.4326 46.0359 31.4383 46.9451C31.4441 47.8821 31.5401 48.8413 31.7674 49.7489C32.4895 52.6265 34.019 54.9815 36.5257 56.6431C38.0675 57.6647 39.7734 58.18 41.6459 58.2776C41.7731 57.8477 41.8863 57.4415 42.0119 57.0394ZM39.0694 32.3517C38.7396 31.6591 38.9283 31.0856 39.693 30.8197C39.8793 30.7541 40.0713 30.6843 40.2649 30.6654C40.5308 30.6392 40.8016 30.6589 41.0707 30.6589C42.0406 30.6638 42.9736 30.7992 43.7744 31.4162C44.2881 31.8117 44.4259 32.3369 44.0936 32.876C43.6218 33.6407 42.9022 34.0247 42.0185 34.0986C40.626 34.2143 39.6487 33.5652 39.0694 32.3517ZM77.6679 32.0989C77.7795 31.1766 77.8689 30.2519 77.983 29.3296C78.0289 28.9587 77.8336 28.8586 77.5226 28.8496C76.5445 28.8225 75.5665 28.788 74.5884 28.77C73.4856 28.7503 72.4123 28.9275 71.3915 29.3468C70.2592 29.8129 69.3968 30.5596 69.0448 31.792C68.7872 32.7009 68.7056 33.6506 68.8043 34.5901C68.9414 36.0429 69.2706 37.471 69.7833 38.8372C70.4676 40.6597 71.1839 42.4813 72.0398 44.2274C73.1992 46.5914 74.5112 48.8799 75.7429 51.2078C76.0719 51.8289 76.3484 52.4772 76.6914 53.2025C77.383 51.7605 77.7608 50.1882 77.8 48.5894C77.8336 47.2684 77.7278 45.9415 77.6507 44.6196C77.6022 43.8106 77.4882 43.0064 77.4094 42.199C77.2995 41.0741 77.1329 39.9499 77.1075 38.8225C77.082 37.6762 77.1632 36.5233 77.2617 35.3787C77.3544 34.2808 77.5358 33.1919 77.6679 32.0989ZM75.4614 31.2111C75.0979 32.2146 74.3209 32.7808 73.3132 32.9474C72.3737 33.1016 71.5507 32.7545 70.9386 32.0054C70.5029 31.472 70.6694 30.8402 71.3226 30.48C72.0726 30.0648 72.8972 29.9598 73.8696 29.8966C74.1338 29.945 74.5318 29.9852 74.91 30.0935C75.459 30.2486 75.6617 30.6613 75.4614 31.2111ZM46.3961 62.1129C45.8586 61.6739 45.148 61.6484 44.6368 62.1301C44.0025 62.7291 43.4446 63.4142 42.8866 64.0895C42.2425 64.8699 41.6385 65.6814 40.8073 66.2861C39.5978 67.1649 38.1881 67.5293 36.7711 67.8739C35.6445 68.148 34.5129 68.4023 33.383 68.6657L33.3691 68.8118C33.7047 68.9669 34.0296 69.1605 34.3792 69.2713C36.1023 69.817 37.855 70.0886 39.6758 69.9343C40.9903 69.8227 42.2425 69.5363 43.429 68.9734C45.0619 68.1997 46.3181 66.9738 47.3865 65.5477C47.5653 65.3097 47.6466 64.9577 47.6679 64.6508C47.7409 63.5669 47.1903 62.7611 46.3961 62.1129ZM88.8601 62.5445C87.4734 62.693 86.085 62.8505 84.6942 62.9301C84.023 62.9687 83.342 62.8407 82.6642 62.7857C81.5277 62.6938 80.4184 62.4411 79.4575 61.8339C78.9012 61.4835 78.4392 61.4441 77.8484 61.6427C77.0049 61.9266 76.3164 62.3582 76.1129 63.2723C75.9743 63.8902 75.9242 64.5302 75.8684 65.1628C75.8578 65.2744 75.9973 65.4795 76.1039 65.5074C76.7546 65.6789 77.4086 65.8816 78.0741 65.9415C78.8913 66.0154 79.7234 65.9916 80.5464 65.9505C81.435 65.9062 82.3294 65.8488 83.2049 65.7011C85.2686 65.3548 87.265 64.7903 89.0382 63.6202C89.6774 63.1976 90.3109 62.766 90.946 62.3385L90.8934 62.2482C90.2157 62.3492 89.5412 62.4722 88.8601 62.5445Z" fill="white"/>
</svg>
