<svg width="116" height="100" viewBox="0 0 116 100" fill="none" xmlns="http://www.w3.org/2000/svg">
<path d="M94.5264 32.4062C93.3135 32.0044 92.1006 31.625 90.8877 31.2679C91.0898 30.442 91.2695 29.6162 91.4492 28.7903C94.2119 15.4875 92.3926 4.79606 86.2607 1.26946C80.3535 -2.10089 70.7178 1.40338 60.9697 9.84043C60.0039 10.6663 59.0605 11.5368 58.1621 12.4073C57.5557 11.8269 56.9268 11.2466 56.2979 10.6886C46.0781 1.67123 35.8359 -2.12321 29.7041 1.4257C23.8193 4.81838 22.0674 14.8848 24.5381 27.4734C24.7852 28.7234 25.0547 29.951 25.3691 31.2009C23.9316 31.6027 22.5166 32.0491 21.1914 32.5178C9.19726 36.647 0.594727 43.1645 0.594727 49.9053C0.594727 56.8692 9.75879 63.8554 22.2246 68.0963C23.2354 68.4311 24.2461 68.7659 25.2793 69.056C24.9424 70.3952 24.6504 71.7121 24.3809 73.0737C22.0225 85.4614 23.8643 95.2823 29.749 98.6526C35.8135 102.135 46.0107 98.5634 55.9385 89.9254C56.7246 89.2335 57.5107 88.5193 58.2969 87.7604C59.2852 88.7201 60.3184 89.6353 61.3516 90.5281C70.9648 98.7419 80.4658 102.068 86.3281 98.6973C92.3926 95.2153 94.3691 84.6579 91.8086 71.8014C91.6064 70.8193 91.3818 69.8149 91.1348 68.7882C91.8535 68.5873 92.5498 68.3641 93.2461 68.1409C106.206 63.8777 115.595 56.9808 115.595 49.9053C115.595 43.1422 106.745 36.5801 94.5264 32.4062ZM64.1367 13.4563C72.4922 6.22456 80.2861 3.38988 83.835 5.42103C87.6309 7.58609 89.0908 16.3356 86.71 27.8305C86.5527 28.5894 86.3955 29.326 86.1934 30.0626C81.207 28.9466 76.1533 28.143 71.0771 27.6966C68.1572 23.5451 64.9678 19.5721 61.5088 15.8446C62.3848 15.0187 63.2383 14.2375 64.1367 13.4563ZM38.1494 61.4895C39.2949 63.4313 40.4629 65.3732 41.6982 67.2704C38.1943 66.891 34.7129 66.3329 31.2764 65.5964C32.2647 62.3823 33.5 59.0566 34.9375 55.6639C35.9707 57.6281 37.0264 59.5699 38.1494 61.4895ZM31.3437 34.6382C34.5781 33.924 38.0146 33.3436 41.5859 32.8972C40.3955 34.7498 39.2275 36.647 38.127 38.5666C37.0264 40.4638 35.9482 42.4057 34.9375 44.3698C33.5225 41.0441 32.332 37.7854 31.3437 34.6382ZM37.498 50.0169C38.9805 46.9367 40.5977 43.9234 42.3047 40.9548C44.0117 37.9862 45.8535 35.1069 47.7852 32.2723C51.1543 32.0267 54.5908 31.8928 58.0947 31.8928C61.5986 31.8928 65.0576 32.0267 68.4043 32.2723C70.3135 35.0846 72.1328 37.9639 73.8623 40.9102C75.5918 43.8565 77.209 46.8697 78.7363 49.9276C77.2314 53.0078 75.6143 56.0433 73.8848 59.0342C72.1777 62.0028 70.3584 64.8821 68.4492 67.7391C65.1025 67.9846 61.6211 68.0963 58.0947 68.0963C54.5684 68.0963 51.1543 67.9846 47.8525 67.7838C45.8984 64.9491 44.0566 62.0475 42.3271 59.0789C40.5977 56.1103 39.0029 53.097 37.498 50.0169ZM78.0625 61.4448C79.208 59.4806 80.2861 57.4941 81.3418 55.4853C82.7793 58.7217 84.0371 62.0028 85.1377 65.3732C81.6562 66.1544 78.1299 66.757 74.5811 67.1588C75.7939 65.2839 76.9395 63.3644 78.0625 61.4448ZM81.2969 44.3698C80.2412 42.4057 79.1631 40.4415 78.04 38.5219C76.9395 36.6247 75.7939 34.7498 74.6035 32.8972C78.2197 33.3436 81.6787 33.9463 84.9131 34.6829C83.8799 37.9862 82.667 41.2004 81.2969 44.3698ZM58.1397 19.2596C60.4981 21.8041 62.7217 24.4825 64.7881 27.2502C60.3408 27.0493 55.8711 27.0493 51.4238 27.2502C53.625 24.3709 55.8936 21.6925 58.1397 19.2596ZM32.085 5.57727C35.8584 3.38988 44.2363 6.51472 53.0635 14.2822C53.625 14.7732 54.1865 15.3089 54.7705 15.8446C51.2891 19.5721 48.0771 23.5451 45.1348 27.6966C40.0586 28.143 35.0273 28.9242 30.041 30.0179C29.749 28.8796 29.502 27.7189 29.2549 26.5583C27.1436 15.7553 28.5361 7.60841 32.085 5.57727ZM26.582 64.4134C25.6387 64.1456 24.7178 63.8554 23.7969 63.5429C19.0127 62.0475 13.5771 59.6815 9.64648 56.579C7.37793 55.0166 5.85059 52.606 5.42383 49.9053C5.42383 45.8207 12.5215 40.5977 22.7637 37.0488C24.0439 36.6024 25.3467 36.2006 26.6494 35.8212C28.1768 40.6647 30.0186 45.4189 32.1523 50.0169C29.9961 54.6818 28.1318 59.503 26.582 64.4134ZM52.7715 86.2872C49.0654 89.6576 44.7754 92.336 40.1035 94.1663C37.6104 95.3493 34.7354 95.4609 32.1748 94.4565C28.6035 92.403 27.1211 84.5239 29.1426 73.9218C29.3896 72.6719 29.6592 71.422 29.9736 70.1944C35.0049 71.2657 40.0811 72.0023 45.2246 72.3817C48.1895 76.5556 51.4463 80.5509 54.9277 84.3007C54.209 84.9927 53.4902 85.6623 52.7715 86.2872ZM58.2744 80.8634C55.9834 78.4082 53.6924 75.6851 51.4688 72.7612C53.625 72.8505 55.8486 72.8951 58.0947 72.8951C60.4082 72.8951 62.6768 72.8505 64.9229 72.7389C62.8564 75.5735 60.6328 78.2743 58.2744 80.8634ZM87.6309 87.5595C87.4287 90.2826 86.0811 92.8271 83.9248 94.5457C80.3535 96.5992 72.7393 93.9208 64.5186 86.9122C63.5752 86.1087 62.6318 85.2382 61.666 84.3454C65.1025 80.5733 68.2695 76.5779 71.1445 72.3817C76.2881 71.9576 81.4092 71.1764 86.4629 70.0381C86.6875 70.9532 86.8896 71.8684 87.0693 72.7612C88.1699 77.5824 88.3496 82.6044 87.6309 87.5595ZM91.7188 63.5652C91.0898 63.7661 90.4609 63.967 89.8096 64.1456C88.2373 59.2798 86.3057 54.5255 84.082 49.9053C86.2383 45.3519 88.0576 40.6647 89.585 35.8658C90.7529 36.2006 91.876 36.5578 92.9541 36.9149C103.421 40.4861 110.766 45.7983 110.766 49.8606C110.766 54.2354 102.927 59.8824 91.7188 63.5652ZM58.0947 60.2172C63.7773 60.2172 68.3818 55.6416 68.3818 49.9945C68.3818 44.3475 63.7773 39.7719 58.0947 39.7719C52.4121 39.7719 47.8076 44.3475 47.8076 49.9945C47.8076 55.6416 52.4121 60.2172 58.0947 60.2172Z" fill="white"/>
</svg>
