<svg width="107" height="100" viewBox="0 0 107 100" fill="none" xmlns="http://www.w3.org/2000/svg">
<path d="M73.6766 69.7878C77.4949 69.4582 80.4563 66.0969 80.263 62.0809C80.0609 58.0649 76.7699 54.8398 72.7583 54.8398H72.4902C68.3468 54.9761 65.1173 58.4604 65.2492 62.6126C65.381 64.7173 66.2422 66.4309 67.4197 67.6787C62.815 76.6334 55.9034 83.2154 45.4328 88.7473C38.3894 92.4294 30.9506 93.8178 23.7095 92.8292C17.6548 91.9768 12.9182 89.2702 10.0182 84.929C5.67711 78.3426 5.28166 71.2378 8.89781 64.1285C11.5385 58.9921 15.4842 55.2397 18.1205 53.3943C17.4615 51.6851 16.6706 48.7895 16.2751 46.6189C-3.21608 60.5782 -1.23444 79.6652 4.68849 88.6858C9.09993 95.2678 18.1205 99.4771 27.9936 99.4771C30.6255 99.4771 33.3936 99.2838 36.0915 98.6247C53.21 95.3337 66.1763 85.0653 73.6151 69.924L73.6766 69.7878ZM97.175 53.3284C86.9768 41.3463 71.963 34.7643 54.8445 34.7643H52.6036C51.492 32.3301 48.9259 30.8142 46.026 30.8142H45.8283C41.6848 30.8142 38.4554 34.3732 38.5916 38.5166C38.7234 42.4623 42.0803 45.7577 46.0963 45.7577H46.4214C49.3873 45.6259 51.9533 43.7805 53.0034 41.1486H55.442C65.5875 41.1486 75.1925 44.11 83.9494 49.9011C90.6589 54.3126 95.4702 60.1037 98.168 67.0196C100.532 72.6789 100.404 78.2108 97.9703 82.8244C94.2179 90.0611 87.8951 93.8838 79.538 93.8838C74.2697 93.8838 69.1377 92.236 66.5014 91.0541C64.924 92.3635 62.2877 94.5384 60.3764 95.8566C66.1675 98.4841 72.0289 100 77.6882 100C90.5271 100 100.066 92.7633 103.691 85.7814C107.637 77.8813 107.312 64.5854 97.2365 53.1965L97.175 53.3284ZM29.1096 72.1517C29.237 76.1018 32.5939 79.3928 36.6143 79.3928H36.878C41.0917 79.261 44.3168 75.7766 44.119 71.6244C44.119 67.6743 40.6962 64.3877 36.6802 64.3877H36.4122C36.1486 64.3877 35.7575 64.3877 35.4236 64.5151C29.962 55.2968 27.6552 45.4194 28.5164 34.7643C29.0393 26.7323 31.6756 19.7504 36.4122 13.9593C40.3623 9.02061 47.8011 6.58201 52.8716 6.45459C67.0902 6.18656 73.0175 23.9026 73.4745 30.946L80.0565 32.9188C78.5406 11.3274 65.1173 0 52.2785 0C40.2305 0 29.1096 8.75698 24.6279 21.5959C18.5072 38.7144 22.5232 55.1694 30.0279 68.3378C29.3732 69.1946 28.9778 70.7061 29.1096 72.1517Z" fill="white"/>
</svg>
