<svg width="95" height="95" viewBox="0 0 95 95" fill="none" xmlns="http://www.w3.org/2000/svg">
<path d="M53.7779 0.000132092V12.556H29.7785C25.2899 12.7201 21.0264 14.5636 17.8323 17.7216C14.6493 20.8639 12.7656 25.0892 12.5558 29.557V74.3891H9.66146e-06V29.7233C-0.00314464 25.8206 0.766101 21.9559 2.26341 18.3519C3.76073 14.7479 5.9565 11.4758 8.72418 8.7243C11.4254 6.00163 14.6305 3.83041 18.1608 2.33159C21.8193 0.781327 25.7538 -0.0117742 29.7271 0.000132092H53.7779ZM74.389 0.000132092V12.5005H61.8292V0.000132092H74.389ZM95 0.000132092V12.5005H82.4442V0.000132092H95ZM95 20.6112V33.167H82.4442V20.6112H95ZM95 41.2222V53.778H82.4442V41.2222H95ZM95 61.8333V74.3891H82.4442V61.8293L95 61.8333ZM95 82.4443V95.0001H82.4442V82.4443H95ZM74.389 82.4443V95.0001H61.8292V82.4443H74.389ZM53.7779 82.4443V95.0001H41.2221V82.4443H53.7779ZM33.1669 82.4443V95.0001H20.611V82.4443H33.1669ZM12.5004 82.4443V95.0001H9.66146e-06V82.4443H12.5004Z" fill="white"/>
</svg>
