<svg width="103" height="70" viewBox="0 0 103 70" fill="none" xmlns="http://www.w3.org/2000/svg">
<path d="M102.284 49.3304C101.991 46.9598 100.79 44.9035 98.7039 43.2111C98.678 43.1795 98.6494 43.1502 98.6184 43.1236L98.513 43.048L98.4792 43.0241L97.3715 42.2286L97.3337 42.2008L97.1925 42.1014C97.1407 42.0711 97.0852 42.0477 97.0274 42.0317C93.5233 39.9456 87.7221 38.4838 78.8464 41.6161C76.7284 38.0523 76.4878 35.1965 77.9057 30.8213C78.1583 30.0596 77.9236 29.5564 77.1679 29.2303C75.6485 28.5839 73.5683 28.9141 72.0927 29.3039C71.4046 29.4828 70.9909 29.8726 70.8597 30.4633C69.9249 34.8385 67.2084 38.8359 64.5812 42.694L64.4261 42.9207C62.8073 39.4882 63.1434 36.8292 64.271 33.4981C64.4957 32.8339 64.3187 32.3924 63.6962 32.0622C61.9581 31.1653 59.3509 31.7818 58.3127 32.0881C56.9962 32.4719 55.5842 36.0298 54.0071 40.2896C53.6094 41.3615 53.2673 42.2784 53.0625 42.7059C52.5752 43.7003 52.1099 44.8339 51.6167 46.0371C50.503 48.7596 49.2481 51.8243 47.4543 53.7494C46.8019 52.3075 47.8281 50.0344 48.8245 47.8289C50.0038 45.2217 51.1175 42.7576 49.8348 41.1845C49.6319 40.9358 49.3803 40.7313 49.0954 40.5835C48.8105 40.4358 48.4983 40.3479 48.1782 40.3254C47.7605 40.2936 47.3412 40.3618 46.9551 40.5243C47.0883 39.4007 47.0943 38.5137 46.7662 37.4418C46.2968 35.9124 45.0777 35.0553 43.3992 35.101C39.5769 35.2124 36.3432 38.0602 34.3008 40.4308C32.9405 42.0218 29.9256 43.2349 27.2786 44.2989C26.2325 44.7424 25.2381 45.1401 24.4088 45.5379C23.0863 44.4202 21.4058 43.2926 19.6359 42.1014C14.664 38.7643 9.02994 34.9797 8.83504 29.8488C8.55662 22.2697 17.1877 16.8942 24.721 13.0579C30.4307 10.1543 35.3946 8.22925 39.8971 7.17721C46.2212 5.69958 51.563 5.99789 55.7711 8.06021C58.0741 9.18782 59.152 11.6399 58.4679 14.1616C56.678 20.7145 49.262 25.2051 42.9199 27.2256C39.0996 28.4427 35.848 28.9518 32.9763 28.7848C29.3767 28.576 26.4373 26.7702 25.1804 26.0006C24.9791 25.863 24.7661 25.7433 24.544 25.6426L24.4864 25.6287C24.3726 25.6004 24.2531 25.6039 24.1412 25.639C24.0293 25.6741 23.9292 25.7393 23.852 25.8276C23.5934 26.1358 23.6849 26.623 23.7784 26.8696C25.0015 30.0655 27.5271 32.0841 31.2839 32.8697C32.5133 33.1159 33.7649 33.2351 35.0187 33.2256C43.8109 33.2256 55.0293 28.1564 59.15 23.982C61.9601 21.1381 64.0065 18.2147 64.8537 13.1732C65.7387 7.89315 62.159 4.22394 58.5116 2.53352C49.6478 -1.55731 39.5809 0.0595334 32.6959 2.13577C24.6415 4.56401 16.3087 8.979 9.83736 14.2531C1.85856 20.7503 -1.0251 26.7821 1.26194 32.2014C3.61064 37.756 9.33819 41.2303 14.8768 44.5912C16.6667 45.6751 18.369 46.7073 19.9023 47.7732C19.441 47.9979 18.9696 48.2267 18.4903 48.4554C13.8407 50.7086 8.56656 53.2442 5.64113 57.4345C3.51717 60.4872 3.11942 63.526 4.45983 66.4673C5.17577 68.0324 6.44856 69.0944 8.21654 69.6234C9.13624 69.884 10.0887 70.0106 11.0445 69.9993C14.487 69.9993 18.2756 68.6072 20.3379 67.3205C23.9812 65.0334 26.3419 61.9628 27.3561 58.1942C28.259 54.8412 28.0422 51.51 26.7297 48.5369L31.1944 46.2857C29.0406 53.4451 30.6912 57.7209 32.5049 60.0795C33.1732 60.9486 34.3783 61.4716 35.7247 61.4955C37.0711 61.5193 38.3101 61.0122 39.0101 60.1491C40.3346 58.5084 41.313 56.5893 42.2139 54.6701C42.1662 55.923 42.2259 57.1919 42.6535 58.2678C43.0373 59.2363 43.6697 59.8786 44.4851 60.1252C45.3522 60.3897 46.3684 60.167 47.3469 59.4988C51.7559 56.4819 54.7708 49.2409 57.1931 43.4199C57.5371 42.5926 57.8673 41.7971 58.1874 41.0533C58.7867 43.198 59.6204 45.2701 60.6734 47.2323C60.908 47.6579 60.8881 47.8448 60.57 48.1948C60.0907 48.7199 59.4225 49.3543 58.7145 50.0265C56.5706 52.0609 53.9017 54.6005 53.5438 56.8339C53.4045 57.7288 54.0211 58.5442 54.9776 58.7291C57.8553 59.3019 61.3217 58.4646 64.2531 56.4918C66.918 54.702 67.9203 52.2061 67.2362 49.0957C66.5739 46.1007 68.0854 42.3818 71.7287 38.0344C72.3254 40.5263 73.1208 42.5409 74.2186 44.3049L74.1888 44.3287C71.5358 46.6456 67.9004 49.8176 68.4652 53.6658C68.5126 54.0318 68.6358 54.3839 68.8268 54.6996C69.0179 55.0153 69.2727 55.2877 69.5749 55.4994C69.8979 55.7175 70.2625 55.8665 70.6458 55.937C71.0291 56.0075 71.4229 55.998 71.8023 55.9091C75.2766 55.1793 77.8918 53.7096 79.7931 51.4206C81.6943 49.1315 81.0002 46.5939 80.3598 44.6251C85.3317 43.2767 89.7586 43.3105 93.9031 44.7245C96.2299 45.52 97.8985 46.8266 98.861 48.6304C100.072 50.8995 99.4179 52.9936 97.0135 54.527C96.2757 54.9983 95.9197 55.2867 95.8978 55.6506C95.8929 55.7351 95.9085 55.8194 95.9431 55.8966C95.9777 55.9738 96.0304 56.0415 96.0967 56.0941C96.3751 56.3228 97.2342 56.7205 99.1772 55.4975C100.967 54.3738 102.017 52.8445 102.286 50.9234C102.34 50.3937 102.339 49.8599 102.284 49.3304ZM22.788 54.3142L22.7681 54.5687C22.4579 57.4802 20.9782 60.0178 18.3631 62.1259C16.7204 63.4504 14.9365 64.2638 13.3415 64.4189C12.2278 64.5263 11.4184 64.3752 10.9371 63.9675C10.5772 63.6632 10.3843 63.2078 10.3405 62.5754C10.0144 57.5081 17.9613 52.4726 22.434 50.816C22.7532 51.9528 22.873 53.1364 22.788 54.3142ZM43.1427 40.0231C42.4068 44.2174 40.261 52.1345 36.8881 55.2071C36.727 55.3543 36.5918 55.406 36.5301 55.3921C36.4685 55.3781 36.4208 55.3046 36.371 55.1932C35.2454 52.584 35.6611 48.1769 37.3654 44.7145C38.676 42.0457 40.5474 40.2777 42.6395 39.7427C42.7264 39.7188 42.8159 39.7061 42.906 39.7049C42.9765 39.7 43.0465 39.7189 43.1049 39.7586C43.1295 39.7976 43.1456 39.8412 43.1521 39.8868C43.1586 39.9324 43.1554 39.9789 43.1427 40.0231ZM59.7466 55.3125C59.1122 55.9748 58.2431 55.8853 58.448 55.6426L61.6777 52.2141C61.4172 53.3934 60.6475 54.3698 59.7466 55.3125ZM73.1447 52.3473C72.8376 52.4987 72.5052 52.5924 72.1643 52.6237C72.0728 50.82 73.8209 48.7895 75.5451 47.4351C76.0085 49.3165 75.0599 51.3052 73.1447 52.3473Z" fill="white"/>
</svg>
