<svg width="89" height="98" viewBox="0 0 89 98" fill="none" xmlns="http://www.w3.org/2000/svg">
<path d="M84.1698 2.12849C79.9558 -1.62763 74.8599 -0.117064 69.8236 4.35031C69.0482 5.04709 68.3029 5.77662 67.5896 6.53691C58.9795 15.6707 50.9879 32.5832 48.5058 45.503C49.472 47.4652 50.2285 49.9681 50.7276 51.879C50.9769 52.8288 51.2003 53.7851 51.3976 54.747C51.3976 54.747 51.3202 54.4569 51.0033 53.5389L50.7996 52.944C50.7578 52.834 50.7129 52.7253 50.6649 52.6178C50.1029 51.3109 48.551 48.5532 47.8658 47.3542C47.3228 48.9444 46.8102 50.5449 46.3284 52.1547C48.3052 55.7638 49.5049 61.9545 49.5049 61.9545C49.5049 61.9545 49.4031 61.5511 48.9062 60.1515C48.4698 58.9135 46.2748 55.0701 45.7542 54.1728C44.8661 57.4573 44.5139 59.6699 44.8301 60.2082C45.4525 61.2517 46.0382 63.0586 46.5527 65.0499C47.7226 69.5426 48.5326 75.0152 48.5326 75.0152L48.6046 75.9278C48.4492 79.6686 48.5265 83.4163 48.832 87.1487C49.2209 91.8289 49.9475 95.8453 50.8746 97.999L51.5055 97.6545C50.1419 93.4168 49.5884 87.8607 49.8334 81.4579C50.1986 71.6656 52.4533 59.856 56.6137 47.5487C63.6505 28.9741 73.4098 14.066 82.34 6.94498C74.2014 14.2957 63.1819 38.1018 59.8829 46.9125C56.1895 56.779 53.5757 66.0353 51.9986 74.9072C54.7203 66.5904 63.5157 63.0195 63.5157 63.0195C63.5157 63.0195 67.8315 57.6954 72.8739 50.0936C69.8535 50.7811 64.8915 51.9625 63.2286 52.6592C60.7787 53.6851 60.1179 54.035 60.1179 54.035C60.1179 54.035 68.0581 49.2024 74.8714 47.0128C84.2379 32.2593 94.4451 11.3006 84.1698 2.12849ZM8.33238 4.34878C4.19958 4.36409 0.852305 7.70984 0.84082 11.8434V79.6571C0.85307 83.7899 4.20188 87.1334 8.33238 87.1487H46.787C46.4996 83.4714 46.4288 79.7803 46.5749 76.0947C46.5512 75.8405 46.5298 75.5174 46.5091 75.2778C46.0119 72.0133 45.3673 68.773 44.5774 65.5667C44.0836 63.6473 43.4558 61.9002 43.073 61.2517C42.5976 60.447 42.6718 59.9861 42.6749 59.487C42.6749 58.997 42.7377 58.4878 42.828 57.9106C43.0699 56.4727 43.3869 55.0487 43.782 53.643L44.667 53.5297C44.5981 53.3858 44.6104 53.2633 44.5415 53.1346L44.3738 51.5797C44.8621 49.9436 45.3828 48.3173 45.9356 46.7019L46.7518 46.6238C46.7189 46.5611 46.7097 46.4684 46.6768 46.4095L46.5007 45.1194C49.0754 31.7242 57.0662 14.7252 66.1012 5.13966C66.3707 4.85638 66.6456 4.61674 66.909 4.34725L8.33238 4.34878Z" fill="white"/>
</svg>
