<svg width="104" height="62" viewBox="0 0 104 62" fill="none" xmlns="http://www.w3.org/2000/svg">
<path d="M51.6667 0C37.8889 0 29.2778 6.88889 25.8333 20.6667C31 13.7778 37.0278 11.1944 43.9167 12.9167C47.8476 13.8983 50.6549 16.7486 53.7678 19.9089C58.8354 25.0497 64.6953 31 77.5 31C91.2778 31 99.8889 24.1111 103.333 10.3333C98.1667 17.2222 92.1389 19.8056 85.25 18.0833C81.319 17.1017 78.5118 14.2514 75.3989 11.0911C70.3356 5.95028 64.4757 0 51.6667 0ZM25.8333 31C12.0556 31 3.44444 37.8889 0 51.6667C5.16667 44.7778 11.1944 42.1944 18.0833 43.9167C22.0143 44.8983 24.8215 47.7486 27.9344 50.9089C33.0021 56.0497 38.8619 62 51.6667 62C65.4444 62 74.0555 55.1111 77.5 41.3333C72.3333 48.2222 66.3055 50.8056 59.4167 49.0833C55.4857 48.1017 52.6785 45.2514 49.5655 42.0911C44.5022 36.9503 38.6424 31 25.8333 31Z" fill="white"/>
</svg>
